<svg xmlns="http://www.w3.org/2000/svg" width="341.711" height="406.461" xmlns:v="https://vecta.io/nano"><g fill="none" stroke="#000" stroke-width=".5"><path d="M84.89 159.961H289.9M58.97 276.591H289.9"/><path d="M58.97 272.601H289.9m-230.93-59.81h229.56"/><path d="M58.97 216.781h218.61m-218.61 59.81V65.501"/><path d="M78.9 212.791V65.501m-3.98 147.29v-16.33m0-7.98v-15.94m0-7.98v-15.95m0-7.97v-15.95m0-7.98v-15.94m0-7.98v-16.33m9.97 83.5V49.071m23.92-10.95v121.84m-29.9 52.81v.02"/><path d="M78.91 212.771h.01m-.01.01h0m0 .01h.01"/><path d="M78.93 212.781h0l-.01-.01h0v.01h0 0 0 0 0 0 .01 0v.01h0 0-.01 0"/><path d="M78.93 212.771v.02"/><path d="M78.93 212.771h.01m.01.01h0 0v-.01h0l-.01.01h0 0 0 0v.01h0 0 .01 0 0m.01-.02v.01h0 0 0 0v.01h0 0 0 0 0 0 .01v-.01h0 0-.01 0v-.01"/><path d="M78.97 212.771v.02"/><path d="M78.97 212.771h.01v.01h0 0 0 0v.01h0 0 0-.01"/><path d="M78.98 212.771v.02"/><path d="M78.98 212.771h.01"/><path d="M78.98 212.781h.01"/><path d="M78.98 212.791h.01m2.41-1.99h28.41"/><path d="M78.9 212.791h31.9m-29.9-2.49v-28.41"/><path d="M78.9 212.791v-31.9m2 29.41l.14.35.36.15m-.5-28.91l-.14-.5-.36-.36-.5-.14m-1 0h1m30.9 30.9l-.13-.49-.37-.37-.49-.13m.99 1.99v-1m-1.04-2.99l-.18-2.07-.54-2.02-.89-1.89-1.19-1.7-1.48-1.48-1.7-1.2-1.89-.88-2.02-.54-2.07-.18-2.08.18-2.02.54-1.89.88-1.7 1.2-1.48 1.48-1.19 1.7-.88 1.89-.54 2.02-.19 2.07m23.98 0H85.6"/><path d="M109.81 210.801H85.6m24.21-2v2"/><path d="M85.6 208.801v2m204.3-13.96H84.89m0-36.88v36.88m205.01 127.59H58.97v-47.84H289.9"/><path d="M289.9 279.321h-15.78m-7.98 0h-15.95m-7.97 0h-15.95m-7.97 0h-15.95m-7.98 0h-15.95m-7.97 0H154.5m-7.98 0h-15.94m-7.98 0h-15.95m-7.97 0H82.73m-7.98 0H58.97m230.93 42.38h-15.78m-7.98 0h-15.95m-7.97 0h-15.95m-7.97 0h-15.95m-7.98 0h-15.95m-7.97 0H154.5m-7.98 0h-15.94m-7.98 0h-15.95m-7.97 0H82.73m-7.98 0H58.97m0-51.49l-1.92 5.18-1.56 5.31-1.19 5.4-.81 5.46-.43 5.51-.05 5.53.34 5.52.72 5.48 1.09 5.42 1.47 5.33 1.84 5.21 2.19 5.08 2.53 4.91 2.88 4.72 3.19 4.51 3.49 4.29 3.79 4.02 4.05 3.76 4.31 3.47 4.53 3.16 4.75 2.84 4.92 2.5 5.09 2.16 5.23 1.79 5.34 1.44 5.43 1.05 5.48.68 5.52.3 5.53-.08 5.51-.47 5.46-.85 5.39-1.22 5.29-1.6 5.17-1.95 5.02-2.32 4.85-2.65 4.65-2.98 4.44-3.3 4.2-3.6 3.94-3.88 3.65-4.14 3.37-4.39 3.05-4.6 2.72-4.81 2.39-4.99"/><path d="M184.57 324.431v7.98h39.87 39.87v-7.98"/><path d="M205.82 332.411l2.06-5.21 1.69-5.35.76-3.16m1.47-7.83l.53-5.56.14-5.61-.21-4.75m-.97-7.91l-.75-4.01-1.43-5.42-1.79-5.31-.26-.61m-3.27-7.26l-1.16-2.3-2.87-4.82-3.2-4.6-1.36-1.68m-5.24-6.01l-.73-.78-4.1-3.83-4.35-3.53-3-2.11m-6.78-4.19l-4.61-2.35-5.16-2.19-4.89-1.67m-7.73-1.95l-3.6-.69-5.56-.67-5.6-.28-1.07.03m-7.96.41l-2.16.19-5.53.91-5.45 1.29-2.46.76m-7.5 2.71l-.61.23-5.07 2.41-4.88 2.75-3.41 2.25m-6.35 4.81l-3.56 3.15-3.93 4-3.63 4.25m-4.6 6.51l-1.74 2.74-2.66 4.93-2.31 5.11m73.76-65.39v71.77m0 15.95v15.95m0 15.94v71.78"/><path d="M228.43 300.511h-71.77m-15.95 0h-15.95m-15.95 0H37.04M10 51.811h43.98l14.96 41.08 29.9-82.16 14.95 41.08h43.99m-25.05 90.32v-63.55m-73.76 44.5v-44.5m22.43 29.91h28.9m22.43 0h31.69"/></g><path d="M81.4 104.751l-22.43 3.74h0l22.43 3.74zm28.9 0l22.43 3.74h0l-22.43 3.74z" fill-rule="evenodd"/><g fill="none" stroke="#000" stroke-width=".5"><path d="M174.24 117.831l12.46-18.69"/><path d="M174.24 99.141l12.46 18.69m-53.97 278.38h0m-73.76-183.42h0m0-104.3h0m230.93 245.85v-82.24l41.08-14.95-82.16-29.9 41.08-14.96v-82.23"/></g></svg>