<svg xmlns="http://www.w3.org/2000/svg" xmlns:xlink="http://www.w3.org/1999/xlink" width="551.474" height="425.088" xmlns:v="https://vecta.io/nano"><g fill="none" stroke="#000" stroke-width=".5"><path d="M68.56 237.609l.18-1.02.52-.9.79-.66.98-.36h1.03l.97.36.8.66.51.9.18 1.02-.18 1.02-.51.89-.8.67-.97.35h-1.03l-.98-.35-.79-.67-.52-.89-.18-1.02m-17.02 0l.18-1.02.52-.9.79-.66.97-.36h1.04l.97.36.79.66.52.9.18 1.02-.18 1.02-.52.89-.79.67-.97.35H54l-.97-.35-.79-.67-.52-.89-.18-1.02m34.05 0l.18-1.02.52-.9.79-.66.97-.36h1.04l.97.36.79.66.52.9.18 1.02-.18 1.02-.52.89-.79.67-.97.35h-1.04l-.97-.35-.79-.67-.52-.89-.18-1.02"/><path d="M44.3 336.359l102.16-139.61M10.25 336.359H44.3"/><path d="M10.25 196.749v139.61m515.37-168.17l-5.48 18.14m0 0l-.98 3.25m0 0l-1.19 3.94m-.49 1.62l.49-1.62m-.49 1.62l-.48 1.61m16.97-60.75l-8.35 32.19m15.61-64.39l-7.26 32.2m5.11-37.8l2.15 5.6m-6.16-16.02l.62 1.6m.62 1.63l-.62-1.63m.62 1.63l1.52 3.94m0 0l1.25 3.25m-528.83 88.13v-88.13m0 0v-3.25m0 0v-3.94"/><path d="M10.25 89.379v1.63m524.82-3.23H10.25m0 1.6v-1.6m0 101.8v-3.25m0 7.19v-3.94m0 3.94v1.62m0 1.61v-1.61m506.75 1.61H10.25"/><path d="M274.15 190.529l1.44.04 1.33.09 1.15.14.88.2.55.22.19.24-.19.24-.55.22-.88.19-1.15.15-1.33.09-1.44.03-1.43-.03-1.33-.09-1.15-.15-.88-.19-.55-.22-.19-.24.19-.24.55-.22.88-.2 1.15-.14 1.33-.09 1.43-.04m136.21 0l1.43.04 1.34.09 1.14.14.88.2.56.22.18.24-.18.24-.56.22-.88.19-1.14.15-1.34.09-1.43.03-1.43-.03-1.34-.09-1.14-.15-.88-.19-.55-.22-.19-.24.19-.24.55-.22.88-.2 1.14-.14 1.34-.09 1.43-.04"/><use xlink:href="#B"/><use xlink:href="#C"/><path d="M22.17 101.819l-1.33.14-1.27.42-1.16.66-.99.9-.78 1.08"/><use xlink:href="#D"/><path d="M16.64 105.019l-.55 1.22-.27 1.3v1.34l.27 1.31.55 1.22m-1.85-3.2l.07-.11.06-.11.06-.11.06-.1.07-.11.06-.1.06-.11.06-.1.06-.1.05-.11.06-.1.06-.1.12-.2.11-.19.11-.2.11-.19.11-.2.11-.19.23-.38.22-.38"/><use xlink:href="#E"/><use xlink:href="#F"/><path d="M27.7 105.019l-.78-1.08-1-.9-1.15-.66-1.27-.42-1.33-.14"/><use xlink:href="#G"/><path d="M27.7 105.019l.22.38.22.38.11.19.12.2.11.19.11.2.11.19.12.2.06.1.05.1.06.11.06.1.06.1.06.11.06.1.06.11.07.1.06.11.06.11.07.11m-1.85 3.2l.54-1.22.28-1.31v-1.34l-.28-1.3-.54-1.22"/><use xlink:href="#H"/><path d="M16.64 111.409l.78 1.08.99.89 1.16.67 1.27.41 1.33.14m-3.69 0l-.06-.11-.07-.11-.06-.11-.06-.11-.06-.1-.06-.11-.06-.1-.06-.1-.06-.11-.06-.1-.06-.1-.06-.1-.11-.2-.11-.2-.12-.19-.11-.19-.11-.2-.55-.95m11.06 0l-.22.38-.22.38-.11.19-.11.2-.11.19-.12.19-.11.2-.12.2-.05.1-.06.1-.06.1-.06.11-.06.1-.06.1-.06.11-.06.1-.06.11-.07.11-.12.22"/><path d="M22.17 114.599l1.33-.14 1.27-.41 1.15-.67 1-.89.78-1.08"/><use xlink:href="#I"/><use xlink:href="#B" y="64.7"/><use xlink:href="#C" y="64.7"/><path d="M22.17 166.519l-1.33.14-1.27.41-1.16.67-.99.9-.78 1.08m0 6.38l-.22-.38-.23-.38-.11-.19-.11-.2-.11-.19-.11-.19-.11-.2-.12-.2-.06-.1-.06-.1-.05-.1-.06-.11-.06-.1-.06-.1-.06-.11-.07-.11-.06-.1-.06-.11-.06-.11-.07-.11"/><path d="M16.64 169.719l-.55 1.22-.27 1.3v1.34l.27 1.3.55 1.22m-1.85-3.19l.07-.11.06-.11.06-.11.06-.1.07-.11.06-.11.06-.1.06-.1.06-.11.05-.1.06-.1.06-.1.12-.2.11-.2.11-.19.11-.19.11-.2.11-.19.23-.38.22-.38"/><use xlink:href="#E" y="64.7"/><use xlink:href="#F" y="64.7"/><path d="M27.7 169.719l-.78-1.08-1-.9-1.15-.67-1.27-.41-1.33-.14m7.38 6.39l-.07.11-.06.11-.06.11-.07.1-.06.11-.06.11-.06.1-.06.1-.06.11-.06.1-.05.1-.06.1-.12.2-.11.2-.11.19-.11.19-.12.2-.55.95"/><path d="M27.7 169.719l.22.38.22.38.11.19.12.2.11.19.11.19.11.2.12.2.06.1.05.1.06.1.06.11.06.1.06.1.06.11.06.11.07.1.06.11.06.11.07.11m-1.85 3.19l.54-1.22.28-1.3v-1.34l-.28-1.3-.54-1.22"/><use xlink:href="#H" y="64.7"/><path d="M16.64 176.099l.78 1.08.99.9 1.16.67 1.27.41 1.33.14m-3.69 0l-.06-.11-.07-.11-.06-.11-.06-.11-.06-.1-.06-.11-.06-.1-.06-.11-.06-.1-.06-.1-.06-.1-.06-.1-.11-.2-.11-.2-.12-.19-.11-.2-.11-.19-.11-.19-.22-.38-.22-.39m11.06 0l-.22.39-.22.38-.11.19-.11.19-.11.2-.12.19-.11.2-.12.2-.05.1-.06.1-.06.1-.06.1-.06.11-.06.1-.06.11-.06.1-.06.11-.07.11-.12.22"/><path d="M22.17 179.299l1.33-.14 1.27-.41 1.15-.67 1-.9.78-1.08"/><use xlink:href="#I" y="64.7"/><path d="M127.45 101.819h.12.13.13.12.12.12.12.12.12.12.12.11.23.23.22.23.22 1.11"/><use xlink:href="#J"/><path d="M131.14 101.819l-1.33.14-1.27.42-1.16.66-.99.9-.79 1.08m0 6.39l-.22-.39-.22-.38-.11-.19-.11-.19-.11-.2-.12-.19-.11-.2-.11-.2-.06-.1-.06-.1-.06-.1-.06-.1-.06-.11-.06-.1-.06-.11-.06-.1-.06-.11-.06-.11-.07-.11-.06-.11"/><path d="M125.6 105.019l-.54 1.22-.28 1.3v1.34l.28 1.31.54 1.22m-1.84-3.2l.06-.11.07-.11.06-.11.06-.1.06-.11.06-.1.06-.11.06-.1.06-.1.06-.11.06-.1.06-.1.11-.2.11-.19.12-.2.11-.19.11-.2.55-.95"/><use xlink:href="#K"/><path d="M131.14 101.819h.44.44.22.22.23.22.23.23.11.12.12.12.12.12.12.12.12.38"/><path d="M136.67 105.019l-.79-1.08-.99-.9-1.16-.66-1.27-.42-1.32-.14m7.37 6.39l-.06.11-.07.11-.06.11-.06.11-.06.1-.06.11-.06.1-.06.11-.06.1-.06.1-.06.1-.06.1-.11.2-.11.2-.12.19-.11.2-.11.19-.11.19-.22.38-.22.39"/><path d="M136.67 105.019l.22.38.22.38.11.19.11.2.11.19.12.2.11.19.11.2.06.1.06.1.06.11.06.1.06.1.06.11.06.1.06.11.06.1.06.11.07.11.06.11m-1.84 3.2l.54-1.22.28-1.31v-1.34l-.28-1.3-.54-1.22m-5.53 9.58h-.45-.44-.22-.22-.23-.22-.23-.23-.11-.12-.12-.12-.12-.12-.12-.12-.12-.38m-1.85-3.19l.79 1.08.99.89 1.16.67 1.27.41 1.33.14m-3.69 0l-.07-.11-.06-.11-.06-.11-.06-.11-.07-.1-.06-.11-.06-.1-.06-.1-.06-.11-.05-.1-.06-.1-.06-.1-.12-.2-.11-.2-.11-.19-.11-.19-.11-.2-.11-.19-.23-.38-.22-.38m11.07 0l-.22.38-.22.38-.12.19-.11.2-.11.19-.11.19-.11.2-.12.2-.06.1-.06.1-.05.1-.06.11-.06.1-.06.1-.06.11-.07.1-.06.11-.06.11-.06.11-.07.11"/><path d="M131.14 114.599l1.32-.14 1.27-.41 1.16-.67.99-.89.79-1.08m-1.85 3.19h-.12-.13-.13-.12-.12-.12-.12-.12-.12-.12-.12-.11-.23-.23-.22-.23-.22-1.1m-3.69 51.92h.12.13.13.12.12.12.12.12.12.12.12.11.23.23.22 1.56"/><use xlink:href="#J" y="64.7"/><path d="M131.14 166.519l-1.33.14-1.27.41-1.16.67-.99.9-.79 1.08m0 6.38l-.22-.38-.22-.38-.11-.19-.11-.2-.11-.19-.12-.19-.11-.2-.11-.2-.06-.1-.06-.1-.06-.1-.06-.11-.06-.1-.06-.1-.06-.11-.06-.11-.06-.1-.06-.11-.07-.11-.06-.11"/><path d="M125.6 169.719l-.54 1.22-.28 1.3v1.34l.28 1.3.54 1.22m-1.84-3.19l.06-.11.07-.11.06-.11.06-.1.06-.11.06-.11.06-.1.06-.1.06-.11.06-.1.06-.1.06-.1.11-.2.11-.2.12-.19.11-.19.11-.2.55-.95"/><use xlink:href="#K" y="64.7"/><path d="M131.14 166.519h.44.44.22.22.23.22.23.23.11.12.12.12.12.12.12.12.12.38"/><path d="M136.67 169.719l-.79-1.08-.99-.9-1.16-.67-1.27-.41-1.32-.14m7.37 6.39l-.06.11-.07.11-.06.11-.06.1-.06.11-.06.11-.06.1-.06.1-.06.11-.06.1-.06.1-.06.1-.11.2-.11.2-.12.19-.11.19-.11.2-.55.95"/><path d="M136.67 169.719l.22.38.22.38.11.19.11.2.11.19.12.19.11.2.11.2.06.1.06.1.06.1.06.11.06.1.06.1.06.11.06.11.06.1.06.11.07.11.06.11m-1.84 3.19l.54-1.22.28-1.3v-1.34l-.28-1.3-.54-1.22m-5.53 9.58h-.45-.44-.22-.22-.23-.22-.23-.23-.11-.12-.12-.12-.12-.12-.12-.12-.12-.38m-1.85-3.2l.79 1.08.99.9 1.16.67 1.27.41 1.33.14m-3.69 0l-.07-.11-.06-.11-.06-.11-.06-.11-.07-.1-.06-.11-.06-.1-.06-.11-.06-.1-.05-.1-.06-.1-.06-.1-.12-.2-.11-.2-.11-.19-.11-.2-.11-.19-.11-.19-.23-.38-.22-.39m11.07 0l-.22.39-.22.38-.12.19-.11.19-.11.2-.11.19-.11.2-.12.2-.06.1-.06.1-.05.1-.06.1-.06.11-.06.1-.06.11-.07.1-.06.11-.06.11-.06.11-.07.11"/><path d="M131.14 179.299l1.32-.14 1.27-.41 1.16-.67.99-.9.79-1.08m-1.85 3.2h-.12-.13-.13-.12-.12-.12-.12-.12-.12-.12-.12-.11-.23-.23-.22-1.55"/><use xlink:href="#B" y="161.75"/><path d="M16.64 266.759l.22-.38.22-.38.11-.19.11-.2.11-.19.12-.19.11-.2.11-.2.06-.1.06-.1.06-.1.06-.11.06-.1.06-.1.06-.11.06-.11.06-.1.06-.11.07-.11.06-.11"/><path d="M22.17 263.569l-1.33.14-1.27.41-1.16.67-.99.89-.78 1.08m0 6.39l-.22-.38-.23-.38-.11-.2-.11-.19-.11-.19-.11-.2-.11-.19-.12-.2-.06-.1-.06-.1-.05-.11-.06-.1-.06-.1-.06-.11-.06-.1-.07-.11-.06-.1-.06-.11-.06-.11-.07-.11"/><path d="M16.64 266.759l-.55 1.22-.27 1.31v1.34l.27 1.3.55 1.22m-1.85-3.19l.07-.11.06-.11.06-.11.06-.11.07-.1.06-.11.06-.1.06-.11.06-.1.05-.1.06-.1.06-.1.12-.2.11-.2.11-.19.11-.2.11-.19.11-.19.23-.38.22-.39m9.22-3.19l.06.11.06.11.07.11.06.1.06.11.06.11.06.1.06.1.06.11.06.1.06.1.05.1.12.2.11.2.12.19.11.19.11.2.55.95"/><use xlink:href="#F" y="161.75"/><path d="M27.7 266.759l-.78-1.08-1-.89-1.15-.67-1.27-.41-1.33-.14m7.38 6.39l-.07.11-.06.11-.06.11-.07.1-.06.11-.06.1-.06.11-.06.1-.06.1-.06.11-.05.1-.06.1-.12.2-.11.19-.11.2-.11.19-.12.19-.11.2-.44.76"/><path d="M27.7 266.759l.22.39.22.38.11.19.12.19.11.2.11.19.11.2.12.2.06.1.05.1.06.1.06.1.06.11.06.1.06.11.06.1.07.11.06.11.06.11.07.11m-1.85 3.19l.54-1.22.28-1.3v-1.34l-.28-1.31-.54-1.22"/><use xlink:href="#H" y="161.75"/><path d="M16.64 273.149l.78 1.08.99.9 1.16.66 1.27.42 1.33.14"/><path d="M18.48 276.349l-.06-.11-.07-.11-.06-.11-.06-.11-.06-.11-.06-.1-.06-.1-.06-.11-.06-.1-.06-.1-.06-.1-.06-.1-.11-.2-.11-.2-.12-.19-.11-.2-.11-.19-.11-.19-.22-.38-.22-.39m11.06 0l-.22.39-.22.38-.11.19-.11.19-.11.2-.12.19-.11.2-.12.2-.05.1-.06.1-.06.1-.06.1-.06.11-.06.1-.06.1-.06.11-.06.11-.07.11-.12.22"/><path d="M22.17 276.349l1.33-.14 1.27-.42 1.15-.66 1-.9.78-1.08"/><use xlink:href="#I" y="161.75"/><use xlink:href="#B" y="211.12"/><path d="M16.64 316.139l.22-.38.22-.39.11-.19.11-.19.11-.19.12-.2.11-.2.11-.2.06-.1.06-.1.06-.1.06-.1.06-.1.06-.11.06-.1.06-.11.06-.11.06-.11.07-.1.06-.12"/><path d="M22.17 312.939l-1.33.14-1.27.42-1.16.66-.99.9-.78 1.08"/><use xlink:href="#D" y="211.12"/><path d="M16.64 316.139l-.55 1.22-.27 1.31v1.33l.27 1.31.55 1.22m-1.85-3.2l.07-.11.06-.11.06-.1.06-.11.07-.11.06-.1.06-.11.06-.1.06-.1.05-.11.06-.1.06-.1.12-.2.11-.19.11-.2.11-.19.11-.19.11-.2.23-.38.22-.38m9.22-3.2l.06.12.06.1.07.11.06.11.06.11.06.1.06.11.06.1.06.1.06.1.06.1.05.1.12.2.11.2.12.2.11.19.11.19.11.19.22.39.22.38"/><use xlink:href="#F" y="211.12"/><path d="M27.7 316.139l-.78-1.08-1-.9-1.15-.66-1.27-.42-1.33-.14"/><use xlink:href="#G" y="211.12"/><path d="M27.7 316.139l.22.38.22.38.11.2.12.19.11.19.11.2.11.19.12.2.06.1.05.1.06.11.06.1.06.1.06.11.06.1.06.11.07.11.06.1.06.11.07.11m-1.85 3.2l.54-1.22.28-1.31v-1.33l-.28-1.31-.54-1.22"/><use xlink:href="#H" y="211.12"/><path d="M16.64 322.529l.78 1.08.99.89 1.16.67 1.27.41 1.33.14"/><path d="M18.48 325.719l-.06-.11-.07-.11-.06-.11-.06-.1-.06-.11-.06-.11-.06-.1-.06-.1-.06-.11-.06-.1-.06-.1-.06-.1-.11-.2-.11-.19-.12-.2-.11-.19-.11-.2-.55-.95m11.06 0l-.22.38-.22.38-.11.19-.11.2-.11.19-.12.2-.11.19-.12.2-.05.1-.06.1-.06.1-.06.11-.06.1-.06.1-.06.11-.06.11-.06.1-.07.11-.12.22"/><path d="M22.17 325.719l1.33-.14 1.27-.41 1.15-.67 1-.89.78-1.08"/><use xlink:href="#I" y="211.12"/><path d="M212.32 196.749l-2 7.01-1.62 7.12-1.24 7.19-.86 7.25-.46 7.28-.07 7.3.32 7.29.7 7.26 1.1 7.22 1.48 7.14 1.86 7.06 2.24 6.95 2.61 6.81 2.96 6.67 3.32 6.5 3.67 6.31 3.99 6.11 4.32 5.88 4.63 5.65 4.92 5.39 5.2 5.11 5.47 4.83 5.72 4.53 5.96 4.22 6.17 3.89 6.38 3.56 6.55 3.21 6.72 2.86 6.85 2.49 6.99 2.12 7.08 1.74 7.17 1.36 7.24.97 7.27.59 7.3.2 7.29-.2 7.28-.59 7.23-.97 7.17-1.36 7.09-1.74 6.98-2.12 6.86-2.49 6.71-2.86 6.56-3.21 6.37-3.56 6.17-3.89 5.96-4.22 5.72-4.53 5.47-4.83 5.2-5.11 4.93-5.39 4.62-5.65 4.32-5.88 4-6.11 3.66-6.31 3.32-6.5 2.97-6.67 2.6-6.81 2.24-6.95 1.86-7.06 1.48-7.14 1.1-7.22.71-7.26.31-7.29-.07-7.3-.46-7.28-.85-7.25-1.24-7.19-1.63-7.12-2-7.01m-432.99 176l-28.47 42.2m0 0v-78.59m28.47 0v36.39"/><path d="M342.26 237.609h17.02"/><path d="M342.26 237.609h153.23"/><path d="M342.26 237.609h17.02 16.08 120.13-170.26"/><path d="M342.26 237.609h17.02 16.08 120.13-153.23-153.24"/><path d="M342.26 237.609h17.02 16.08 120.13-153.23-17.03-16.07-120.14 153.24v-17.03"/><path d="M342.26 237.609h17.02 16.08 120.13-153.23-17.03-16.07-120.14 153.24V84.379"/><path d="M342.26 237.609h17.02 16.08 120.13-153.23-17.03-16.07-120.14 153.24v-17.03-16.07-120.13 170.25"/><path d="M342.26 237.609h17.02 16.08 120.13-153.23-17.03-16.07-120.14 153.24v-17.03-16.07-120.13 153.23 153.23M161.23 42.829l21.79-32.69"/><path d="M161.23 10.139l21.79 32.69m145.83-16.34h13.41"/></g><path d="M328.85 29.169l13.41-2.68-13.41-2.68z" fill-rule="evenodd"/><g fill="none" stroke="#000" stroke-width=".5"><path d="M328.85 29.169l13.41-2.68m0 0l-13.41-2.68"/><path d="M328.85 23.809v5.36m-305.19-2.68H10.25"/></g><path d="M23.66 29.169v-5.36l-13.41 2.68z" fill-rule="evenodd"/><g fill="none" stroke="#000" stroke-width=".5"><path d="M23.66 23.809l-13.41 2.68m0 0l13.41 2.68"/><path d="M23.66 29.169v-5.36m305.19 2.68H195.78"/><path d="M156.73 26.489H23.66m-13.41 52.78v-65.55m332.01 62.14v-62.14"/></g><defs ><path id="B" d="M18.48 101.819h.13.12.13.12.13.12.12.12.12.11.12.12.23.22.23.22.22 1.11"/><path id="C" d="M16.64 105.019l.22-.39.22-.38.11-.19.11-.19.11-.2.12-.19.11-.2.11-.2.06-.1.06-.1.06-.1.06-.1.06-.11.06-.1.06-.11.06-.1.06-.11.06-.11.07-.11.06-.11"/><path id="D" d="M16.64 111.409l-.22-.39-.23-.38-.11-.19-.11-.19-.11-.2-.11-.19-.11-.2-.12-.2-.06-.1-.06-.1-.05-.1-.06-.1-.06-.11-.06-.1-.06-.11-.07-.1-.06-.11-.06-.11-.06-.11-.07-.11"/><path id="E" d="M25.86 101.819l.06.11.06.11.07.11.06.11.06.1.06.11.06.1.06.11.06.1.06.1.06.1.05.1.12.2.11.2.12.19.11.2.11.19.11.19.22.38.22.39"/><path id="F" d="M22.17 101.819h.44.44.22.23.22.23.22.23.12.12.11.12.12.12.12.13.12.38"/><path id="G" d="M29.55 108.209l-.07.11-.06.11-.06.11-.07.11-.06.1-.06.11-.06.1-.06.11-.06.1-.06.1-.05.1-.06.1-.12.2-.11.2-.11.19-.11.2-.12.19-.11.19-.22.38-.22.39"/><path id="H" d="M22.17 114.599h-.44-.44-.23-.22-.22-.23-.22-.23-.12-.12-.11-.12-.12-.12-.12-.13-.12-.38"/><path id="I" d="M25.86 114.599h-.13-.13-.12-.12-.13-.12-.12-.12-.12-.11-.12-.12-.23-.22-.23-.22-.23-1.1"/><path id="J" d="M125.6 105.019l.22-.39.23-.38.11-.19.11-.19.11-.2.11-.19.11-.2.12-.2.06-.1.06-.1.05-.1.06-.1.06-.11.06-.1.06-.11.07-.1.06-.11.06-.11.06-.11.07-.11"/><path id="K" d="M134.82 101.819l.07.11.06.11.06.11.06.11.07.1.06.11.06.1.06.11.06.1.05.1.06.1.06.1.12.2.11.2.11.19.11.2.11.19.12.19.22.38.22.39"/></defs></svg>