<svg xmlns="http://www.w3.org/2000/svg" xmlns:xlink="http://www.w3.org/1999/xlink" width="287.6" height="265.183" xmlns:v="https://vecta.io/nano"><g fill="none" stroke="#000" stroke-width=".5"><path d="M48.13 193.63v3.31m14.44 0v-3.31m-14.44 0h14.44m14.43 0v3.31m14.44 0v-3.31m-14.44 0h14.44m-40-3.88h-.04-.04l-.03.01h-.04-.04l-.04.01h-.04l-.04.01h-.04l-.04.01-.04.01-.04.01-.04.01-.04.01-.04.01-.04.01-.04.01-.04.02-.04.01-.04.02-.04.01-.04.02-.04.02-.04.02-.04.02-.05.02-.04.02-.04.02-.05.02-.04.03-.05.02-.04.03"/><path d="M51.44 189.75h-.6m9.72.41l-.04-.03-.05-.02-.04-.03-.05-.02-.04-.02-.04-.02-.04-.02-.05-.02-.04-.02-.04-.02-.04-.02-.04-.01-.04-.02-.04-.01-.04-.02-.04-.01-.04-.01-.04-.01-.04-.01-.04-.01-.04-.01-.04-.01-.04-.01h-.04l-.04-.01h-.04l-.04-.01h-.03-.04l-.04-.01h-.08"/><path d="M59.86 189.75h-.6m-3.91 0h-.08-.08l-.07.01h-.08-.08l-.08.01h-.08l-.07.01h-.08l-.08.01-.08.01-.08.01-.08.01-.08.01-.07.01-.08.01-.08.01-.08.02-.09.01-.08.02-.08.01-.08.02-.08.02-.09.02-.08.02-.09.02-.08.02-.09.02-.09.02-.09.03-.08.02-.09.03"/><path d="M55.35 189.75h-3.91"/><path d="M52.75 190.16l-.05-.03-.04-.02-.05-.03-.04-.02-.05-.02-.04-.02-.04-.02-.04-.02-.04-.02-.05-.02-.04-.02-.04-.01-.04-.02-.04-.01-.04-.02-.04-.01-.04-.01-.04-.01-.04-.01-.04-.01-.04-.01-.04-.01-.04-.01h-.04l-.03-.01h-.04l-.04-.01h-.04-.04l-.04-.01h-.08m7.82 0h-.04-.04l-.04.01h-.04-.04l-.04.01h-.03l-.04.01h-.04l-.04.01-.04.01-.04.01-.04.01-.04.01-.04.01-.04.01-.04.01-.04.02-.04.01-.04.02-.04.01-.04.02-.04.02-.05.02-.04.02-.04.02-.04.02-.05.02-.04.02-.04.03-.05.02-.04.03"/><path d="M59.26 189.75h-3.91"/><path d="M57.96 190.16l-.09-.03-.09-.02-.09-.03-.09-.02-.08-.02-.09-.02-.09-.02-.08-.02-.08-.02-.09-.02-.08-.02-.08-.01-.08-.02-.08-.01-.08-.02-.08-.01-.08-.01-.08-.01-.08-.01-.08-.01-.08-.01-.08-.01-.08-.01h-.07l-.08-.01h-.08l-.08-.01h-.08-.07l-.08-.01h-.16m-4.51 0l-.7.41m9.72-.41l.7.41m-7.81 3.08v-3.08"/><path d="M55.35 193.24h-2.6m5.21 0h-2.61m2.61 0v-3.08m-7.82 3.08v-3.08m1.3 3.08h-1.3m2.61 0h-1.31m7.82 0h-1.3m2.6 0h-1.3"/><path d="M60.56 193.24v-3.08m-.7 3.47h-9.02"/><path d="M59.86 193.24v.39m-9.02-.39v.39m7.52 0h0m-6.02 0h0m27.97-3.88h-.04-.04l-.04.01h-.04-.04l-.03.01h-.04l-.04.01h-.04l-.04.01-.04.01-.04.01-.04.01-.04.01-.04.01-.04.01-.04.01-.04.02-.04.01-.04.02-.04.01-.04.02-.04.02-.04.02-.05.02-.04.02-.04.02-.05.02-.04.02-.04.03-.05.02-.04.03"/><path d="M80.31 189.75h-.6m9.72.41l-.05-.03-.04-.02-.04-.03-.05-.02-.04-.02-.04-.02-.05-.02-.04-.02-.04-.02-.04-.02-.04-.02-.04-.01-.04-.02-.05-.01-.04-.02-.04-.01-.04-.01-.04-.01-.03-.01-.04-.01-.04-.01-.04-.01-.04-.01h-.04l-.04-.01h-.04l-.04-.01h-.04-.04l-.03-.01h-.08"/><path d="M88.73 189.75h-.6m-3.91 0h-.08-.08l-.08.01h-.07-.08l-.08.01h-.08l-.08.01h-.07l-.08.01-.08.01-.08.01-.08.01-.08.01-.08.01-.08.01-.08.01-.08.02-.08.01-.08.02-.08.01-.08.02-.09.02-.08.02-.08.02-.09.02-.09.02-.08.02-.09.02-.09.03-.09.02-.09.03"/><path d="M84.22 189.75h-3.91"/><path d="M81.61 190.16l-.04-.03-.05-.02-.04-.03-.04-.02-.05-.02-.04-.02-.04-.02-.05-.02-.04-.02-.04-.02-.04-.02-.04-.01-.04-.02-.04-.01-.04-.02-.04-.01-.04-.01-.04-.01-.04-.01-.04-.01-.04-.01-.04-.01-.04-.01h-.04l-.04-.01h-.04l-.03-.01h-.04-.04l-.04-.01h-.08m7.82 0h-.04-.04l-.04.01h-.04-.04l-.04.01h-.04l-.04.01h-.03l-.04.01-.04.01-.04.01-.04.01-.04.01-.04.01-.04.01-.04.01-.04.02-.04.01-.04.02-.04.01-.04.02-.05.02-.04.02-.04.02-.04.02-.05.02-.04.02-.04.02-.05.03-.04.02-.05.03"/><path d="M88.13 189.75h-3.91"/><path d="M86.82 190.16l-.09-.03-.09-.02-.08-.03-.09-.02-.09-.02-.08-.02-.09-.02-.08-.02-.09-.02-.08-.02-.08-.02-.08-.01-.08-.02-.09-.01-.08-.02-.08-.01-.08-.01-.08-.01-.07-.01-.08-.01-.08-.01-.08-.01-.08-.01h-.08l-.07-.01h-.08l-.08-.01h-.08-.08l-.07-.01h-.16m-4.51 0l-.7.41m9.72-.41l.7.41m-7.82 3.08v-3.08"/><path d="M84.22 193.24h-2.61m5.21 0h-2.6m2.6 0v-3.08m-7.81 3.08v-3.08m1.3 3.08h-1.3m2.6 0h-1.3m7.82 0h-1.31m2.61 0h-1.3"/><path d="M89.43 193.24v-3.08m-.7 3.47h-9.02"/><path d="M88.73 193.24v.39m-9.02-.39v.39m7.52 0h0m-6.02 0h0m90.81 15.67v-9.63m57.74 9.63h-57.74"/><path d="M229.76 199.67v9.63m-30.67-24.06h3.61"/><path d="M203.3 185.84h-4.81m4.21-.6l.6.6"/><path d="M199.09 185.24l-.6.6m.32 26.24l.07.02.07.02.07.02.07.02.07.02.07.02.07.01.07.02.06.01.07.02.06.01.07.01.07.01.06.02.06.01.07.01.13.02.12.01.13.01.12.02h.13l.12.01h.13l.12.01"/><use xlink:href="#B"/><path d="M197.77 212.41h3.12m-3.61 0h.49"/><use xlink:href="#C"/><use xlink:href="#C" x="6.25"/><path d="M200.89 212.41l.13-.01h.12l.13-.01h.12l.13-.02.12-.01.13-.01.13-.02.06-.01.06-.01.07-.02.06-.01.07-.01.07-.01.06-.02.07-.01.07-.02.06-.01.07-.02.07-.02.07-.02.07-.02.07-.02.08-.02"/><path d="M200.89 212.41h3.13"/><use xlink:href="#B" x="6.25"/><path d="M204.02 212.41h.48m-7.22 0l-.55-.33m7.77.33l.56-.33m-8.33-2.47v2.47"/><path d="M198.81 209.61v2.47m-1.04-2.47h1.04m-2.08 0h1.04m3.12 0h2.09m0 0h1.04m-5.21 0h2.08m3.13 0h1.04m0 0v2.47m-2.08-2.47v2.47m-4.49-24.29v-1.95m4.81 1.95v-1.95m-6.02 23.77v-.31m7.22.31v-.31m-9.62-15.59v2.93m12.03 0v-2.93m-12.03 0h12.03m-11.01-.51h9.99m0 0l.08.04.03.08m-10.22 0l.04-.08.08-.04m10.1.12v.39"/><path d="M195.78 193.32v.39m9.27-1.57v-.02-.01-.01l-.01-.01v-.02l-.01-.01-.01-.01-.01-.01-.01-.01-.01-.01h-.01l-.01-.01h-.01l-.02-.01h-.03m-8.06 0h8.06m0 1.2h.02.01.02l.01-.01h.01l.01-.01.01-.01.01-.01.01-.01.01-.01.01-.01v-.01l.01-.01v-.04m-8.34-.93l.04-.1.1-.04m0 1.2l-.1-.04-.04-.09"/><path d="M205.05 192.14v.93m-8.34-.93v.93m2.1-1.39l.07.02.07.02.06.02.07.01.07.02.06.02.13.03.14.03.12.02.13.03.13.02.13.02.13.01.12.02.13.01.13.01.13.01h.26"/><use xlink:href="#D"/><use xlink:href="#E"/><path d="M200.89 192h.07.06.07.06l.13-.01.13-.01.13-.01.13-.02.12-.01.13-.02.13-.02.13-.03.13-.02.13-.03.13-.03.07-.02.06-.02.07-.01.21-.06"/><use xlink:href="#D" x="6.25"/><use xlink:href="#E" x="-6.25"/><path d="M202.98 188.11l-.07-.02-.07-.01-.07-.02-.07-.02-.06-.02-.07-.01-.13-.04-.13-.02-.13-.03-.13-.02-.13-.03-.13-.01-.12-.02-.13-.02-.13-.01-.13-.01h-.13l-.06-.01h-.2"/><use xlink:href="#F"/><path d="M204.02 187.79h-3.13"/><use xlink:href="#G"/><path d="M200.89 187.79h-.06-.07-.06l-.07.01h-.13l-.13.01-.13.01-.12.02-.13.02-.13.01-.13.03-.13.02-.12.03-.14.02-.13.04-.06.01-.07.02-.07.02-.06.02-.07.01-.07.02"/><path d="M200.89 187.79h-3.12"/><use xlink:href="#F" x="-6.25"/><path d="M197.77 187.79h-.49m7.22 0h-.48"/><use xlink:href="#G" x="6.25"/><path d="M204.5 192l.56-.32m-7.78.32l-.55-.32m.55-3.89l-.55.32m7.77-.32l.56.32"/><path d="M196.73 191.68v-3.57m8.33 3.57v-3.57m-2.08 3.57v-3.57m-4.17 0v3.57m54.13-12.01l12.84 12.65m0 0l2.33 2.29m0 0l2.83 2.79m1.17 1.14l-1.17-1.14m1.17 1.14l1.15 1.13m3-41.92l-23.32 21.92m24.41-43.84l-1.09 21.92m-4.64-27.7l5.73 5.78m-13.04-13.14l1.13 1.14m1.13 1.14l-1.13-1.14m1.13 1.14l2.77 2.79m0 0l2.28 2.29M18.06 192.32v-62.27m0 0v-2.29m0 0v-2.79m0-1.14v1.14m246.25-2.28H18.06m0 1.14v-1.14m0 71.92v-2.29m0 5.08v-2.79m0 2.79v1.14m0 1.13v-1.13"/><path d="M273.26 199.67H18.06m5.82-62.24h.09.09.09.08.09.08.17.17.17.16.16 1.25"/><use xlink:href="#H"/><path d="M26.48 137.43l-1.16.15-1.09.45-.94.72-.72.93m0 4.52l-.15-.27-.16-.27-.15-.28-.08-.13-.08-.14-.08-.14-.08-.14-.09-.14-.08-.15-.08-.14-.05-.08-.04-.07-.04-.08-.05-.08-.04-.07-.05-.08"/><use xlink:href="#I"/><use xlink:href="#J"/><use xlink:href="#K"/><path d="M26.48 137.43h.32.31.31.16.16.16.16.17.16.17.09.08.09.27"/><use xlink:href="#L"/><path d="M31.69 141.94l-.04.08-.05.07-.04.08-.04.08-.05.07-.04.08-.08.14-.09.15-.08.14-.08.14-.08.14-.08.14-.08.13-.16.28-.15.27-.16.27"/><use xlink:href="#M"/><path d="M30.39 144.2l.45-1.09.16-1.17-.16-1.17-.45-1.09m-3.91 6.77h-.31-.31-.31-.16-.16-.16-.16-.17-.17-.17-.08-.44"/><path d="M22.57 144.2l.72.93.94.72 1.09.45 1.16.15"/><use xlink:href="#N"/><use xlink:href="#O"/><path d="M26.48 146.45l1.17-.15 1.09-.45.93-.72.72-.93m-1.3 2.25H29h-.09-.09-.09-.08-.09-.17-.16-.17-.16-.16-.16-.16-.94m21.45-9.02h.09.09.09.09.09.08.17.17.16.16.16 1.26"/><use xlink:href="#P"/><path d="M50.54 137.43l-1.17.15-1.09.45-.93.72-.72.93m0 4.52l-.16-.27-.15-.27-.16-.28-.08-.13-.08-.14-.08-.14-.08-.14-.08-.14-.08-.15-.09-.14-.04-.08-.04-.07-.05-.08-.04-.08-.05-.07-.04-.08"/><use xlink:href="#I" x="24.06"/><use xlink:href="#Q"/><use xlink:href="#R"/><path d="M50.54 137.43h.31.31.32.16.15.17.16.16.17.17.08.09.09.27"/><use xlink:href="#L" x="24.06"/><path d="M55.75 141.94l-.04.08-.05.07-.04.08-.05.08-.04.07-.04.08-.09.14-.08.15-.08.14-.08.14-.08.14-.08.14-.08.13-.16.28-.16.27-.15.27"/><use xlink:href="#S"/><path d="M54.45 144.2l.45-1.09.15-1.17-.15-1.17-.45-1.09m-3.91 6.77h-.31-.32-.31-.16-.16-.16-.16-.16-.17-.17-.08-.09-.09-.27m-1.3-2.25l.72.93.93.72 1.09.45 1.17.15"/><use xlink:href="#T"/><use xlink:href="#U"/><path d="M50.54 146.45l1.17-.15 1.09-.45.93-.72.72-.93m-1.3 2.25h-.09-.09-.09-.09-.09-.08-.17-.17-.16-.16-.17-.15-.16-.94m-26.66 29.47h.09.09.09.08.09.08.17.17.17.16.16 1.25"/><use xlink:href="#H" y="38.49"/><path d="M26.48 175.92l-1.16.15-1.09.45-.94.72-.72.93m0 4.52l-.15-.27-.16-.27-.15-.28-.08-.13-.08-.14-.08-.14-.08-.14-.09-.14-.08-.15-.08-.14-.05-.08-.04-.07-.04-.08-.05-.07-.04-.08-.05-.08"/><use xlink:href="#I" y="38.49"/><use xlink:href="#J" y="38.49"/><use xlink:href="#K" y="38.49"/><path d="M26.48 175.92h.32.31.31.16.16.16.16.17.16.17.09.08.09.27"/><use xlink:href="#L" y="38.49"/><path d="M31.69 180.43l-.04.08-.05.08-.04.07-.04.08-.05.07-.04.08-.08.14-.09.15-.08.14-.08.14-.08.14-.08.14-.08.13-.16.28-.15.27-.16.27"/><use xlink:href="#M" y="38.49"/><path d="M30.39 182.69l.45-1.09.16-1.17-.16-1.17-.45-1.09m-3.91 6.77h-.31-.31-.31-.16-.16-.16-.16-.17-.17-.17-.08-.44"/><path d="M22.57 182.69l.72.93.94.72 1.09.45 1.16.15"/><use xlink:href="#N" y="38.49"/><use xlink:href="#O" y="38.49"/><path d="M26.48 184.94l1.17-.15 1.09-.45.93-.72.72-.93m-1.3 2.25H29h-.09-.09-.09-.08-.09-.17-.16-.17-.16-.16-.16-.16-.94m21.45-9.02h.09.09.09.09.09.08.17.17.16.16.16 1.26"/><use xlink:href="#P" y="38.49"/><path d="M50.54 175.92l-1.17.15-1.09.45-.93.72-.72.93m0 4.52l-.16-.27-.15-.27-.16-.28-.08-.13-.08-.14-.08-.14-.08-.14-.08-.14-.08-.15-.09-.14-.04-.08-.04-.07-.05-.08-.04-.07-.05-.08-.04-.08"/><use xlink:href="#I" x="24.06" y="38.49"/><use xlink:href="#Q" y="38.49"/><use xlink:href="#R" y="38.49"/><path d="M50.54 175.92h.31.31.32.16.15.17.16.16.17.17.08.09.09.27"/><use xlink:href="#L" x="24.06" y="38.49"/><path d="M55.75 180.43l-.04.08-.05.08-.04.07-.05.08-.04.07-.04.08-.09.14-.08.15-.08.14-.08.14-.08.14-.08.14-.08.13-.16.28-.16.27-.15.27"/><use xlink:href="#S" y="38.49"/><path d="M54.45 182.69l.45-1.09.15-1.17-.15-1.17-.45-1.09m-3.91 6.77h-.31-.32-.31-.16-.16-.16-.16-.16-.17-.17-.08-.09-.09-.27m-1.3-2.25l.72.93.93.72 1.09.45 1.17.15"/><use xlink:href="#T" y="38.49"/><use xlink:href="#U" y="38.49"/><path d="M50.54 184.94l1.17-.15 1.09-.45.93-.72.72-.93m-1.3 2.25h-.09-.09-.09-.09-.09-.08-.17-.17-.16-.16-.17-.15-.16-.94M18.4 10.21l2.75 1.78m0 0l17.36-1.25M18.4 122.69V10.21m20.11.53v111.95m225.21-48.11l5.31 17.41m0 0L262 103.45m-216.27 0H262M45.73 74.58v28.87"/><path d="M263.72 74.58H45.73m25.26 43.3H51.74m19.25 2.41v-2.41m-19.25 0v2.41"/><path d="M77 103.45l-.17 2.29-.5 2.24-.82 2.14-1.13 2-1.42 1.82-1.66 1.58-1.87 1.33-2.05 1.03m-12.03 0l-2.05-1.03-1.87-1.33-1.66-1.58-1.42-1.82-1.13-2-.82-2.14-.5-2.24-.17-2.29M40.92 84.2h-2.41m2.41 36.09V84.2M77 120.29H40.92m36.08 2.4v-2.4m-38.49 2.4H77M38.51 84.2v38.49m95.91 99.93l-27.95-2.43m48.36 34.92l.87-2.83.53-2.91.16-2.96-.21-2.95-.56-2.9-.92-2.82-1.25-2.68-1.57-2.5-1.87-2.29-2.14-2.05-2.37-1.77-2.57-1.46-2.73-1.14-2.86-.79-2.92-.44M10.25 209.3h96.22m0 0v-9.63"/><path d="M10.25 199.67h96.22m-96.22 9.63v-9.63m0 16.99v38.45m96.22-38.45v38.45M10.25 209.3v1.13m96.22-1.13v1.13m-96.22 1.15v-1.15m96.22 1.15v-1.15m-96.22 1.15v2.78m96.22-2.78v2.78m-96.22 0v2.3m96.22-2.3v2.3m-2.3-162.26l7.7-11.55"/><path d="M104.17 42.85l7.7 11.55m-84.34-5.77h-9.47"/></g><path d="M27.53 50.52v-3.79l-9.47 1.9z" fill-rule="evenodd"/><g fill="none" stroke="#000" stroke-width=".5"><path d="M27.53 46.73l-9.47 1.9m0 0l9.47 1.89"/><path d="M27.53 50.52v-3.79m163.89 1.9h9.47"/></g><path d="M191.42 50.52l9.47-1.89-9.47-1.9z" fill-rule="evenodd"/><g fill="none" stroke="#000" stroke-width=".5"><path d="M191.42 50.52l9.47-1.89m0 0l-9.47-1.9"/><path d="M191.42 46.73v3.79M27.53 48.63h73.54"/><path d="M117.89 48.63h73.53M18.06 116.68V36.6m182.83 142.63V36.6"/></g><defs ><path id="B" d="M197.77 212.41l.06-.01h.06l.06-.01h.07l.06-.02.06-.01.07-.01.06-.02.06-.02.07-.03.06-.02.04-.02.03-.01.03-.02.04-.01.03-.02.04-.02.03-.02.04-.02.03-.02.04-.02"/><path id="C" d="M196.73 212.08l.03.02.04.02.03.02.04.02.03.02.04.02.03.01.03.02.04.01.03.02.07.02.06.03.07.02.06.02.06.01.06.01.07.02h.06l.06.01h.06l.07.01"/><path id="D" d="M197.77 192h.03.03.07l.06-.01.07-.01.06-.01.06-.02.07-.01.06-.02.07-.02.06-.03.07-.02.06-.03.07-.03.06-.04.07-.03.07-.04"/><path id="E" d="M202.98 191.68l.06.04.07.03.07.04.06.03.07.03.06.02.07.03.06.02.07.02.06.01.06.02.07.01.06.01.07.01h.13"/><path id="F" d="M204.02 187.79h-.04-.03l-.06.01h-.07l-.06.01-.07.01-.06.02-.06.02-.07.01-.06.03-.07.02-.06.03-.07.02-.06.04-.07.03-.07.04-.06.03"/><path id="G" d="M198.81 188.11l-.07-.03-.07-.04-.06-.03-.07-.04-.06-.02-.07-.03-.06-.02-.07-.03-.06-.01-.07-.02-.06-.02-.06-.01-.07-.01h-.06l-.07-.01h-.06"/><path id="H" d="M22.57 139.68l.16-.27.16-.27.15-.27.08-.14.08-.13.08-.14.08-.14.09-.15.08-.14.08-.15.05-.07.04-.08.04-.07.05-.08.04-.08.05-.07"/><path id="I" d="M22.57 139.68l-.45 1.09-.15 1.17.15 1.17.45 1.09"/><path id="J" d="M21.27 141.94l.05-.08.04-.08.05-.07.04-.08.04-.07.05-.08.08-.14.08-.15.09-.14.08-.14.08-.14.08-.14.08-.13.15-.28.16-.27.15-.27"/><path id="K" d="M29.09 137.43l.04.07.05.08.04.08.05.07.04.08.04.07.09.15.08.14.08.15.08.14.08.14.08.13.08.14.16.27.16.27.15.27"/><path id="L" d="M30.39 139.68l-.72-.93-.93-.72-1.09-.45-1.17-.15"/><path id="M" d="M30.39 139.68l.16.27.15.27.16.28.08.13.08.14.08.14.08.14.08.14.09.15.08.14.04.08.05.07.04.08.04.07.05.08.04.08"/><path id="N" d="M23.88 146.45l-.05-.08-.04-.07-.05-.08-.04-.07-.04-.08-.05-.07-.08-.15-.08-.14-.09-.15-.08-.14-.08-.14-.08-.13-.08-.14-.15-.27-.32-.54"/><path id="O" d="M30.39 144.2l-.15.27-.16.27-.16.27-.08.14-.08.13-.08.14-.08.14-.08.15-.08.14-.09.15-.04.07-.04.08-.05.07-.04.08-.05.07-.04.08"/><path id="P" d="M46.63 139.68l.16-.27.15-.27.16-.27.08-.14.08-.13.08-.14.08-.14.08-.15.09-.14.08-.15.04-.07.05-.08.04-.07.04-.08.05-.08.04-.07"/><path id="Q" d="M45.33 141.94l.04-.08.05-.08.04-.07.05-.08.04-.07.04-.08.09-.14.08-.15.08-.14.08-.14.08-.14.08-.14.08-.13.16-.28.15-.27.16-.27"/><path id="R" d="M53.15 137.43l.04.07.04.08.05.08.04.07.05.08.04.07.08.15.09.14.08.15.08.14.08.14.08.13.08.14.16.27.15.27.16.27"/><path id="S" d="M54.45 139.68l.15.27.16.27.16.28.08.13.08.14.08.14.08.14.08.14.08.15.09.14.04.08.04.07.05.08.04.07.05.08.04.08"/><path id="T" d="M47.93 146.45l-.04-.08-.05-.07-.04-.08-.04-.07-.05-.08-.04-.07-.08-.15-.09-.14-.08-.15-.08-.14-.08-.14-.08-.13-.08-.14-.16-.27-.15-.27-.16-.27"/><path id="U" d="M54.45 144.2l-.16.27-.15.27-.16.27-.08.14-.08.13-.08.14-.08.14-.08.15-.09.14-.08.15-.04.07-.05.08-.04.07-.05.08-.04.07-.04.08"/></defs></svg>