<?xml version="1.0" encoding="UTF-8" standalone="no"?>
<svg
   xmlns:dc="http://purl.org/dc/elements/1.1/"
   xmlns:cc="http://creativecommons.org/ns#"
   xmlns:rdf="http://www.w3.org/1999/02/22-rdf-syntax-ns#"
   xmlns:svg="http://www.w3.org/2000/svg"
   xmlns="http://www.w3.org/2000/svg"
   xmlns:sodipodi="http://sodipodi.sourceforge.net/DTD/sodipodi-0.dtd"
   xmlns:inkscape="http://www.inkscape.org/namespaces/inkscape"
   width="213.99374mm"
   height="72.706253mm"
   viewBox="0 0 213.99374 72.706253"
   version="1.1"
   id="svg8"
   inkscape:version="1.0.1 (3bc2e813f5, 2020-09-07)"
   sodipodi:docname="logo-with-back.svg"
   inkscape:export-filename="H:\Web Projects\CalculatorV4\public\logo-with-back.png"
   inkscape:export-xdpi="49.139999"
   inkscape:export-ydpi="49.139999">
  <defs
     id="defs2">
    <inkscape:path-effect
       effect="bspline"
       id="path-effect94"
       is_visible="true"
       lpeversion="1"
       weight="33.333333"
       steps="2"
       helper_size="0"
       apply_no_weight="true"
       apply_with_weight="true"
       only_selected="false" />
    <inkscape:path-effect
       effect="bspline"
       id="path-effect1323"
       is_visible="true"
       lpeversion="1"
       weight="33.333333"
       steps="2"
       helper_size="0"
       apply_no_weight="true"
       apply_with_weight="true"
       only_selected="false" />
    <inkscape:path-effect
       effect="bspline"
       id="path-effect1304"
       is_visible="true"
       lpeversion="1"
       weight="33.333333"
       steps="2"
       helper_size="0"
       apply_no_weight="true"
       apply_with_weight="true"
       only_selected="false" />
    <inkscape:path-effect
       effect="bspline"
       id="path-effect1300"
       is_visible="true"
       lpeversion="1"
       weight="33.333333"
       steps="2"
       helper_size="0"
       apply_no_weight="true"
       apply_with_weight="true"
       only_selected="false" />
    <inkscape:path-effect
       effect="bspline"
       id="path-effect1184"
       is_visible="true"
       lpeversion="1"
       weight="33.333333"
       steps="2"
       helper_size="0"
       apply_no_weight="true"
       apply_with_weight="true"
       only_selected="false" />
    <inkscape:path-effect
       effect="bspline"
       id="path-effect1180"
       is_visible="true"
       lpeversion="1"
       weight="33.333333"
       steps="2"
       helper_size="0"
       apply_no_weight="true"
       apply_with_weight="true"
       only_selected="false" />
  </defs>
  <sodipodi:namedview
     id="base"
     pagecolor="#ffffff"
     bordercolor="#666666"
     borderopacity="1.0"
     inkscape:pageopacity="0.0"
     inkscape:pageshadow="2"
     inkscape:zoom="1.4142136"
     inkscape:cx="381.57341"
     inkscape:cy="126.25607"
     inkscape:document-units="mm"
     inkscape:current-layer="layer1"
     inkscape:document-rotation="0"
     showgrid="false"
     fit-margin-top="5"
     lock-margins="true"
     fit-margin-left="5"
     fit-margin-right="5"
     fit-margin-bottom="5"
     showguides="true"
     inkscape:guide-bbox="true"
     inkscape:window-width="1858"
     inkscape:window-height="1057"
     inkscape:window-x="-8"
     inkscape:window-y="-8"
     inkscape:window-maximized="1" />
  <metadata
     id="metadata5">
    <rdf:RDF>
      <cc:Work
         rdf:about="">
        <dc:format>image/svg+xml</dc:format>
        <dc:type
           rdf:resource="http://purl.org/dc/dcmitype/StillImage" />
        <dc:title></dc:title>
      </cc:Work>
    </rdf:RDF>
  </metadata>
  <g
     inkscape:label="Layer 1"
     inkscape:groupmode="layer"
     id="layer1">
    <path
       id="path171-3"
       style="fill:#ffffff;fill-opacity:1;stroke:none;stroke-width:0.264583px;stroke-linecap:butt;stroke-linejoin:miter;stroke-opacity:1"
       sodipodi:type="inkscape:offset"
       inkscape:radius="1.3636315"
       inkscape:original="M 66.476562 20.835938 L 66.476562 55.068359 L 74.546875 55.068359 L 74.546875 36.123047 L 88.740234 55.068359 L 95.876953 55.068359 L 95.876953 20.835938 L 87.814453 20.835938 L 87.814453 39.876953 L 73.71875 20.835938 L 66.476562 20.835938 z "
       d="m 66.476562,19.472656 a 1.3637679,1.3637679 0 0 0 -1.363281,1.363282 v 34.232421 a 1.3637679,1.3637679 0 0 0 1.363281,1.363282 h 8.070313 a 1.3637679,1.3637679 0 0 0 1.363281,-1.363282 V 40.21875 l 11.738282,15.667969 a 1.3637679,1.3637679 0 0 0 1.091796,0.544922 h 7.136719 a 1.3637679,1.3637679 0 0 0 1.363281,-1.363282 V 20.835938 a 1.3637679,1.3637679 0 0 0 -1.363281,-1.363282 h -8.0625 a 1.3637679,1.3637679 0 0 0 -1.363281,1.363282 V 35.744141 L 74.814453,20.025391 A 1.3637679,1.3637679 0 0 0 73.71875,19.472656 Z" />
    <path
       id="path140-7-6"
       style="fill:#ffffff;fill-opacity:1;stroke:none;stroke-width:0.264583px;stroke-linecap:butt;stroke-linejoin:miter;stroke-opacity:1"
       sodipodi:type="inkscape:offset"
       inkscape:radius="1.4332584"
       inkscape:original="M 132.8457 20.835938 L 115.99023 55.068359 L 126.15625 55.068359 L 137.29883 30.121094 L 137.29883 42.025391 L 134.53125 42.025391 L 131.47656 48.947266 L 137.29883 48.947266 L 137.29883 55.068359 L 145.32031 55.068359 L 145.32031 20.835938 L 132.8457 20.835938 z "
       d="m 132.8457,19.402344 a 1.4334017,1.4334017 0 0 0 -1.28515,0.800781 l -16.85547,34.232422 a 1.4334017,1.4334017 0 0 0 1.28515,2.066406 h 10.16602 a 1.4334017,1.4334017 0 0 0 1.30859,-0.849609 l 2.71875,-6.087891 a 1.4334017,1.4334017 0 0 0 1.29297,0.816406 h 4.38867 v 4.6875 a 1.4334017,1.4334017 0 0 0 1.4336,1.433594 h 8.02148 a 1.4334017,1.4334017 0 0 0 1.4336,-1.433594 V 20.835938 a 1.4334017,1.4334017 0 0 0 -1.4336,-1.433594 z m 3.01953,17.441406 v 3.748047 h -1.33398 a 1.4334017,1.4334017 0 0 0 -0.36133,0.04687 z" />
    <path
       id="path225-1"
       style="fill:#ffffff;fill-opacity:1;stroke:none;stroke-width:0.264583px;stroke-linecap:butt;stroke-linejoin:miter;stroke-opacity:1"
       sodipodi:type="inkscape:offset"
       inkscape:radius="1.4552079"
       inkscape:original="M 97.681641 20.835938 L 97.681641 27.689453 L 105.89258 27.689453 L 105.89258 55.068359 L 114.59766 55.068359 L 114.59766 27.689453 L 122.73047 27.689453 L 122.73047 20.835938 L 97.681641 20.835938 z "
       d="m 97.681641,19.380859 a 1.4553535,1.4553535 0 0 0 -1.455079,1.455079 v 6.853515 a 1.4553535,1.4553535 0 0 0 1.455079,1.455078 h 6.755859 v 25.923828 a 1.4553535,1.4553535 0 0 0 1.45508,1.455079 h 8.70508 a 1.4553535,1.4553535 0 0 0 1.45507,-1.455079 V 29.144531 h 6.67774 a 1.4553535,1.4553535 0 0 0 1.45508,-1.455078 v -6.853515 a 1.4553535,1.4553535 0 0 0 -1.45508,-1.455079 z" />
    <path
       id="path247-3"
       style="fill:#ffffff;fill-opacity:1;stroke:none;stroke-width:0.264583px;stroke-linecap:butt;stroke-linejoin:miter;stroke-opacity:1"
       sodipodi:type="inkscape:offset"
       inkscape:radius="1.7197891"
       inkscape:original="M 182.67969 20.835938 L 182.67969 55.693359 L 204.95508 55.693359 L 207.9375 48.765625 L 191.83984 48.765625 L 191.83984 41.351562 L 203.88672 41.351562 L 206.88477 34.353516 L 191.83984 34.353516 L 191.83984 27.847656 L 204.59961 27.847656 L 207.73828 20.835938 L 182.67969 20.835938 z "
       d="m 182.67969,19.115234 a 1.7199611,1.7199611 0 0 0 -1.72071,1.720704 v 34.857421 a 1.7199611,1.7199611 0 0 0 1.72071,1.720703 h 22.27539 a 1.7199611,1.7199611 0 0 0 1.58008,-1.041015 l 2.98242,-6.927735 a 1.7199611,1.7199611 0 0 0 -1.58008,-2.40039 h -14.37695 v -3.972656 h 10.32617 a 1.7199611,1.7199611 0 0 0 1.58008,-1.042969 l 2.99804,-6.998047 a 1.7199611,1.7199611 0 0 0 -1.58007,-2.398438 h -13.32422 v -3.064453 h 11.03906 a 1.7199611,1.7199611 0 0 0 1.57031,-1.017578 l 3.13867,-7.011719 a 1.7199611,1.7199611 0 0 0 -1.57031,-2.423828 z" />
    <path
       id="path1321-7"
       style="fill:#ffffff;fill-opacity:1;stroke:none;stroke-width:0.264583px;stroke-linecap:butt;stroke-linejoin:miter;stroke-opacity:1"
       sodipodi:type="inkscape:offset"
       inkscape:radius="1.3643339"
       inkscape:original="M 165.66602 20.427734 C 164.56714 20.470877 163.46857 20.514031 162.36914 20.556641 C 161.59766 20.65045 160.82671 20.744611 160.05469 20.837891 C 159.25204 21.087607 158.44968 21.336745 157.64648 21.585938 C 156.78016 21.992342 155.91179 22.398803 155.04492 22.804688 C 154.80816 22.942756 154.57128 23.079255 154.33398 23.216797 C 153.71689 23.591888 153.10006 23.967228 152.48242 24.341797 C 152.00313 24.860204 151.52475 25.378596 151.04492 25.896484 C 150.67036 26.403867 150.29502 26.911104 149.91992 27.417969 C 149.58007 28.01549 149.23883 28.611978 148.89844 29.208984 C 148.63756 29.914728 148.37663 30.620944 148.11523 31.326172 C 147.9323 32.031916 147.74987 32.736175 147.56641 33.441406 C 147.44975 34.361521 147.33203 35.281565 147.21484 36.201172 C 147.20974 37.616945 147.20522 39.031996 147.19922 40.447266 C 147.28216 40.987722 147.36487 41.528422 147.44727 42.068359 C 147.52614 42.404764 147.60529 42.742245 147.68359 43.078125 C 147.87484 43.698121 148.06513 44.316068 148.25586 44.935547 C 148.57182 45.664678 148.88768 46.394428 149.20312 47.123047 C 149.60752 47.756436 150.01214 48.388611 150.41602 49.021484 C 150.69741 49.369014 150.97891 49.717444 151.25977 50.064453 C 151.71203 50.489152 152.16349 50.913711 152.61523 51.337891 C 153.13088 51.751567 153.64503 52.16497 154.16016 52.578125 C 154.70889 52.889825 155.25843 53.20054 155.80664 53.511719 C 156.67231 53.853738 157.53718 54.195614 158.40234 54.537109 C 159.42787 54.782661 160.45351 55.02841 161.47852 55.273438 C 162.50956 55.348118 163.53978 55.421944 164.57031 55.496094 C 165.79979 55.468804 167.02884 55.441893 168.25781 55.414062 C 168.96892 55.304083 169.68003 55.19254 170.39062 55.082031 C 171.54865 54.850786 172.7077 54.620452 173.86523 54.388672 C 175.03958 54.014109 176.21287 53.638769 177.38672 53.263672 C 177.7835 52.970903 178.57617 52.384766 178.57617 52.384766 L 178.57617 36.201172 L 165.25391 36.201172 L 162.1582 43.078125 L 170.39062 43.078125 L 170.39062 47.052734 C 170.39062 47.052734 169.97318 47.202624 169.76367 47.277344 C 169.22926 47.349263 168.69513 47.420788 168.16016 47.492188 C 167.30054 47.492449 166.44025 47.492449 165.58008 47.492188 C 164.7921 47.464898 164.00334 47.437986 163.21484 47.410156 C 162.62529 47.085198 162.03538 46.759082 161.44531 46.433594 C 160.95498 46.125178 160.46546 45.816764 159.97461 45.507812 C 159.58351 45.100177 159.19047 44.693329 158.79883 44.285156 C 158.35261 43.574353 157.9077 42.863689 157.46094 42.152344 C 157.3578 41.905539 157.25404 41.657487 157.15039 41.410156 C 157.02741 40.621342 156.90474 39.83231 156.78125 39.042969 C 156.81265 38.096078 156.84215 37.148592 156.87305 36.201172 C 157.09938 35.390719 157.32693 34.580529 157.55273 33.769531 C 157.79465 33.341052 158.03595 32.911442 158.27734 32.482422 C 158.73753 31.874651 159.19658 31.26652 159.65625 30.658203 C 160.1788 30.25311 160.70257 29.848989 161.22461 29.443359 C 161.96543 29.092831 162.705 28.74169 163.44531 28.390625 C 164.19393 28.211597 164.94135 28.033078 165.68945 27.853516 C 166.57059 27.830386 167.45335 27.806853 168.33398 27.783203 C 169.18394 27.84583 170.03336 27.908603 170.88281 27.970703 C 171.64702 28.189238 172.41013 28.406988 173.17383 28.625 C 173.71197 28.804557 174.24948 28.983076 174.78711 29.162109 C 175.33305 29.450801 175.87841 29.739174 176.42383 30.027344 C 176.92105 30.312139 177.91602 30.880859 177.91602 30.880859 L 177.91602 22.964844 C 177.91602 22.964844 175.91977 22.256814 174.92188 21.902344 C 173.84451 21.591172 172.76736 21.280457 171.68945 20.96875 C 171.07235 20.869796 170.45553 20.769402 169.83789 20.669922 C 169.35999 20.632116 168.88078 20.594971 168.40234 20.556641 C 167.49054 20.514028 166.57836 20.470874 165.66602 20.427734 z "
       d="m 165.61328,19.064453 c -1.0989,0.04314 -2.19792,0.08631 -3.29687,0.128906 a 1.3644703,1.3644703 0 0 0 -0.11133,0.0098 c -0.77196,0.09387 -1.5436,0.188111 -2.31446,0.28125 a 1.3644703,1.3644703 0 0 0 -0.24218,0.05078 c -0.80217,0.249567 -1.60326,0.498917 -2.40625,0.748047 a 1.3644703,1.3644703 0 0 0 -0.17578,0.06836 c -0.86562,0.406074 -1.73264,0.810866 -2.59961,1.216797 a 1.3644703,1.3644703 0 0 0 -0.10938,0.05859 c -0.2327,0.135701 -0.46774,0.271464 -0.70703,0.410156 a 1.3644703,1.3644703 0 0 0 -0.0254,0.01367 c -0.61746,0.375319 -1.23313,0.751136 -1.84961,1.125 a 1.3644703,1.3644703 0 0 0 -0.29492,0.240235 c -0.47987,0.519029 -0.95695,1.036175 -1.43555,1.552734 a 1.3644703,1.3644703 0 0 0 -0.0976,0.117188 c -0.37395,0.506554 -0.74993,1.012699 -1.125,1.519531 a 1.3644703,1.3644703 0 0 0 -0.0879,0.138672 c -0.33873,0.595544 -0.68045,1.190912 -1.02149,1.789062 a 1.3644703,1.3644703 0 0 0 -0.0937,0.203125 c -0.26093,0.705877 -0.52213,1.410896 -0.7832,2.115234 a 1.3644703,1.3644703 0 0 0 -0.041,0.132813 c -0.18296,0.705879 -0.3656,1.408959 -0.54883,2.113281 a 1.3644703,1.3644703 0 0 0 -0.0332,0.171875 c -0.11653,0.919083 -0.23431,1.839701 -0.35156,2.759766 a 1.3644703,1.3644703 0 0 0 -0.0117,0.166015 c -0.005,1.416144 -0.01,2.831775 -0.0156,4.246094 a 1.3644703,1.3644703 0 0 0 0.0176,0.212891 c 0.0829,0.540021 0.16374,1.079518 0.2461,1.619141 a 1.3644703,1.3644703 0 0 0 0.0215,0.105468 c 0.0789,0.336474 0.15831,0.675078 0.23633,1.009766 a 1.3644703,1.3644703 0 0 0 0.0234,0.0918 c 0.19112,0.619576 0.38154,1.237983 0.57226,1.857422 a 1.3644703,1.3644703 0 0 0 0.0527,0.140625 c 0.3158,0.728776 0.63179,1.458813 0.94726,2.1875 a 1.3644703,1.3644703 0 0 0 0.10156,0.191406 c 0.40495,0.634245 0.80967,1.266585 1.21289,1.898437 a 1.3644703,1.3644703 0 0 0 0.0898,0.125 c 0.28077,0.34677 0.56238,0.693379 0.84375,1.041016 a 1.3644703,1.3644703 0 0 0 0.12695,0.136719 c 0.45179,0.424252 0.90323,0.848787 1.35547,1.273437 a 1.3644703,1.3644703 0 0 0 0.0801,0.07031 c 0.51487,0.413051 1.02892,0.826384 1.54492,1.240234 a 1.3644703,1.3644703 0 0 0 0.17969,0.121094 c 0.5503,0.312594 1.0996,0.62317 1.64648,0.933594 a 1.3644703,1.3644703 0 0 0 0.17188,0.08398 c 0.86552,0.341961 1.73207,0.68373 2.59765,1.025391 a 1.3644703,1.3644703 0 0 0 0.18164,0.05664 c 1.0254,0.245519 2.05265,0.491189 3.07813,0.736328 a 1.3644703,1.3644703 0 0 0 0.21875,0.03516 c 1.03173,0.07473 2.06153,0.148525 3.0918,0.222656 a 1.3644703,1.3644703 0 0 0 0.12695,0.002 c 1.22921,-0.02728 2.4598,-0.05418 3.68945,-0.08203 a 1.3644703,1.3644703 0 0 0 0.17774,-0.01563 c 0.71304,-0.110278 1.4234,-0.221706 2.13281,-0.332031 a 1.3644703,1.3644703 0 0 0 0.0586,-0.0098 c 1.15721,-0.23108 2.31579,-0.46132 3.47461,-0.69336 a 1.3644703,1.3644703 0 0 0 0.14649,-0.03711 c 1.17509,-0.374801 2.34987,-0.751946 3.52343,-1.126953 a 1.3644703,1.3644703 0 0 0 0.39454,-0.201172 c 0.39828,-0.293875 1.18945,-0.878906 1.18945,-0.878906 a 1.3644703,1.3644703 0 0 0 0.55469,-1.097656 V 36.201172 a 1.3644703,1.3644703 0 0 0 -1.36524,-1.365234 h -13.32226 a 1.3644703,1.3644703 0 0 0 -1.24414,0.804687 l -3.09571,6.876953 a 1.3644703,1.3644703 0 0 0 1.24414,1.925781 h 6.86719 V 46 c -0.31446,0.04218 -0.62853,0.08492 -0.94336,0.126953 -0.83336,2.38e-4 -1.6681,2.53e-4 -2.50195,0 -0.66398,-0.02298 -1.32689,-0.04514 -1.99024,-0.06836 -0.48629,-0.26826 -0.97313,-0.537545 -1.46093,-0.806641 -0.42743,-0.268877 -0.8548,-0.538902 -1.28321,-0.808594 -0.32306,-0.336322 -0.64631,-0.670234 -0.96679,-1.003906 -0.401,-0.638954 -0.80061,-1.280808 -1.20313,-1.921875 -0.0669,-0.159933 -0.13599,-0.320154 -0.20312,-0.480469 -0.10789,-0.692263 -0.21578,-1.384498 -0.32422,-2.078125 0.028,-0.850187 0.0545,-1.698813 0.082,-2.546875 0.19694,-0.704754 0.39456,-1.411489 0.5918,-2.11914 0.20027,-0.355112 0.40057,-0.708687 0.59961,-1.0625 0.40469,-0.534608 0.80753,-1.069589 1.21093,-1.603516 0.43702,-0.338527 0.87691,-0.67641 1.31641,-1.017578 0.65229,-0.308767 1.30236,-0.617144 1.95312,-0.925781 0.65529,-0.156687 1.31097,-0.31338 1.9668,-0.470703 0.80684,-0.02122 1.6157,-0.04281 2.42188,-0.06445 0.78401,0.05778 1.56722,0.116421 2.35156,0.173828 0.7104,0.203097 1.41939,0.40488 2.1289,0.607422 0.009,0.0026 0.0182,0.0052 0.0274,0.0078 0.48379,0.161374 0.96541,0.322016 1.44726,0.482422 0.51348,0.271524 1.02774,0.543265 1.54102,0.814453 0.51034,0.292247 1.45117,0.830078 1.45117,0.830078 a 1.3644703,1.3644703 0 0 0 2.04297,-1.183594 v -7.916015 a 1.3644703,1.3644703 0 0 0 -0.9082,-1.285156 c 0,0 -1.99708,-0.708322 -2.99414,-1.0625 a 1.3644703,1.3644703 0 0 0 -0.0781,-0.02539 c -1.07766,-0.311257 -2.15509,-0.622054 -3.23242,-0.933594 a 1.3644703,1.3644703 0 0 0 -0.16211,-0.03711 c -0.61499,-0.09862 -1.23244,-0.19911 -1.85156,-0.298828 a 1.3644703,1.3644703 0 0 0 -0.10938,-0.01172 c -0.47934,-0.03792 -0.9575,-0.07514 -1.43359,-0.113281 a 1.3644703,1.3644703 0 0 0 -0.0449,-0.0039 c -0.91128,-0.04259 -1.82397,-0.08577 -2.73633,-0.128906 a 1.3644703,1.3644703 0 0 0 -0.11719,0 z" />
    <path
       id="path140-1"
       style="fill:#ffffff;fill-opacity:1;stroke:none;stroke-width:0.264583px;stroke-linecap:butt;stroke-linejoin:miter;stroke-opacity:1"
       sodipodi:type="inkscape:offset"
       inkscape:radius="1.4917887"
       inkscape:original="M 50.501953 20.835938 L 33.648438 55.068359 L 43.8125 55.068359 L 54.957031 30.121094 L 54.957031 42.025391 L 52.189453 42.025391 L 49.134766 48.947266 L 54.957031 48.947266 L 54.957031 55.068359 L 62.978516 55.068359 L 62.978516 20.835938 L 50.501953 20.835938 z "
       d="m 50.501953,19.34375 a 1.4919379,1.4919379 0 0 0 -1.337891,0.833984 L 32.310547,54.410156 a 1.4919379,1.4919379 0 0 0 1.337891,2.150391 H 43.8125 a 1.4919379,1.4919379 0 0 0 1.361328,-0.882813 l 2.671875,-5.980468 a 1.4919379,1.4919379 0 0 0 1.289063,0.742187 h 4.330078 v 4.628906 a 1.4919379,1.4919379 0 0 0 1.492187,1.492188 h 8.021485 a 1.4919379,1.4919379 0 0 0 1.492187,-1.492188 V 20.835938 A 1.4919379,1.4919379 0 0 0 62.978516,19.34375 Z m 2.962891,17.773438 v 3.416015 h -1.275391 a 1.4919379,1.4919379 0 0 0 -0.259765,0.02344 z" />
    <path
       id="path106"
       style="fill:#ffffff;stroke:none;stroke-width:0.264583px;stroke-linecap:butt;stroke-linejoin:miter;stroke-opacity:1"
       sodipodi:type="inkscape:offset"
       inkscape:radius="1.5060095"
       inkscape:original="M 42.201172 5.0273438 L 16.667969 55.068359 L 16.667969 20.835938 L 4.9902344 20.835938 L 4.9902344 67.261719 L 22.638672 67.261719 L 54.380859 5.0273438 L 42.201172 5.0273438 z "
       d="M 42.201172,3.5214844 A 1.5061601,1.5061601 0 0 0 40.859375,4.34375 L 18.173828,48.804688 v -27.96875 a 1.5061601,1.5061601 0 0 0 -1.505859,-1.50586 H 4.9902344 a 1.5061601,1.5061601 0 0 0 -1.5058594,1.50586 v 46.425781 a 1.5061601,1.5061601 0 0 0 1.5058594,1.505859 H 22.638672 a 1.5061601,1.5061601 0 0 0 1.341797,-0.822266 L 55.722656,5.7109375 A 1.5061601,1.5061601 0 0 0 54.380859,3.5214844 Z" />
    <path
       id="path104"
       style="fill:#ffffff;stroke:none;stroke-width:0.264583px;stroke-linecap:butt;stroke-linejoin:miter;stroke-opacity:1"
       sodipodi:type="inkscape:offset"
       inkscape:radius="1.441994"
       inkscape:original="M 31.96875 59.212891 L 31.96875 67.210938 L 208.79688 67.210938 L 208.79688 59.212891 L 31.96875 59.212891 z "
       d="m 31.96875,57.771484 a 1.4421382,1.4421382 0 0 0 -1.441406,1.441407 v 7.998047 a 1.4421382,1.4421382 0 0 0 1.441406,1.441406 h 176.82813 a 1.4421382,1.4421382 0 0 0 1.4414,-1.441406 v -7.998047 a 1.4421382,1.4421382 0 0 0 -1.4414,-1.441407 z" />
    <path
       style="fill:#231f20;stroke:none;stroke-width:0.264583px;stroke-linecap:butt;stroke-linejoin:miter;stroke-opacity:1;fill-opacity:1"
       d="m 33.648004,55.068379 h 10.16509 L 54.957297,30.120135 v 11.904657 h -2.767521 l -3.055614,6.923124 h 5.823135 v 6.120463 h 8.021425 V 20.835937 H 50.502343 Z"
       id="path140" />
    <path
       style="fill:#231f20;fill-opacity:1;stroke:none;stroke-width:0.264583px;stroke-linecap:butt;stroke-linejoin:miter;stroke-opacity:1"
       d="m 115.99041,55.068379 h 10.16509 l 11.1442,-24.948245 v 11.904657 h -2.76752 l -3.05561,6.923124 h 5.82313 v 6.120464 h 8.02143 V 20.835937 h -12.47638 z"
       id="path140-7" />
    <path
       style="fill:#231f20;stroke:none;stroke-width:0.264583px;stroke-linecap:butt;stroke-linejoin:miter;stroke-opacity:1;fill-opacity:1"
       d="m 66.476562,20.835937 v 34.232442 h 8.069791 V 36.123988 l 14.194118,18.944391 h 7.136625 V 20.835937 H 87.814742 V 39.877502 L 73.71953,20.835937 Z"
       id="path171" />
    <path
       style="fill:#231f20;stroke:none;stroke-width:0.264583px;stroke-linecap:butt;stroke-linejoin:miter;stroke-opacity:1;fill-opacity:1"
       d="M 4.9898762,20.835937 V 67.262043 H 22.637729 L 37.271944,38.571289 H 25.086211 L 16.66875,55.068379 V 20.835937 Z"
       id="path201" />
    <path
       style="fill:#231f20;stroke:none;stroke-width:0.264583px;stroke-linecap:butt;stroke-linejoin:miter;stroke-opacity:1;fill-opacity:1"
       d="m 26.486844,35.826237 h 12.185261 l 3.793512,-7.437271 H 30.281631 Z"
       id="path203" />
    <path
       style="fill:#231f20;stroke:none;stroke-width:0.264583px;stroke-linecap:butt;stroke-linejoin:miter;stroke-opacity:1;fill-opacity:1"
       d="m 31.531443,25.939502 h 12.183562 l 2.603162,-5.103565 H 34.13548 Z"
       id="path205" />
    <path
       style="fill:#ffcb30;stroke:none;stroke-width:0.264583px;stroke-linecap:butt;stroke-linejoin:miter;stroke-opacity:1;fill-opacity:1"
       d="m 35.459445,18.241145 h 12.182242 l 1.801198,-3.531298 H 37.261252 Z"
       id="path207" />
    <path
       style="fill:#ffcb30;stroke:none;stroke-width:0.264583px;stroke-linecap:butt;stroke-linejoin:miter;stroke-opacity:1;fill-opacity:1"
       d="M 40.017657,9.3076613 38.573826,12.137378 H 50.755018 L 52.198365,9.3076613 Z"
       id="path209" />
    <path
       style="fill:#ffcb30;stroke:none;stroke-width:0.264583px;stroke-linecap:butt;stroke-linejoin:miter;stroke-opacity:1;fill-opacity:1"
       d="M 41.127381,7.1327562 H 53.307712 L 54.381275,5.0280083 H 42.201303 Z"
       id="path211" />
    <path
       style="fill:#231f20;stroke:none;stroke-width:0.264583px;stroke-linecap:butt;stroke-linejoin:miter;stroke-opacity:1;fill-opacity:1"
       d="m 97.680858,20.835937 h 25.049312 v 6.853185 h -8.13251 v 27.379257 h -8.70547 V 27.689122 h -8.211332 z"
       id="path225" />
    <path
       style="fill:#231f20;stroke:none;stroke-width:0.264583px;stroke-linecap:butt;stroke-linejoin:miter;stroke-opacity:1;fill-opacity:1"
       d="m 182.68039,20.835937 v 34.858021 h 22.27525 l 2.98144,-6.927943 H 191.83945 V 41.35244 h 12.04681 l 2.99759,-6.998284 h -15.0444 V 27.847395 H 204.599 l 3.13883,-7.011458 z"
       id="path247" />
    <path
       style="fill:#6d6e71;fill-opacity:1;stroke:none;stroke-width:0.264583px;stroke-linecap:butt;stroke-linejoin:miter;stroke-opacity:1"
       d="m 31.968776,59.213564 v 1.590252 h 2.432153 v 6.407787 h 2.338609 v -6.407787 h 2.385381 v -1.590252 z"
       id="path293" />
    <path
       style="fill:#6d6e71;stroke:none;stroke-width:0.264583px;stroke-linecap:butt;stroke-linejoin:miter;stroke-opacity:1;fill-opacity:1"
       d="m 42.305425,59.213564 v 7.998039 h 2.256758 v -3.449447 h 3.367595 v 3.449447 h 2.326915 v -7.998039 h -2.326915 v 2.841408 h -3.367595 v -2.841408 z"
       id="path295" />
    <path
       style="fill:#6d6e71;stroke:none;stroke-width:0.264583px;stroke-linecap:butt;stroke-linejoin:miter;stroke-opacity:1;fill-opacity:1"
       d="m 54.559734,59.213564 v 7.998039 h 7.303156 v -1.644547 h -4.894792 v -1.8049 h 4.200261 v -1.707184 h -4.200261 v -1.251156 h 4.547526 v -1.590252 z"
       id="path299" />
    <path
       style="fill:#6d6e71;fill-opacity:1;stroke:none;stroke-width:0.264583px;stroke-linecap:butt;stroke-linejoin:miter;stroke-opacity:1"
       d="m 109.10755,59.213564 v 7.998039 h 7.30316 v -1.644547 h -4.8948 v -1.8049 h 4.20026 v -1.707184 h -4.20026 v -1.251156 h 4.54753 v -1.590252 z"
       id="path299-3" />
    <path
       style="fill:#6d6e71;fill-opacity:1;stroke:none;stroke-width:0.264583px;stroke-linecap:butt;stroke-linejoin:miter;stroke-opacity:1"
       d="m 201.4945,59.213564 v 7.998038 h 7.30316 v -1.644547 h -4.8948 v -1.8049 h 4.20026 v -1.707183 h -4.20026 v -1.251156 h 4.54753 v -1.590252 z"
       id="path299-0" />
    <path
       style="fill:#6d6e71;fill-opacity:1;stroke:none;stroke-width:0.264583px;stroke-linecap:butt;stroke-linejoin:miter;stroke-opacity:1"
       d="m 136.30579,59.213564 v 1.59025 h 2.43215 v 6.40779 h 2.33861 v -6.40779 h 2.38538 v -1.59025 z"
       id="path293-5" />
    <path
       id="path1178"
       style="fill:#6d6e71;fill-opacity:1;stroke:none;stroke-width:0.999999px;stroke-linecap:butt;stroke-linejoin:miter;stroke-opacity:1"
       d="M 267.375 223.79883 L 267.375 254.02734 L 276.3125 254.02734 L 276.3125 244.12891 C 280.18335 244.12891 284.05565 244.12794 286.74219 243.88477 C 289.42873 243.64159 290.93097 243.15548 292.13867 242.5 C 293.34637 241.84452 294.26052 241.0194 295.01172 240.15039 C 295.76292 239.28138 296.35134 238.36852 296.73438 237.30078 C 297.11741 236.23304 297.29312 235.01016 297.23438 233.69922 C 297.17563 232.38827 296.88222 230.98967 296.42578 229.78906 C 295.96934 228.58845 295.3509 227.58588 294.47461 226.77539 C 293.59831 225.9649 292.46379 225.34701 291.35156 224.88281 C 290.23933 224.41862 289.14858 224.10993 285.15625 223.95508 C 281.16392 223.80023 274.26921 223.79883 267.375 223.79883 z M 276.3125 229.58789 C 278.73967 229.58789 281.1682 229.58823 282.97852 229.75781 C 284.78883 229.9274 285.98218 230.26605 286.77734 230.89258 C 287.57251 231.5191 287.97044 232.43342 288.1543 233.26562 C 288.33816 234.09783 288.30813 234.84944 288.04297 235.48242 C 287.77781 236.11541 287.27706 236.63071 286.59961 237.10938 C 285.92216 237.58804 285.06785 238.02893 283.32422 238.25 C 281.58059 238.47107 278.94591 238.47266 276.3125 238.47266 L 276.3125 229.58789 z "
       transform="scale(0.26458333)" />
    <path
       id="path1189-6"
       style="opacity:1;fill:#6d6e71;fill-opacity:1;fill-rule:evenodd;stroke:none;stroke-width:0.226887"
       d="m 150.74343,58.966648 a 4.4979172,4.212615 0 0 0 -4.46226,4.212615 4.4979172,4.212615 0 0 0 4.49792,4.212615 4.4979172,4.212615 0 0 0 4.49791,-4.212615 4.4979172,4.212615 0 0 0 -4.49791,-4.212615 4.4979172,4.212615 0 0 0 -0.0357,0 z m -0.23461,1.722888 a 2.3399091,2.5343911 0 0 1 0.0139,0 2.3399091,2.5343911 0 0 1 2.33991,2.534276 2.3399091,2.5343911 0 0 1 -2.33991,2.534276 2.3399091,2.5343911 0 0 1 -2.33991,-2.534276 2.3399091,2.5343911 0 0 1 2.32596,-2.534276 z" />
    <path
       id="path1189-6-0"
       style="opacity:1;fill:#6d6e71;fill-opacity:1;fill-rule:evenodd;stroke:none;stroke-width:0.226887"
       d="m 86.51073,59.022464 a 4.4979172,4.2126151 0 0 0 -4.46226,4.212615 4.4979172,4.2126151 0 0 0 4.49792,4.212615 4.4979172,4.2126151 0 0 0 4.49791,-4.212615 4.4979172,4.2126151 0 0 0 -4.49791,-4.212615 4.4979172,4.2126151 0 0 0 -0.0357,0 z m -0.23461,1.722888 a 2.3399091,2.5343911 0 0 1 0.0139,0 2.3399091,2.5343911 0 0 1 2.33991,2.534276 2.3399091,2.5343911 0 0 1 -2.33991,2.534276 2.3399091,2.5343911 0 0 1 -2.33991,-2.534276 2.3399091,2.5343911 0 0 1 2.32596,-2.534276 z" />
    <path
       id="path1189-6-8"
       style="opacity:1;fill:#6d6e71;fill-opacity:1;fill-rule:evenodd;stroke:none;stroke-width:0.226887"
       d="m 183.08909,59.022464 a 4.4979172,4.2126151 0 0 0 -4.46226,4.212615 4.4979172,4.2126151 0 0 0 4.49792,4.212615 4.4979172,4.2126151 0 0 0 4.49791,-4.212615 4.4979172,4.2126151 0 0 0 -4.49791,-4.212615 4.4979172,4.2126151 0 0 0 -0.0357,0 z m -0.23461,1.722888 a 2.3399091,2.5343911 0 0 1 0.0139,0 2.3399091,2.5343911 0 0 1 2.33991,2.534276 2.3399091,2.5343911 0 0 1 -2.33991,2.534276 2.3399091,2.5343911 0 0 1 -2.33991,-2.534276 2.3399091,2.5343911 0 0 1 2.32596,-2.534276 z" />
    <path
       style="fill:#6d6e71;stroke:none;stroke-width:0.264583px;stroke-linecap:butt;stroke-linejoin:miter;stroke-opacity:1;fill-opacity:1"
       d="m 93.257025,59.213564 2.371246,7.998039 h 2.565217 l 1.562354,-4.887489 1.579578,4.887489 h 2.56315 l 2.27295,-7.998039 h -2.44814 l -1.24556,5.332026 -1.77734,-5.332026 h -2.019396 l -1.593758,5.320332 -1.439023,-5.320332 z"
       id="path1278" />
    <path
       style="fill:#6d6e71;stroke:none;stroke-width:0.264583px;stroke-linecap:butt;stroke-linejoin:miter;stroke-opacity:1;fill-opacity:1"
       d="m 164.25216,59.213564 h 3.39098 l 1.6603,5.184214 1.83704,-5.184214 h 3.43664 v 7.998039 h -2.30353 v -5.636789 l -2.06898,5.636789 h -1.89825 l -1.90268,-6.068689 v 6.068689 h -2.15152 z"
       id="path1280" />
    <path
       style="fill:#6d6e71;stroke:none;stroke-width:0.264583px;stroke-linecap:butt;stroke-linejoin:miter;stroke-opacity:1;fill-opacity:1"
       d="m 189.78767,59.213564 3.14011,7.998039 h 2.45047 l 3.22462,-7.998039 h -2.50746 l -1.89733,5.446503 -1.86253,-5.446503 z"
       id="path1282" />
    <path
       id="path1298"
       style="fill:#6d6e71;fill-opacity:1;stroke:none;stroke-width:0.999999px;stroke-linecap:butt;stroke-linejoin:miter;stroke-opacity:1"
       d="M 453.9375 223.79883 L 453.9375 254.02734 L 462.6875 254.02734 L 462.6875 243.5625 L 468.18945 243.5625 L 474.875 254.02734 L 485.125 254.02734 L 476.80859 242.51953 C 477.8113 242.08345 478.81472 241.64787 479.75781 241.04688 C 480.70091 240.44588 481.58452 239.68033 482.20312 239.04102 C 482.82173 238.4017 483.17474 237.88802 483.44727 237.17383 C 483.71979 236.45964 483.91108 235.54327 483.99219 234.49609 C 484.07329 233.44891 484.04347 232.27173 483.89648 231.45898 C 483.7495 230.64623 483.48455 230.1982 483.10156 229.60156 C 482.71858 229.00492 482.21793 228.25805 481.4668 227.53125 C 480.71567 226.80445 479.71437 226.09739 478.58008 225.47852 C 477.44578 224.85964 476.17797 224.32987 472.04883 224.06445 C 467.91969 223.79903 460.92852 223.79883 453.9375 223.79883 z M 462.6875 229.75 C 465.41667 229.75 468.1475 229.74996 470.14062 229.95898 C 472.13375 230.16801 473.39002 230.58473 474.12109 231.22852 C 474.85216 231.8723 475.05766 232.74228 475.00586 233.64062 C 474.95406 234.53897 474.64597 235.46672 474.06445 236.09375 C 473.48294 236.72078 472.6287 237.04744 470.6875 237.21094 C 468.7463 237.37443 465.71593 237.375 462.6875 237.375 L 462.6875 229.75 z "
       transform="scale(0.26458333)" />
    <path
       style="fill:#231f20;stroke:none;stroke-width:0.264583px;stroke-linecap:butt;stroke-linejoin:miter;stroke-opacity:1;fill-opacity:1"
       d="m 170.39101,47.052798 c 0,0 0,-3.975632 0,-3.975632 0,0 -8.2319,0 -8.2319,0 0,0 3.09397,-6.87551 3.09397,-6.87551 0,0 13.32306,0 13.32306,0 0,0 0,16.183171 0,16.183171 -0.39652,0.293035 -0.79299,0.586038 -1.57825,0.919962 -0.78525,0.333925 -1.95932,0.708745 -3.12524,1.011921 -1.16592,0.303176 -2.32367,0.534682 -3.25798,0.705563 -0.93431,0.17088 -1.64515,0.281122 -2.61517,0.350037 -0.97002,0.06892 -2.1992,0.09647 -3.32919,0.07306 -1.12999,-0.02341 -2.16074,-0.09783 -3.18875,-0.257654 -1.02801,-0.159827 -2.05326,-0.405113 -2.99859,-0.698613 -0.94534,-0.293501 -1.81073,-0.635248 -2.51768,-0.96182 -0.70694,-0.326573 -1.25538,-0.637999 -1.78732,-1.000401 -0.53195,-0.362401 -1.04732,-0.775806 -1.53103,-1.194722 -0.4837,-0.418916 -0.93569,-0.843344 -1.30227,-1.229181 -0.36658,-0.385837 -0.64769,-0.733094 -0.99035,-1.223287 -0.34265,-0.490193 -0.74678,-1.123304 -1.10673,-1.804301 -0.35996,-0.680997 -0.67566,-1.40985 -0.92903,-2.084156 -0.25338,-0.674306 -0.44436,-1.294022 -0.57917,-1.771961 -0.1348,-0.477938 -0.21339,-0.814077 -0.29405,-1.252252 -0.0806,-0.438175 -0.16333,-0.978357 -0.20201,-1.956238 -0.0387,-0.977881 -0.0333,-2.393358 0.0278,-3.561066 0.0611,-1.167708 0.17805,-2.087543 0.32811,-2.900237 0.15005,-0.812695 0.33324,-1.518162 0.55541,-2.223666 0.22216,-0.705504 0.4833,-1.410972 0.78394,-2.062378 0.30063,-0.651406 0.64074,-1.248648 0.99822,-1.800862 0.35748,-0.552214 0.7323,-1.059322 1.15951,-1.571974 0.42721,-0.512652 0.90675,-1.030785 1.45526,-1.477302 0.54851,-0.446516 1.16586,-0.821336 1.59306,-1.077654 0.4272,-0.256318 0.66421,-0.394115 1.21604,-0.666095 0.55183,-0.271979 1.4184,-0.678111 2.25319,-1.005908 0.83478,-0.327797 1.63769,-0.577246 2.42506,-0.748732 0.78736,-0.171486 1.55909,-0.265028 2.49456,-0.333229 0.93547,-0.0682 2.03459,-0.111075 3.04021,-0.111063 1.00562,1.2e-5 1.91766,0.04288 2.61279,0.08336 0.69512,0.04048 1.17328,0.07855 1.72106,0.147202 0.54777,0.06866 1.16512,0.167874 2.01264,0.373227 0.84751,0.205352 1.92511,0.516782 2.96274,0.849615 1.03763,0.332833 2.0349,0.68691 3.03251,1.041108 0,0 0,7.916188 0,7.916188 -0.49696,-0.28453 -0.9936,-0.568882 -1.51492,-0.85537 -0.52132,-0.286488 -1.06698,-0.57491 -1.60876,-0.808804 -0.54179,-0.233894 -1.07966,-0.413184 -1.73058,-0.611975 -0.65092,-0.198792 -1.41485,-0.417058 -2.2217,-0.557409 -0.80684,-0.140352 -1.65651,-0.202713 -2.52182,-0.222214 -0.86531,-0.0195 -1.74617,0.0039 -2.56082,0.105206 -0.81465,0.101322 -1.56299,0.280612 -2.3075,0.545654 -0.7445,0.265042 -1.48505,0.615828 -2.11652,0.99392 -0.63147,0.378091 -1.15375,0.783442 -1.64489,1.290181 -0.49115,0.506738 -0.95107,1.114765 -1.30187,1.633182 -0.3508,0.518418 -0.59245,0.947157 -0.82632,1.56694 -0.23386,0.619783 -0.45992,1.430485 -0.58851,2.309461 -0.1286,0.878976 -0.15976,1.826077 -0.1137,2.694214 0.0461,0.868136 0.16928,1.657163 0.28263,2.175245 0.11335,0.518082 0.21674,0.765131 0.49171,1.244202 0.27498,0.47907 0.72146,1.190125 1.14042,1.749592 0.41896,0.559466 0.81031,0.967358 1.25131,1.325613 0.44101,0.358255 0.93158,0.666929 1.47178,0.983872 0.5402,0.316944 1.12998,0.64215 1.81898,0.818458 0.68901,0.176308 1.47724,0.203867 2.30131,0.217643 0.82407,0.01377 1.68395,0.01377 2.38123,-0.02207 0.69727,-0.03585 1.23194,-0.107502 1.60386,-0.180832 0.37193,-0.07333 0.58102,-0.148254 0.79026,-0.223233 0,0 -3e-5,2e-6 -3e-5,2e-6 z"
       id="path1321"
       inkscape:path-effect="#path-effect1323"
       inkscape:original-d="m 170.39101,47.052798 v -3.975632 h -8.2319 l 3.09397,-6.87551 h 13.32306 v 16.183171 c 0,0 -0.79277,0.586335 -1.18955,0.879105 -1.17385,0.375097 -2.34792,0.749916 -3.52227,1.124479 -1.15753,0.23178 -2.31528,0.463285 -3.47331,0.694531 -0.7106,0.110509 -1.42144,0.22075 -2.13255,0.330729 -1.22897,0.02783 -2.45815,0.05539 -3.68763,0.08268 -1.03053,-0.07415 -2.06128,-0.148563 -3.09232,-0.223242 -1.02501,-0.24503 -2.05025,-0.490318 -3.07578,-0.735872 -0.86516,-0.341495 -1.73055,-0.683242 -2.59622,-1.025261 -0.54821,-0.311179 -1.09665,-0.622609 -1.64538,-0.934309 -0.51513,-0.413155 -1.03051,-0.826559 -1.54616,-1.240235 -0.45174,-0.42418 -0.90373,-0.848606 -1.35599,-1.273307 -0.28086,-0.347009 -0.56197,-0.694267 -0.84336,-1.041797 -0.40388,-0.632873 -0.80801,-1.265983 -1.21241,-1.899372 -0.31545,-0.728618 -0.63116,-1.457468 -0.94713,-2.186599 -0.19073,-0.619479 -0.38171,-1.239197 -0.57297,-1.859193 -0.0783,-0.33588 -0.15692,-0.672012 -0.23578,-1.008417 -0.0824,-0.539937 -0.1651,-1.080116 -0.24805,-1.620572 0.006,-1.41527 0.011,-2.830748 0.0161,-4.246521 0.11719,-0.919607 0.23412,-1.839441 0.35078,-2.759556 0.18346,-0.705231 0.36665,-1.410698 0.54958,-2.116442 0.26141,-0.705228 0.52255,-1.410695 0.78343,-2.116439 0.34039,-0.597006 0.68049,-1.19425 1.02034,-1.791771 0.3751,-0.506865 0.74992,-1.013972 1.12448,-1.521355 0.47983,-0.517888 0.95938,-1.03602 1.43867,-1.554427 0.61764,-0.374569 1.23499,-0.749388 1.85208,-1.124479 0.2373,-0.137542 0.47431,-0.275343 0.71107,-0.413411 0.86687,-0.405884 1.73344,-0.812016 2.59976,-1.218421 0.8032,-0.249192 1.60611,-0.498639 2.40876,-0.748355 0.77202,-0.09328 1.54375,-0.186824 2.31523,-0.280633 1.09943,-0.04261 2.19855,-0.08548 3.29743,-0.128623 0.91234,0.04314 1.82438,0.08601 2.73618,0.128623 0.47844,0.03833 0.9566,0.0764 1.4345,0.114206 0.61764,0.09948 1.23499,0.198702 1.85209,0.297656 1.07791,0.311707 2.15551,0.623138 3.23287,0.93431 0.9979,0.35447 2.99283,1.062595 2.99283,1.062595 v 7.916188 c 0,0 -0.99365,-0.568796 -1.49087,-0.853591 -0.54542,-0.28817 -1.09108,-0.576593 -1.63702,-0.865285 -0.53763,-0.179033 -1.0755,-0.358322 -1.61364,-0.537879 -0.7637,-0.218012 -1.52763,-0.436277 -2.29184,-0.654812 -0.84945,-0.0621 -1.69912,-0.12446 -2.54908,-0.187087 -0.88063,0.02365 -1.76149,0.04703 -2.64263,0.07016 -0.7481,0.179562 -1.49644,0.358851 -2.24506,0.537879 -0.74031,0.351065 -1.48086,0.701847 -2.22168,1.052375 -0.52204,0.40563 -1.04432,0.810982 -1.56687,1.216075 -0.45967,0.608317 -0.91959,1.216343 -1.37978,1.824114 -0.24139,0.42902 -0.48305,0.857756 -0.72497,1.286235 -0.2258,0.810998 -0.45186,1.6217 -0.67819,2.432153 -0.0309,0.94742 -0.0621,1.89452 -0.0935,2.841411 0.12349,0.789341 0.24671,1.578368 0.36968,2.367182 0.10365,0.247331 0.20704,0.494378 0.31017,0.741183 0.44676,0.711345 0.89324,1.4224 1.33946,2.133203 0.39163,0.408173 0.78299,0.816062 1.17409,1.223698 0.49085,0.308951 0.98142,0.617625 1.47174,0.926041 0.59008,0.325488 1.17986,0.650695 1.7694,0.975651 0.78851,0.02783 1.57674,0.05539 2.36472,0.08268 0.86017,2.64e-4 1.72005,2.64e-4 2.57968,0 0.53496,-0.0714 1.06963,-0.143053 1.60404,-0.214974 0.20951,-0.07472 0.62773,-0.224936 0.62773,-0.224936 z"
       sodipodi:nodetypes="cccccccccccccccccccccccccccccccccccccccccccccccccccccccccccccccccc" />
  </g>
</svg>
