<?xml version="1.0" encoding="UTF-8" standalone="no"?>
<svg
   xmlns:dc="http://purl.org/dc/elements/1.1/"
   xmlns:cc="http://creativecommons.org/ns#"
   xmlns:rdf="http://www.w3.org/1999/02/22-rdf-syntax-ns#"
   xmlns:svg="http://www.w3.org/2000/svg"
   xmlns="http://www.w3.org/2000/svg"
   xmlns:sodipodi="http://sodipodi.sourceforge.net/DTD/sodipodi-0.dtd"
   xmlns:inkscape="http://www.inkscape.org/namespaces/inkscape"
   width="213.99374mm"
   height="72.706253mm"
   viewBox="0 0 213.99374 72.706253"
   version="1.1"
   id="svg8"
   inkscape:version="1.0.1 (3bc2e813f5, 2020-09-07)"
   sodipodi:docname="logo.svg">
  <defs
     id="defs2">
    <inkscape:path-effect
       effect="bspline"
       id="path-effect1323"
       is_visible="true"
       lpeversion="1"
       weight="33.333333"
       steps="2"
       helper_size="0"
       apply_no_weight="true"
       apply_with_weight="true"
       only_selected="false" />
    <inkscape:path-effect
       effect="bspline"
       id="path-effect1304"
       is_visible="true"
       lpeversion="1"
       weight="33.333333"
       steps="2"
       helper_size="0"
       apply_no_weight="true"
       apply_with_weight="true"
       only_selected="false" />
    <inkscape:path-effect
       effect="bspline"
       id="path-effect1300"
       is_visible="true"
       lpeversion="1"
       weight="33.333333"
       steps="2"
       helper_size="0"
       apply_no_weight="true"
       apply_with_weight="true"
       only_selected="false" />
    <inkscape:path-effect
       effect="bspline"
       id="path-effect1184"
       is_visible="true"
       lpeversion="1"
       weight="33.333333"
       steps="2"
       helper_size="0"
       apply_no_weight="true"
       apply_with_weight="true"
       only_selected="false" />
    <inkscape:path-effect
       effect="bspline"
       id="path-effect1180"
       is_visible="true"
       lpeversion="1"
       weight="33.333333"
       steps="2"
       helper_size="0"
       apply_no_weight="true"
       apply_with_weight="true"
       only_selected="false" />
  </defs>
  <sodipodi:namedview
     id="base"
     pagecolor="#ffffff"
     bordercolor="#666666"
     borderopacity="1.0"
     inkscape:pageopacity="0.0"
     inkscape:pageshadow="2"
     inkscape:zoom="1.4142136"
     inkscape:cx="395.77401"
     inkscape:cy="126.42769"
     inkscape:document-units="mm"
     inkscape:current-layer="layer1"
     inkscape:document-rotation="0"
     showgrid="false"
     fit-margin-top="5"
     lock-margins="true"
     fit-margin-left="5"
     fit-margin-right="5"
     fit-margin-bottom="5"
     showguides="true"
     inkscape:guide-bbox="true"
     inkscape:window-width="1858"
     inkscape:window-height="1057"
     inkscape:window-x="-8"
     inkscape:window-y="-8"
     inkscape:window-maximized="1" />
  <metadata
     id="metadata5">
    <rdf:RDF>
      <cc:Work
         rdf:about="">
        <dc:format>image/svg+xml</dc:format>
        <dc:type
           rdf:resource="http://purl.org/dc/dcmitype/StillImage" />
        <dc:title></dc:title>
      </cc:Work>
    </rdf:RDF>
  </metadata>
  <g
     inkscape:label="Layer 1"
     inkscape:groupmode="layer"
     id="layer1">
    <path
       style="fill:#231f20;stroke:none;stroke-width:0.264583px;stroke-linecap:butt;stroke-linejoin:miter;stroke-opacity:1;fill-opacity:1"
       d="m 33.648004,55.068379 h 10.16509 L 54.957297,30.120135 v 11.904657 h -2.767521 l -3.055614,6.923124 h 5.823135 v 6.120463 h 8.021425 V 20.835937 H 50.502343 Z"
       id="path140" />
    <path
       style="fill:#231f20;fill-opacity:1;stroke:none;stroke-width:0.264583px;stroke-linecap:butt;stroke-linejoin:miter;stroke-opacity:1"
       d="m 115.99041,55.068379 h 10.16509 l 11.1442,-24.948245 v 11.904657 h -2.76752 l -3.05561,6.923124 h 5.82313 v 6.120464 h 8.02143 V 20.835937 h -12.47638 z"
       id="path140-7" />
    <path
       style="fill:#231f20;stroke:none;stroke-width:0.264583px;stroke-linecap:butt;stroke-linejoin:miter;stroke-opacity:1;fill-opacity:1"
       d="m 66.476562,20.835937 v 34.232442 h 8.069791 V 36.123988 l 14.194118,18.944391 h 7.136625 V 20.835937 H 87.814742 V 39.877502 L 73.71953,20.835937 Z"
       id="path171" />
    <path
       style="fill:#231f20;stroke:none;stroke-width:0.264583px;stroke-linecap:butt;stroke-linejoin:miter;stroke-opacity:1;fill-opacity:1"
       d="M 4.9898762,20.835937 V 67.262043 H 22.637729 L 37.271944,38.571289 H 25.086211 L 16.66875,55.068379 V 20.835937 Z"
       id="path201" />
    <path
       style="fill:#231f20;stroke:none;stroke-width:0.264583px;stroke-linecap:butt;stroke-linejoin:miter;stroke-opacity:1;fill-opacity:1"
       d="m 26.486844,35.826237 h 12.185261 l 3.793512,-7.437271 H 30.281631 Z"
       id="path203" />
    <path
       style="fill:#231f20;stroke:none;stroke-width:0.264583px;stroke-linecap:butt;stroke-linejoin:miter;stroke-opacity:1;fill-opacity:1"
       d="m 31.531443,25.939502 h 12.183562 l 2.603162,-5.103565 H 34.13548 Z"
       id="path205" />
    <path
       style="fill:#ffcb30;stroke:none;stroke-width:0.264583px;stroke-linecap:butt;stroke-linejoin:miter;stroke-opacity:1;fill-opacity:1"
       d="m 35.459445,18.241145 h 12.182242 l 1.801198,-3.531298 H 37.261252 Z"
       id="path207" />
    <path
       style="fill:#ffcb30;stroke:none;stroke-width:0.264583px;stroke-linecap:butt;stroke-linejoin:miter;stroke-opacity:1;fill-opacity:1"
       d="M 40.017657,9.3076613 38.573826,12.137378 H 50.755018 L 52.198365,9.3076613 Z"
       id="path209" />
    <path
       style="fill:#ffcb30;stroke:none;stroke-width:0.264583px;stroke-linecap:butt;stroke-linejoin:miter;stroke-opacity:1;fill-opacity:1"
       d="M 41.127381,7.1327562 H 53.307712 L 54.381275,5.0280083 H 42.201303 Z"
       id="path211" />
    <path
       style="fill:#231f20;stroke:none;stroke-width:0.264583px;stroke-linecap:butt;stroke-linejoin:miter;stroke-opacity:1;fill-opacity:1"
       d="m 97.680858,20.835937 h 25.049312 v 6.853185 h -8.13251 v 27.379257 h -8.70547 V 27.689122 h -8.211332 z"
       id="path225" />
    <path
       style="fill:#231f20;stroke:none;stroke-width:0.264583px;stroke-linecap:butt;stroke-linejoin:miter;stroke-opacity:1;fill-opacity:1"
       d="m 182.68039,20.835937 v 34.858021 h 22.27525 l 2.98144,-6.927943 H 191.83945 V 41.35244 h 12.04681 l 2.99759,-6.998284 h -15.0444 V 27.847395 H 204.599 l 3.13883,-7.011458 z"
       id="path247" />
    <path
       style="fill:#6d6e71;fill-opacity:1;stroke:none;stroke-width:0.264583px;stroke-linecap:butt;stroke-linejoin:miter;stroke-opacity:1"
       d="m 31.968776,59.213564 v 1.590252 h 2.432153 v 6.407787 h 2.338609 v -6.407787 h 2.385381 v -1.590252 z"
       id="path293" />
    <path
       style="fill:#6d6e71;stroke:none;stroke-width:0.264583px;stroke-linecap:butt;stroke-linejoin:miter;stroke-opacity:1;fill-opacity:1"
       d="m 42.305425,59.213564 v 7.998039 h 2.256758 v -3.449447 h 3.367595 v 3.449447 h 2.326915 v -7.998039 h -2.326915 v 2.841408 h -3.367595 v -2.841408 z"
       id="path295" />
    <path
       style="fill:#6d6e71;stroke:none;stroke-width:0.264583px;stroke-linecap:butt;stroke-linejoin:miter;stroke-opacity:1;fill-opacity:1"
       d="m 54.559734,59.213564 v 7.998039 h 7.303156 v -1.644547 h -4.894792 v -1.8049 h 4.200261 v -1.707184 h -4.200261 v -1.251156 h 4.547526 v -1.590252 z"
       id="path299" />
    <path
       style="fill:#6d6e71;fill-opacity:1;stroke:none;stroke-width:0.264583px;stroke-linecap:butt;stroke-linejoin:miter;stroke-opacity:1"
       d="m 109.10755,59.213564 v 7.998039 h 7.30316 v -1.644547 h -4.8948 v -1.8049 h 4.20026 v -1.707184 h -4.20026 v -1.251156 h 4.54753 v -1.590252 z"
       id="path299-3" />
    <path
       style="fill:#6d6e71;fill-opacity:1;stroke:none;stroke-width:0.264583px;stroke-linecap:butt;stroke-linejoin:miter;stroke-opacity:1"
       d="m 201.4945,59.213564 v 7.998038 h 7.30316 v -1.644547 h -4.8948 v -1.8049 h 4.20026 v -1.707183 h -4.20026 v -1.251156 h 4.54753 v -1.590252 z"
       id="path299-0" />
    <path
       style="fill:#6d6e71;fill-opacity:1;stroke:none;stroke-width:0.264583px;stroke-linecap:butt;stroke-linejoin:miter;stroke-opacity:1"
       d="m 136.30579,59.213564 v 1.59025 h 2.43215 v 6.40779 h 2.33861 v -6.40779 h 2.38538 v -1.59025 z"
       id="path293-5" />
    <path
       id="path1178"
       style="fill:#6d6e71;fill-opacity:1;stroke:none;stroke-width:0.999999px;stroke-linecap:butt;stroke-linejoin:miter;stroke-opacity:1"
       d="M 267.375 223.79883 L 267.375 254.02734 L 276.3125 254.02734 L 276.3125 244.12891 C 280.18335 244.12891 284.05565 244.12794 286.74219 243.88477 C 289.42873 243.64159 290.93097 243.15548 292.13867 242.5 C 293.34637 241.84452 294.26052 241.0194 295.01172 240.15039 C 295.76292 239.28138 296.35134 238.36852 296.73438 237.30078 C 297.11741 236.23304 297.29312 235.01016 297.23438 233.69922 C 297.17563 232.38827 296.88222 230.98967 296.42578 229.78906 C 295.96934 228.58845 295.3509 227.58588 294.47461 226.77539 C 293.59831 225.9649 292.46379 225.34701 291.35156 224.88281 C 290.23933 224.41862 289.14858 224.10993 285.15625 223.95508 C 281.16392 223.80023 274.26921 223.79883 267.375 223.79883 z M 276.3125 229.58789 C 278.73967 229.58789 281.1682 229.58823 282.97852 229.75781 C 284.78883 229.9274 285.98218 230.26605 286.77734 230.89258 C 287.57251 231.5191 287.97044 232.43342 288.1543 233.26562 C 288.33816 234.09783 288.30813 234.84944 288.04297 235.48242 C 287.77781 236.11541 287.27706 236.63071 286.59961 237.10938 C 285.92216 237.58804 285.06785 238.02893 283.32422 238.25 C 281.58059 238.47107 278.94591 238.47266 276.3125 238.47266 L 276.3125 229.58789 z "
       transform="scale(0.26458333)" />
    <path
       id="path1189-6"
       style="opacity:1;fill:#6d6e71;fill-opacity:1;fill-rule:evenodd;stroke:none;stroke-width:0.226887"
       d="m 150.74343,58.966648 a 4.4979172,4.212615 0 0 0 -4.46226,4.212615 4.4979172,4.212615 0 0 0 4.49792,4.212615 4.4979172,4.212615 0 0 0 4.49791,-4.212615 4.4979172,4.212615 0 0 0 -4.49791,-4.212615 4.4979172,4.212615 0 0 0 -0.0357,0 z m -0.23461,1.722888 a 2.3399091,2.5343911 0 0 1 0.0139,0 2.3399091,2.5343911 0 0 1 2.33991,2.534276 2.3399091,2.5343911 0 0 1 -2.33991,2.534276 2.3399091,2.5343911 0 0 1 -2.33991,-2.534276 2.3399091,2.5343911 0 0 1 2.32596,-2.534276 z" />
    <path
       id="path1189-6-0"
       style="opacity:1;fill:#6d6e71;fill-opacity:1;fill-rule:evenodd;stroke:none;stroke-width:0.226887"
       d="m 86.51073,59.022464 a 4.4979172,4.2126151 0 0 0 -4.46226,4.212615 4.4979172,4.2126151 0 0 0 4.49792,4.212615 4.4979172,4.2126151 0 0 0 4.49791,-4.212615 4.4979172,4.2126151 0 0 0 -4.49791,-4.212615 4.4979172,4.2126151 0 0 0 -0.0357,0 z m -0.23461,1.722888 a 2.3399091,2.5343911 0 0 1 0.0139,0 2.3399091,2.5343911 0 0 1 2.33991,2.534276 2.3399091,2.5343911 0 0 1 -2.33991,2.534276 2.3399091,2.5343911 0 0 1 -2.33991,-2.534276 2.3399091,2.5343911 0 0 1 2.32596,-2.534276 z" />
    <path
       id="path1189-6-8"
       style="opacity:1;fill:#6d6e71;fill-opacity:1;fill-rule:evenodd;stroke:none;stroke-width:0.226887"
       d="m 183.08909,59.022464 a 4.4979172,4.2126151 0 0 0 -4.46226,4.212615 4.4979172,4.2126151 0 0 0 4.49792,4.212615 4.4979172,4.2126151 0 0 0 4.49791,-4.212615 4.4979172,4.2126151 0 0 0 -4.49791,-4.212615 4.4979172,4.2126151 0 0 0 -0.0357,0 z m -0.23461,1.722888 a 2.3399091,2.5343911 0 0 1 0.0139,0 2.3399091,2.5343911 0 0 1 2.33991,2.534276 2.3399091,2.5343911 0 0 1 -2.33991,2.534276 2.3399091,2.5343911 0 0 1 -2.33991,-2.534276 2.3399091,2.5343911 0 0 1 2.32596,-2.534276 z" />
    <path
       style="fill:#6d6e71;stroke:none;stroke-width:0.264583px;stroke-linecap:butt;stroke-linejoin:miter;stroke-opacity:1;fill-opacity:1"
       d="m 93.257025,59.213564 2.371246,7.998039 h 2.565217 l 1.562354,-4.887489 1.579578,4.887489 h 2.56315 l 2.27295,-7.998039 h -2.44814 l -1.24556,5.332026 -1.77734,-5.332026 h -2.019396 l -1.593758,5.320332 -1.439023,-5.320332 z"
       id="path1278" />
    <path
       style="fill:#6d6e71;stroke:none;stroke-width:0.264583px;stroke-linecap:butt;stroke-linejoin:miter;stroke-opacity:1;fill-opacity:1"
       d="m 164.25216,59.213564 h 3.39098 l 1.6603,5.184214 1.83704,-5.184214 h 3.43664 v 7.998039 h -2.30353 v -5.636789 l -2.06898,5.636789 h -1.89825 l -1.90268,-6.068689 v 6.068689 h -2.15152 z"
       id="path1280" />
    <path
       style="fill:#6d6e71;stroke:none;stroke-width:0.264583px;stroke-linecap:butt;stroke-linejoin:miter;stroke-opacity:1;fill-opacity:1"
       d="m 189.78767,59.213564 3.14011,7.998039 h 2.45047 l 3.22462,-7.998039 h -2.50746 l -1.89733,5.446503 -1.86253,-5.446503 z"
       id="path1282" />
    <path
       id="path1298"
       style="fill:#6d6e71;fill-opacity:1;stroke:none;stroke-width:0.999999px;stroke-linecap:butt;stroke-linejoin:miter;stroke-opacity:1"
       d="M 453.9375 223.79883 L 453.9375 254.02734 L 462.6875 254.02734 L 462.6875 243.5625 L 468.18945 243.5625 L 474.875 254.02734 L 485.125 254.02734 L 476.80859 242.51953 C 477.8113 242.08345 478.81472 241.64787 479.75781 241.04688 C 480.70091 240.44588 481.58452 239.68033 482.20312 239.04102 C 482.82173 238.4017 483.17474 237.88802 483.44727 237.17383 C 483.71979 236.45964 483.91108 235.54327 483.99219 234.49609 C 484.07329 233.44891 484.04347 232.27173 483.89648 231.45898 C 483.7495 230.64623 483.48455 230.1982 483.10156 229.60156 C 482.71858 229.00492 482.21793 228.25805 481.4668 227.53125 C 480.71567 226.80445 479.71437 226.09739 478.58008 225.47852 C 477.44578 224.85964 476.17797 224.32987 472.04883 224.06445 C 467.91969 223.79903 460.92852 223.79883 453.9375 223.79883 z M 462.6875 229.75 C 465.41667 229.75 468.1475 229.74996 470.14062 229.95898 C 472.13375 230.16801 473.39002 230.58473 474.12109 231.22852 C 474.85216 231.8723 475.05766 232.74228 475.00586 233.64062 C 474.95406 234.53897 474.64597 235.46672 474.06445 236.09375 C 473.48294 236.72078 472.6287 237.04744 470.6875 237.21094 C 468.7463 237.37443 465.71593 237.375 462.6875 237.375 L 462.6875 229.75 z "
       transform="scale(0.26458333)" />
    <path
       style="fill:#231f20;stroke:none;stroke-width:0.264583px;stroke-linecap:butt;stroke-linejoin:miter;stroke-opacity:1;fill-opacity:1"
       d="m 170.39101,47.052798 c 0,0 0,-3.975632 0,-3.975632 0,0 -8.2319,0 -8.2319,0 0,0 3.09397,-6.87551 3.09397,-6.87551 0,0 13.32306,0 13.32306,0 0,0 0,16.183171 0,16.183171 -0.39652,0.293035 -0.79299,0.586038 -1.57825,0.919962 -0.78525,0.333925 -1.95932,0.708745 -3.12524,1.011921 -1.16592,0.303176 -2.32367,0.534682 -3.25798,0.705563 -0.93431,0.17088 -1.64515,0.281122 -2.61517,0.350037 -0.97002,0.06892 -2.1992,0.09647 -3.32919,0.07306 -1.12999,-0.02341 -2.16074,-0.09783 -3.18875,-0.257654 -1.02801,-0.159827 -2.05326,-0.405113 -2.99859,-0.698613 -0.94534,-0.293501 -1.81073,-0.635248 -2.51768,-0.96182 -0.70694,-0.326573 -1.25538,-0.637999 -1.78732,-1.000401 -0.53195,-0.362401 -1.04732,-0.775806 -1.53103,-1.194722 -0.4837,-0.418916 -0.93569,-0.843344 -1.30227,-1.229181 -0.36658,-0.385837 -0.64769,-0.733094 -0.99035,-1.223287 -0.34265,-0.490193 -0.74678,-1.123304 -1.10673,-1.804301 -0.35996,-0.680997 -0.67566,-1.40985 -0.92903,-2.084156 -0.25338,-0.674306 -0.44436,-1.294022 -0.57917,-1.771961 -0.1348,-0.477938 -0.21339,-0.814077 -0.29405,-1.252252 -0.0806,-0.438175 -0.16333,-0.978357 -0.20201,-1.956238 -0.0387,-0.977881 -0.0333,-2.393358 0.0278,-3.561066 0.0611,-1.167708 0.17805,-2.087543 0.32811,-2.900237 0.15005,-0.812695 0.33324,-1.518162 0.55541,-2.223666 0.22216,-0.705504 0.4833,-1.410972 0.78394,-2.062378 0.30063,-0.651406 0.64074,-1.248648 0.99822,-1.800862 0.35748,-0.552214 0.7323,-1.059322 1.15951,-1.571974 0.42721,-0.512652 0.90675,-1.030785 1.45526,-1.477302 0.54851,-0.446516 1.16586,-0.821336 1.59306,-1.077654 0.4272,-0.256318 0.66421,-0.394115 1.21604,-0.666095 0.55183,-0.271979 1.4184,-0.678111 2.25319,-1.005908 0.83478,-0.327797 1.63769,-0.577246 2.42506,-0.748732 0.78736,-0.171486 1.55909,-0.265028 2.49456,-0.333229 0.93547,-0.0682 2.03459,-0.111075 3.04021,-0.111063 1.00562,1.2e-5 1.91766,0.04288 2.61279,0.08336 0.69512,0.04048 1.17328,0.07855 1.72106,0.147202 0.54777,0.06866 1.16512,0.167874 2.01264,0.373227 0.84751,0.205352 1.92511,0.516782 2.96274,0.849615 1.03763,0.332833 2.0349,0.68691 3.03251,1.041108 0,0 0,7.916188 0,7.916188 -0.49696,-0.28453 -0.9936,-0.568882 -1.51492,-0.85537 -0.52132,-0.286488 -1.06698,-0.57491 -1.60876,-0.808804 -0.54179,-0.233894 -1.07966,-0.413184 -1.73058,-0.611975 -0.65092,-0.198792 -1.41485,-0.417058 -2.2217,-0.557409 -0.80684,-0.140352 -1.65651,-0.202713 -2.52182,-0.222214 -0.86531,-0.0195 -1.74617,0.0039 -2.56082,0.105206 -0.81465,0.101322 -1.56299,0.280612 -2.3075,0.545654 -0.7445,0.265042 -1.48505,0.615828 -2.11652,0.99392 -0.63147,0.378091 -1.15375,0.783442 -1.64489,1.290181 -0.49115,0.506738 -0.95107,1.114765 -1.30187,1.633182 -0.3508,0.518418 -0.59245,0.947157 -0.82632,1.56694 -0.23386,0.619783 -0.45992,1.430485 -0.58851,2.309461 -0.1286,0.878976 -0.15976,1.826077 -0.1137,2.694214 0.0461,0.868136 0.16928,1.657163 0.28263,2.175245 0.11335,0.518082 0.21674,0.765131 0.49171,1.244202 0.27498,0.47907 0.72146,1.190125 1.14042,1.749592 0.41896,0.559466 0.81031,0.967358 1.25131,1.325613 0.44101,0.358255 0.93158,0.666929 1.47178,0.983872 0.5402,0.316944 1.12998,0.64215 1.81898,0.818458 0.68901,0.176308 1.47724,0.203867 2.30131,0.217643 0.82407,0.01377 1.68395,0.01377 2.38123,-0.02207 0.69727,-0.03585 1.23194,-0.107502 1.60386,-0.180832 0.37193,-0.07333 0.58102,-0.148254 0.79026,-0.223233 0,0 -3e-5,2e-6 -3e-5,2e-6 z"
       id="path1321"
       inkscape:path-effect="#path-effect1323"
       inkscape:original-d="m 170.39101,47.052798 v -3.975632 h -8.2319 l 3.09397,-6.87551 h 13.32306 v 16.183171 c 0,0 -0.79277,0.586335 -1.18955,0.879105 -1.17385,0.375097 -2.34792,0.749916 -3.52227,1.124479 -1.15753,0.23178 -2.31528,0.463285 -3.47331,0.694531 -0.7106,0.110509 -1.42144,0.22075 -2.13255,0.330729 -1.22897,0.02783 -2.45815,0.05539 -3.68763,0.08268 -1.03053,-0.07415 -2.06128,-0.148563 -3.09232,-0.223242 -1.02501,-0.24503 -2.05025,-0.490318 -3.07578,-0.735872 -0.86516,-0.341495 -1.73055,-0.683242 -2.59622,-1.025261 -0.54821,-0.311179 -1.09665,-0.622609 -1.64538,-0.934309 -0.51513,-0.413155 -1.03051,-0.826559 -1.54616,-1.240235 -0.45174,-0.42418 -0.90373,-0.848606 -1.35599,-1.273307 -0.28086,-0.347009 -0.56197,-0.694267 -0.84336,-1.041797 -0.40388,-0.632873 -0.80801,-1.265983 -1.21241,-1.899372 -0.31545,-0.728618 -0.63116,-1.457468 -0.94713,-2.186599 -0.19073,-0.619479 -0.38171,-1.239197 -0.57297,-1.859193 -0.0783,-0.33588 -0.15692,-0.672012 -0.23578,-1.008417 -0.0824,-0.539937 -0.1651,-1.080116 -0.24805,-1.620572 0.006,-1.41527 0.011,-2.830748 0.0161,-4.246521 0.11719,-0.919607 0.23412,-1.839441 0.35078,-2.759556 0.18346,-0.705231 0.36665,-1.410698 0.54958,-2.116442 0.26141,-0.705228 0.52255,-1.410695 0.78343,-2.116439 0.34039,-0.597006 0.68049,-1.19425 1.02034,-1.791771 0.3751,-0.506865 0.74992,-1.013972 1.12448,-1.521355 0.47983,-0.517888 0.95938,-1.03602 1.43867,-1.554427 0.61764,-0.374569 1.23499,-0.749388 1.85208,-1.124479 0.2373,-0.137542 0.47431,-0.275343 0.71107,-0.413411 0.86687,-0.405884 1.73344,-0.812016 2.59976,-1.218421 0.8032,-0.249192 1.60611,-0.498639 2.40876,-0.748355 0.77202,-0.09328 1.54375,-0.186824 2.31523,-0.280633 1.09943,-0.04261 2.19855,-0.08548 3.29743,-0.128623 0.91234,0.04314 1.82438,0.08601 2.73618,0.128623 0.47844,0.03833 0.9566,0.0764 1.4345,0.114206 0.61764,0.09948 1.23499,0.198702 1.85209,0.297656 1.07791,0.311707 2.15551,0.623138 3.23287,0.93431 0.9979,0.35447 2.99283,1.062595 2.99283,1.062595 v 7.916188 c 0,0 -0.99365,-0.568796 -1.49087,-0.853591 -0.54542,-0.28817 -1.09108,-0.576593 -1.63702,-0.865285 -0.53763,-0.179033 -1.0755,-0.358322 -1.61364,-0.537879 -0.7637,-0.218012 -1.52763,-0.436277 -2.29184,-0.654812 -0.84945,-0.0621 -1.69912,-0.12446 -2.54908,-0.187087 -0.88063,0.02365 -1.76149,0.04703 -2.64263,0.07016 -0.7481,0.179562 -1.49644,0.358851 -2.24506,0.537879 -0.74031,0.351065 -1.48086,0.701847 -2.22168,1.052375 -0.52204,0.40563 -1.04432,0.810982 -1.56687,1.216075 -0.45967,0.608317 -0.91959,1.216343 -1.37978,1.824114 -0.24139,0.42902 -0.48305,0.857756 -0.72497,1.286235 -0.2258,0.810998 -0.45186,1.6217 -0.67819,2.432153 -0.0309,0.94742 -0.0621,1.89452 -0.0935,2.841411 0.12349,0.789341 0.24671,1.578368 0.36968,2.367182 0.10365,0.247331 0.20704,0.494378 0.31017,0.741183 0.44676,0.711345 0.89324,1.4224 1.33946,2.133203 0.39163,0.408173 0.78299,0.816062 1.17409,1.223698 0.49085,0.308951 0.98142,0.617625 1.47174,0.926041 0.59008,0.325488 1.17986,0.650695 1.7694,0.975651 0.78851,0.02783 1.57674,0.05539 2.36472,0.08268 0.86017,2.64e-4 1.72005,2.64e-4 2.57968,0 0.53496,-0.0714 1.06963,-0.143053 1.60404,-0.214974 0.20951,-0.07472 0.62773,-0.224936 0.62773,-0.224936 z"
       sodipodi:nodetypes="cccccccccccccccccccccccccccccccccccccccccccccccccccccccccccccccccc" />
  </g>
</svg>
