<?xml version="1.0" encoding="UTF-8" standalone="no"?>
<svg
   xmlns:dc="http://purl.org/dc/elements/1.1/"
   xmlns:cc="http://creativecommons.org/ns#"
   xmlns:rdf="http://www.w3.org/1999/02/22-rdf-syntax-ns#"
   xmlns:svg="http://www.w3.org/2000/svg"
   xmlns="http://www.w3.org/2000/svg"
   xmlns:sodipodi="http://sodipodi.sourceforge.net/DTD/sodipodi-0.dtd"
   xmlns:inkscape="http://www.inkscape.org/namespaces/inkscape"
   width="341.71103"
   height="406.46103"
   viewBox="0 0 341.71103 406.46103"
   version="1.1"
   id="svg204"
   sodipodi:docname="sheave-offset-3.svg"
   inkscape:version="1.0.1 (3bc2e813f5, 2020-09-07)">
  <metadata
     id="metadata210">
    <rdf:RDF>
      <cc:Work
         rdf:about="">
        <dc:format>image/svg+xml</dc:format>
        <dc:type
           rdf:resource="http://purl.org/dc/dcmitype/StillImage" />
        <dc:title>Produce by Acme CAD Converter</dc:title>
      </cc:Work>
    </rdf:RDF>
  </metadata>
  <defs
     id="defs208" />
  <sodipodi:namedview
     pagecolor="#ffffff"
     bordercolor="#666666"
     borderopacity="1"
     objecttolerance="10"
     gridtolerance="10"
     guidetolerance="10"
     inkscape:pageopacity="0"
     inkscape:pageshadow="2"
     inkscape:window-width="1538"
     inkscape:window-height="934"
     id="namedview206"
     showgrid="false"
     lock-margins="true"
     fit-margin-top="10"
     fit-margin-left="10"
     fit-margin-right="10"
     fit-margin-bottom="10"
     inkscape:zoom="1.3025"
     inkscape:cx="187.67"
     inkscape:cy="213.76103"
     inkscape:window-x="0"
     inkscape:window-y="0"
     inkscape:window-maximized="0"
     inkscape:current-layer="svg204" />
  <title
     id="title2">Produce by Acme CAD Converter</title>
  <desc
     id="desc4">Produce by Acme CAD Converter</desc>
  <polyline
     points="297.22,246.2 502.23,246.2"
     style="fill:none;stroke:#000000;stroke-width:0.5"
     id="polyline6"
     transform="translate(-212.33,-86.238967)" />
  <polyline
     points="271.3,362.83 502.23,362.83"
     style="fill:none;stroke:#000000;stroke-width:0.5"
     id="polyline8"
     transform="translate(-212.33,-86.238967)" />
  <polyline
     points="271.3,358.84 502.23,358.84"
     style="fill:none;stroke:#000000;stroke-width:0.5"
     id="polyline10"
     transform="translate(-212.33,-86.238967)" />
  <polyline
     points="271.3,299.03 500.86,299.03"
     style="fill:none;stroke:#000000;stroke-width:0.5"
     id="polyline12"
     transform="translate(-212.33,-86.238967)" />
  <polyline
     points="271.3,303.02 489.91,303.02"
     style="fill:none;stroke:#000000;stroke-width:0.5"
     id="polyline14"
     transform="translate(-212.33,-86.238967)" />
  <polyline
     points="271.3,362.83 271.3,151.74"
     style="fill:none;stroke:#000000;stroke-width:0.5"
     id="polyline16"
     transform="translate(-212.33,-86.238967)" />
  <polyline
     points="291.23,299.03 291.23,151.74"
     style="fill:none;stroke:#000000;stroke-width:0.5"
     id="polyline18"
     transform="translate(-212.33,-86.238967)" />
  <polyline
     points="287.25,299.03 287.25,282.7"
     style="fill:none;stroke:#000000;stroke-width:0.5"
     id="polyline20"
     transform="translate(-212.33,-86.238967)" />
  <polyline
     points="287.25,274.72 287.25,258.78"
     style="fill:none;stroke:#000000;stroke-width:0.5"
     id="polyline22"
     transform="translate(-212.33,-86.238967)" />
  <polyline
     points="287.25,250.8 287.25,234.85"
     style="fill:none;stroke:#000000;stroke-width:0.5"
     id="polyline24"
     transform="translate(-212.33,-86.238967)" />
  <polyline
     points="287.25,226.88 287.25,210.93"
     style="fill:none;stroke:#000000;stroke-width:0.5"
     id="polyline26"
     transform="translate(-212.33,-86.238967)" />
  <polyline
     points="287.25,202.95 287.25,187.01"
     style="fill:none;stroke:#000000;stroke-width:0.5"
     id="polyline28"
     transform="translate(-212.33,-86.238967)" />
  <polyline
     points="287.25,179.03 287.25,162.7"
     style="fill:none;stroke:#000000;stroke-width:0.5"
     id="polyline30"
     transform="translate(-212.33,-86.238967)" />
  <polyline
     points="297.22,246.2 297.22,135.31"
     style="fill:none;stroke:#000000;stroke-width:0.5"
     id="polyline32"
     transform="translate(-212.33,-86.238967)" />
  <polyline
     points="321.14,124.36 321.14,246.2"
     style="fill:none;stroke:#000000;stroke-width:0.5"
     id="polyline34"
     transform="translate(-212.33,-86.238967)" />
  <polyline
     points="291.24,299.01 291.24,299.03"
     style="fill:none;stroke:#000000;stroke-width:0.5"
     id="polyline36"
     transform="translate(-212.33,-86.238967)" />
  <polyline
     points="291.24,299.01 291.25,299.01"
     style="fill:none;stroke:#000000;stroke-width:0.5"
     id="polyline38"
     transform="translate(-212.33,-86.238967)" />
  <polyline
     points="291.24,299.02 291.24,299.02"
     style="fill:none;stroke:#000000;stroke-width:0.5"
     id="polyline40"
     transform="translate(-212.33,-86.238967)" />
  <polyline
     points="291.24,299.03 291.25,299.03"
     style="fill:none;stroke:#000000;stroke-width:0.5"
     id="polyline42"
     transform="translate(-212.33,-86.238967)" />
  <polyline
     points="291.26,299.02 291.26,299.02 291.25,299.01 291.25,299.01 291.25,299.02 291.25,299.02 291.25,299.02 291.25,299.02 291.25,299.02 291.25,299.02 291.25,299.02 291.26,299.02 291.26,299.02 291.26,299.03 291.26,299.03 291.26,299.03 291.25,299.03 291.25,299.03 291.25,299.03 291.25,299.03"
     style="fill:none;stroke:#000000;stroke-width:0.5"
     id="polyline44"
     transform="translate(-212.33,-86.238967)" />
  <polyline
     points="291.26,299.01 291.26,299.03"
     style="fill:none;stroke:#000000;stroke-width:0.5"
     id="polyline46"
     transform="translate(-212.33,-86.238967)" />
  <polyline
     points="291.26,299.01 291.27,299.01"
     style="fill:none;stroke:#000000;stroke-width:0.5"
     id="polyline48"
     transform="translate(-212.33,-86.238967)" />
  <polyline
     points="291.28,299.02 291.28,299.02 291.28,299.02 291.28,299.01 291.28,299.01 291.27,299.02 291.27,299.02 291.27,299.02 291.27,299.02 291.27,299.02 291.27,299.03 291.27,299.03 291.27,299.03 291.28,299.03 291.28,299.03 291.28,299.03 291.28,299.03 291.28,299.03"
     style="fill:none;stroke:#000000;stroke-width:0.5"
     id="polyline50"
     transform="translate(-212.33,-86.238967)" />
  <polyline
     points="291.29,299.01 291.29,299.02 291.29,299.02 291.29,299.02 291.29,299.02 291.29,299.02 291.29,299.03 291.29,299.03 291.29,299.03 291.29,299.03 291.29,299.03 291.29,299.03 291.29,299.03 291.3,299.03 291.3,299.02 291.3,299.02 291.3,299.02 291.29,299.02 291.29,299.02 291.29,299.01 291.29,299.01"
     style="fill:none;stroke:#000000;stroke-width:0.5"
     id="polyline52"
     transform="translate(-212.33,-86.238967)" />
  <polyline
     points="291.3,299.01 291.3,299.03"
     style="fill:none;stroke:#000000;stroke-width:0.5"
     id="polyline54"
     transform="translate(-212.33,-86.238967)" />
  <polyline
     points="291.3,299.01 291.31,299.01 291.31,299.02 291.31,299.02 291.31,299.02 291.31,299.02 291.31,299.02 291.31,299.03 291.31,299.03 291.31,299.03 291.31,299.03 291.3,299.03"
     style="fill:none;stroke:#000000;stroke-width:0.5"
     id="polyline56"
     transform="translate(-212.33,-86.238967)" />
  <polyline
     points="291.31,299.01 291.31,299.03"
     style="fill:none;stroke:#000000;stroke-width:0.5"
     id="polyline58"
     transform="translate(-212.33,-86.238967)" />
  <polyline
     points="291.31,299.01 291.32,299.01"
     style="fill:none;stroke:#000000;stroke-width:0.5"
     id="polyline60"
     transform="translate(-212.33,-86.238967)" />
  <polyline
     points="291.31,299.02 291.32,299.02"
     style="fill:none;stroke:#000000;stroke-width:0.5"
     id="polyline62"
     transform="translate(-212.33,-86.238967)" />
  <polyline
     points="291.31,299.03 291.32,299.03"
     style="fill:none;stroke:#000000;stroke-width:0.5"
     id="polyline64"
     transform="translate(-212.33,-86.238967)" />
  <polyline
     points="293.73,297.04 322.14,297.04"
     style="fill:none;stroke:#000000;stroke-width:0.5"
     id="polyline66"
     transform="translate(-212.33,-86.238967)" />
  <polyline
     points="291.23,299.03 323.13,299.03"
     style="fill:none;stroke:#000000;stroke-width:0.5"
     id="polyline68"
     transform="translate(-212.33,-86.238967)" />
  <polyline
     points="293.23,296.54 293.23,268.13"
     style="fill:none;stroke:#000000;stroke-width:0.5"
     id="polyline70"
     transform="translate(-212.33,-86.238967)" />
  <polyline
     points="291.23,299.03 291.23,267.13"
     style="fill:none;stroke:#000000;stroke-width:0.5"
     id="polyline72"
     transform="translate(-212.33,-86.238967)" />
  <polyline
     points="293.23,296.54 293.37,296.89 293.73,297.04"
     style="fill:none;stroke:#000000;stroke-width:0.5"
     id="polyline74"
     transform="translate(-212.33,-86.238967)" />
  <polyline
     points="293.23,268.13 293.09,267.63 292.73,267.27 292.23,267.13"
     style="fill:none;stroke:#000000;stroke-width:0.5"
     id="polyline76"
     transform="translate(-212.33,-86.238967)" />
  <polyline
     points="291.23,267.13 292.23,267.13"
     style="fill:none;stroke:#000000;stroke-width:0.5"
     id="polyline78"
     transform="translate(-212.33,-86.238967)" />
  <polyline
     points="323.13,298.03 323,297.54 322.63,297.17 322.14,297.04"
     style="fill:none;stroke:#000000;stroke-width:0.5"
     id="polyline80"
     transform="translate(-212.33,-86.238967)" />
  <polyline
     points="323.13,299.03 323.13,298.03"
     style="fill:none;stroke:#000000;stroke-width:0.5"
     id="polyline82"
     transform="translate(-212.33,-86.238967)" />
  <polyline
     points="322.09,295.04 321.91,292.97 321.37,290.95 320.48,289.06 319.29,287.36 317.81,285.88 316.11,284.68 314.22,283.8 312.2,283.26 310.13,283.08 308.05,283.26 306.03,283.8 304.14,284.68 302.44,285.88 300.96,287.36 299.77,289.06 298.89,290.95 298.35,292.97 298.16,295.04"
     style="fill:none;stroke:#000000;stroke-width:0.5"
     id="polyline84"
     transform="translate(-212.33,-86.238967)" />
  <polyline
     points="322.14,295.04 297.93,295.04"
     style="fill:none;stroke:#000000;stroke-width:0.5"
     id="polyline86"
     transform="translate(-212.33,-86.238967)" />
  <polyline
     points="322.14,297.04 297.93,297.04"
     style="fill:none;stroke:#000000;stroke-width:0.5"
     id="polyline88"
     transform="translate(-212.33,-86.238967)" />
  <polyline
     points="322.14,295.04 322.14,297.04"
     style="fill:none;stroke:#000000;stroke-width:0.5"
     id="polyline90"
     transform="translate(-212.33,-86.238967)" />
  <polyline
     points="297.93,295.04 297.93,297.04"
     style="fill:none;stroke:#000000;stroke-width:0.5"
     id="polyline92"
     transform="translate(-212.33,-86.238967)" />
  <polyline
     points="502.23,283.08 297.22,283.08"
     style="fill:none;stroke:#000000;stroke-width:0.5"
     id="polyline94"
     transform="translate(-212.33,-86.238967)" />
  <polyline
     points="297.22,246.2 297.22,283.08"
     style="fill:none;stroke:#000000;stroke-width:0.5"
     id="polyline96"
     transform="translate(-212.33,-86.238967)" />
  <polyline
     points="502.23,410.67 271.3,410.67 271.3,362.83 502.23,362.83"
     style="fill:none;stroke:#000000;stroke-width:0.5"
     id="polyline98"
     transform="translate(-212.33,-86.238967)" />
  <polyline
     points="502.23,365.56 486.45,365.56"
     style="fill:none;stroke:#000000;stroke-width:0.5"
     id="polyline100"
     transform="translate(-212.33,-86.238967)" />
  <polyline
     points="478.47,365.56 462.52,365.56"
     style="fill:none;stroke:#000000;stroke-width:0.5"
     id="polyline102"
     transform="translate(-212.33,-86.238967)" />
  <polyline
     points="454.55,365.56 438.6,365.56"
     style="fill:none;stroke:#000000;stroke-width:0.5"
     id="polyline104"
     transform="translate(-212.33,-86.238967)" />
  <polyline
     points="430.63,365.56 414.68,365.56"
     style="fill:none;stroke:#000000;stroke-width:0.5"
     id="polyline106"
     transform="translate(-212.33,-86.238967)" />
  <polyline
     points="406.7,365.56 390.75,365.56"
     style="fill:none;stroke:#000000;stroke-width:0.5"
     id="polyline108"
     transform="translate(-212.33,-86.238967)" />
  <polyline
     points="382.78,365.56 366.83,365.56"
     style="fill:none;stroke:#000000;stroke-width:0.5"
     id="polyline110"
     transform="translate(-212.33,-86.238967)" />
  <polyline
     points="358.85,365.56 342.91,365.56"
     style="fill:none;stroke:#000000;stroke-width:0.5"
     id="polyline112"
     transform="translate(-212.33,-86.238967)" />
  <polyline
     points="334.93,365.56 318.98,365.56"
     style="fill:none;stroke:#000000;stroke-width:0.5"
     id="polyline114"
     transform="translate(-212.33,-86.238967)" />
  <polyline
     points="311.01,365.56 295.06,365.56"
     style="fill:none;stroke:#000000;stroke-width:0.5"
     id="polyline116"
     transform="translate(-212.33,-86.238967)" />
  <polyline
     points="287.08,365.56 271.3,365.56"
     style="fill:none;stroke:#000000;stroke-width:0.5"
     id="polyline118"
     transform="translate(-212.33,-86.238967)" />
  <polyline
     points="502.23,407.94 486.45,407.94"
     style="fill:none;stroke:#000000;stroke-width:0.5"
     id="polyline120"
     transform="translate(-212.33,-86.238967)" />
  <polyline
     points="478.47,407.94 462.52,407.94"
     style="fill:none;stroke:#000000;stroke-width:0.5"
     id="polyline122"
     transform="translate(-212.33,-86.238967)" />
  <polyline
     points="454.55,407.94 438.6,407.94"
     style="fill:none;stroke:#000000;stroke-width:0.5"
     id="polyline124"
     transform="translate(-212.33,-86.238967)" />
  <polyline
     points="430.63,407.94 414.68,407.94"
     style="fill:none;stroke:#000000;stroke-width:0.5"
     id="polyline126"
     transform="translate(-212.33,-86.238967)" />
  <polyline
     points="406.7,407.94 390.75,407.94"
     style="fill:none;stroke:#000000;stroke-width:0.5"
     id="polyline128"
     transform="translate(-212.33,-86.238967)" />
  <polyline
     points="382.78,407.94 366.83,407.94"
     style="fill:none;stroke:#000000;stroke-width:0.5"
     id="polyline130"
     transform="translate(-212.33,-86.238967)" />
  <polyline
     points="358.85,407.94 342.91,407.94"
     style="fill:none;stroke:#000000;stroke-width:0.5"
     id="polyline132"
     transform="translate(-212.33,-86.238967)" />
  <polyline
     points="334.93,407.94 318.98,407.94"
     style="fill:none;stroke:#000000;stroke-width:0.5"
     id="polyline134"
     transform="translate(-212.33,-86.238967)" />
  <polyline
     points="311.01,407.94 295.06,407.94"
     style="fill:none;stroke:#000000;stroke-width:0.5"
     id="polyline136"
     transform="translate(-212.33,-86.238967)" />
  <polyline
     points="287.08,407.94 271.3,407.94"
     style="fill:none;stroke:#000000;stroke-width:0.5"
     id="polyline138"
     transform="translate(-212.33,-86.238967)" />
  <polyline
     points="271.3,356.45 269.38,361.63 267.82,366.94 266.63,372.34 265.82,377.8 265.39,383.31 265.34,388.84 265.68,394.36 266.4,399.84 267.49,405.26 268.96,410.59 270.8,415.8 272.99,420.88 275.52,425.79 278.4,430.51 281.59,435.02 285.08,439.31 288.87,443.33 292.92,447.09 297.23,450.56 301.76,453.72 306.51,456.56 311.43,459.06 316.52,461.22 321.75,463.01 327.09,464.45 332.52,465.5 338,466.18 343.52,466.48 349.05,466.4 354.56,465.93 360.02,465.08 365.41,463.86 370.7,462.26 375.87,460.31 380.89,457.99 385.74,455.34 390.39,452.36 394.83,449.06 399.03,445.46 402.97,441.58 406.62,437.44 409.99,433.05 413.04,428.45 415.76,423.64 418.15,418.65"
     style="fill:none;stroke:#000000;stroke-width:0.5"
     id="polyline140"
     transform="translate(-212.33,-86.238967)" />
  <polyline
     points="396.9,410.67 396.9,418.65 436.77,418.65 476.64,418.65 476.64,410.67"
     style="fill:none;stroke:#000000;stroke-width:0.5"
     id="polyline142"
     transform="translate(-212.33,-86.238967)" />
  <polyline
     points="418.15,418.65 420.21,413.44 421.9,408.09 422.66,404.93"
     style="fill:none;stroke:#000000;stroke-width:0.5"
     id="polyline144"
     transform="translate(-212.33,-86.238967)" />
  <polyline
     points="424.13,397.1 424.66,391.54 424.8,385.93 424.59,381.18"
     style="fill:none;stroke:#000000;stroke-width:0.5"
     id="polyline146"
     transform="translate(-212.33,-86.238967)" />
  <polyline
     points="423.62,373.27 422.87,369.26 421.44,363.84 419.65,358.53 419.39,357.92"
     style="fill:none;stroke:#000000;stroke-width:0.5"
     id="polyline148"
     transform="translate(-212.33,-86.238967)" />
  <polyline
     points="416.12,350.66 414.96,348.36 412.09,343.54 408.89,338.94 407.53,337.26"
     style="fill:none;stroke:#000000;stroke-width:0.5"
     id="polyline150"
     transform="translate(-212.33,-86.238967)" />
  <polyline
     points="402.29,331.25 401.56,330.47 397.46,326.64 393.11,323.11 390.11,321"
     style="fill:none;stroke:#000000;stroke-width:0.5"
     id="polyline152"
     transform="translate(-212.33,-86.238967)" />
  <polyline
     points="383.33,316.81 378.72,314.46 373.56,312.27 368.67,310.6"
     style="fill:none;stroke:#000000;stroke-width:0.5"
     id="polyline154"
     transform="translate(-212.33,-86.238967)" />
  <polyline
     points="360.94,308.65 357.34,307.96 351.78,307.29 346.18,307.01 345.11,307.04"
     style="fill:none;stroke:#000000;stroke-width:0.5"
     id="polyline156"
     transform="translate(-212.33,-86.238967)" />
  <polyline
     points="337.15,307.45 334.99,307.64 329.46,308.55 324.01,309.84 321.55,310.6"
     style="fill:none;stroke:#000000;stroke-width:0.5"
     id="polyline158"
     transform="translate(-212.33,-86.238967)" />
  <polyline
     points="314.05,313.31 313.44,313.54 308.37,315.95 303.49,318.7 300.08,320.95"
     style="fill:none;stroke:#000000;stroke-width:0.5"
     id="polyline160"
     transform="translate(-212.33,-86.238967)" />
  <polyline
     points="293.73,325.76 290.17,328.91 286.24,332.91 282.61,337.16"
     style="fill:none;stroke:#000000;stroke-width:0.5"
     id="polyline162"
     transform="translate(-212.33,-86.238967)" />
  <polyline
     points="278.01,343.67 276.27,346.41 273.61,351.34 271.3,356.45"
     style="fill:none;stroke:#000000;stroke-width:0.5"
     id="polyline164"
     transform="translate(-212.33,-86.238967)" />
  <polyline
     points="345.06,291.06 345.06,362.83"
     style="fill:none;stroke:#000000;stroke-width:0.5"
     id="polyline166"
     transform="translate(-212.33,-86.238967)" />
  <polyline
     points="345.06,378.78 345.06,394.73"
     style="fill:none;stroke:#000000;stroke-width:0.5"
     id="polyline168"
     transform="translate(-212.33,-86.238967)" />
  <polyline
     points="345.06,410.67 345.06,482.45"
     style="fill:none;stroke:#000000;stroke-width:0.5"
     id="polyline170"
     transform="translate(-212.33,-86.238967)" />
  <polyline
     points="440.76,386.75 368.99,386.75"
     style="fill:none;stroke:#000000;stroke-width:0.5"
     id="polyline172"
     transform="translate(-212.33,-86.238967)" />
  <polyline
     points="353.04,386.75 337.09,386.75"
     style="fill:none;stroke:#000000;stroke-width:0.5"
     id="polyline174"
     transform="translate(-212.33,-86.238967)" />
  <polyline
     points="321.14,386.75 249.37,386.75"
     style="fill:none;stroke:#000000;stroke-width:0.5"
     id="polyline176"
     transform="translate(-212.33,-86.238967)" />
  <polyline
     points="222.33,138.05 266.31,138.05 281.27,179.13 311.17,96.97 326.12,138.05 370.11,138.05"
     style="fill:none;stroke:#000000;stroke-width:0.5"
     id="polyline178"
     transform="translate(-212.33,-86.238967)" />
  <polyline
     points="345.06,228.37 345.06,164.82"
     style="fill:none;stroke:#000000;stroke-width:0.5"
     id="polyline180"
     transform="translate(-212.33,-86.238967)" />
  <polyline
     points="271.3,209.32 271.3,164.82"
     style="fill:none;stroke:#000000;stroke-width:0.5"
     id="polyline182"
     transform="translate(-212.33,-86.238967)" />
  <polyline
     points="293.73,194.73 322.63,194.73"
     style="fill:none;stroke:#000000;stroke-width:0.5"
     id="polyline184"
     transform="translate(-212.33,-86.238967)" />
  <polyline
     points="345.06,194.73 376.75,194.73"
     style="fill:none;stroke:#000000;stroke-width:0.5"
     id="polyline186"
     transform="translate(-212.33,-86.238967)" />
  <path
     d="m 81.4,104.75103 -22.43,3.74 v 0 l 22.43,3.74 z"
     fill-rule="evenodd"
     fill="#000000"
     id="path188" />
  <path
     d="m 110.3,104.75103 22.43,3.74 v 0 l -22.43,3.74 z"
     fill-rule="evenodd"
     fill="#000000"
     id="path190" />
  <polyline
     points="386.57,204.07 399.03,185.38"
     style="fill:none;stroke:#000000;stroke-width:0.5"
     id="polyline192"
     transform="translate(-212.33,-86.238967)" />
  <polyline
     points="386.57,185.38 399.03,204.07"
     style="fill:none;stroke:#000000;stroke-width:0.5"
     id="polyline194"
     transform="translate(-212.33,-86.238967)" />
  <polyline
     points="345.06,482.45 345.06,482.45"
     style="fill:none;stroke:#000000;stroke-width:0.5"
     id="polyline196"
     transform="translate(-212.33,-86.238967)" />
  <polyline
     points="271.3,299.03 271.3,299.03"
     style="fill:none;stroke:#000000;stroke-width:0.5"
     id="polyline198"
     transform="translate(-212.33,-86.238967)" />
  <polyline
     points="271.3,194.73 271.3,194.73"
     style="fill:none;stroke:#000000;stroke-width:0.5"
     id="polyline200"
     transform="translate(-212.33,-86.238967)" />
  <polyline
     points="502.23,440.58 502.23,358.34 543.31,343.39 461.15,313.49 502.23,298.53 502.23,216.3"
     style="fill:none;stroke:#000000;stroke-width:0.5"
     id="polyline202"
     transform="translate(-212.33,-86.238967)" />
</svg>
