<?xml version="1.0" encoding="UTF-8" standalone="no"?>
<svg
   xmlns:dc="http://purl.org/dc/elements/1.1/"
   xmlns:cc="http://creativecommons.org/ns#"
   xmlns:rdf="http://www.w3.org/1999/02/22-rdf-syntax-ns#"
   xmlns:svg="http://www.w3.org/2000/svg"
   xmlns="http://www.w3.org/2000/svg"
   xmlns:sodipodi="http://sodipodi.sourceforge.net/DTD/sodipodi-0.dtd"
   xmlns:inkscape="http://www.inkscape.org/namespaces/inkscape"
   width="551.47388"
   height="425.08847"
   viewBox="0 0 551.47388 425.08847"
   version="1.1"
   id="svg1558"
   sodipodi:docname="sheave-offset-1.svg"
   inkscape:version="1.0.1 (3bc2e813f5, 2020-09-07)">
  <metadata
     id="metadata1564">
    <rdf:RDF>
      <cc:Work
         rdf:about="">
        <dc:format>image/svg+xml</dc:format>
        <dc:type
           rdf:resource="http://purl.org/dc/dcmitype/StillImage" />
        <dc:title>Produce by Acme CAD Converter</dc:title>
      </cc:Work>
    </rdf:RDF>
  </metadata>
  <defs
     id="defs1562" />
  <sodipodi:namedview
     pagecolor="#ffffff"
     bordercolor="#666666"
     borderopacity="1"
     objecttolerance="10"
     gridtolerance="10"
     guidetolerance="10"
     inkscape:pageopacity="0"
     inkscape:pageshadow="2"
     inkscape:window-width="1858"
     inkscape:window-height="1057"
     id="namedview1560"
     showgrid="false"
     fit-margin-top="10"
     lock-margins="false"
     fit-margin-left="10"
     fit-margin-right="10"
     fit-margin-bottom="10"
     inkscape:zoom="1.335"
     inkscape:cx="177.58095"
     inkscape:cy="112.29066"
     inkscape:window-x="-8"
     inkscape:window-y="-8"
     inkscape:window-maximized="1"
     inkscape:current-layer="svg1558" />
  <title
     id="title788">Produce by Acme CAD Converter</title>
  <desc
     id="desc790">Produce by Acme CAD Converter</desc>
  <polyline
     points="209.6,301.45 209.78,300.43 210.3,299.53 211.09,298.87 212.07,298.51 213.1,298.51 214.07,298.87 214.87,299.53 215.38,300.43 215.56,301.45 215.38,302.47 214.87,303.36 214.07,304.03 213.1,304.38 212.07,304.38 211.09,304.03 210.3,303.36 209.78,302.47 209.6,301.45"
     style="fill:none;stroke:#000000;stroke-width:0.5"
     id="polyline792"
     transform="translate(-141.04,-63.84134)" />
  <polyline
     points="192.58,301.45 192.76,300.43 193.28,299.53 194.07,298.87 195.04,298.51 196.08,298.51 197.05,298.87 197.84,299.53 198.36,300.43 198.54,301.45 198.36,302.47 197.84,303.36 197.05,304.03 196.08,304.38 195.04,304.38 194.07,304.03 193.28,303.36 192.76,302.47 192.58,301.45"
     style="fill:none;stroke:#000000;stroke-width:0.5"
     id="polyline794"
     transform="translate(-141.04,-63.84134)" />
  <polyline
     points="226.63,301.45 226.81,300.43 227.33,299.53 228.12,298.87 229.09,298.51 230.13,298.51 231.1,298.87 231.89,299.53 232.41,300.43 232.59,301.45 232.41,302.47 231.89,303.36 231.1,304.03 230.13,304.38 229.09,304.38 228.12,304.03 227.33,303.36 226.81,302.47 226.63,301.45"
     style="fill:none;stroke:#000000;stroke-width:0.5"
     id="polyline796"
     transform="translate(-141.04,-63.84134)" />
  <polyline
     points="185.34,400.2 287.5,260.59"
     style="fill:none;stroke:#000000;stroke-width:0.5"
     id="polyline798"
     transform="translate(-141.04,-63.84134)" />
  <polyline
     points="151.29,400.2 185.34,400.2"
     style="fill:none;stroke:#000000;stroke-width:0.5"
     id="polyline800"
     transform="translate(-141.04,-63.84134)" />
  <polyline
     points="151.29,260.59 151.29,400.2"
     style="fill:none;stroke:#000000;stroke-width:0.5"
     id="polyline802"
     transform="translate(-141.04,-63.84134)" />
  <polyline
     points="666.66,232.03 661.18,250.17"
     style="fill:none;stroke:#000000;stroke-width:0.5"
     id="polyline804"
     transform="translate(-141.04,-63.84134)" />
  <polyline
     points="661.18,250.17 660.2,253.42"
     style="fill:none;stroke:#000000;stroke-width:0.5"
     id="polyline806"
     transform="translate(-141.04,-63.84134)" />
  <polyline
     points="660.2,253.42 659.01,257.36"
     style="fill:none;stroke:#000000;stroke-width:0.5"
     id="polyline808"
     transform="translate(-141.04,-63.84134)" />
  <polyline
     points="658.52,258.98 659.01,257.36"
     style="fill:none;stroke:#000000;stroke-width:0.5"
     id="polyline810"
     transform="translate(-141.04,-63.84134)" />
  <polyline
     points="658.52,258.98 658.04,260.59"
     style="fill:none;stroke:#000000;stroke-width:0.5"
     id="polyline812"
     transform="translate(-141.04,-63.84134)" />
  <polyline
     points="675.01,199.84 666.66,232.03"
     style="fill:none;stroke:#000000;stroke-width:0.5"
     id="polyline814"
     transform="translate(-141.04,-63.84134)" />
  <polyline
     points="682.27,167.64 675.01,199.84"
     style="fill:none;stroke:#000000;stroke-width:0.5"
     id="polyline816"
     transform="translate(-141.04,-63.84134)" />
  <polyline
     points="680.12,162.04 682.27,167.64"
     style="fill:none;stroke:#000000;stroke-width:0.5"
     id="polyline818"
     transform="translate(-141.04,-63.84134)" />
  <polyline
     points="676.11,151.62 676.73,153.22"
     style="fill:none;stroke:#000000;stroke-width:0.5"
     id="polyline820"
     transform="translate(-141.04,-63.84134)" />
  <polyline
     points="677.35,154.85 676.73,153.22"
     style="fill:none;stroke:#000000;stroke-width:0.5"
     id="polyline822"
     transform="translate(-141.04,-63.84134)" />
  <polyline
     points="677.35,154.85 678.87,158.79"
     style="fill:none;stroke:#000000;stroke-width:0.5"
     id="polyline824"
     transform="translate(-141.04,-63.84134)" />
  <polyline
     points="678.87,158.79 680.12,162.04"
     style="fill:none;stroke:#000000;stroke-width:0.5"
     id="polyline826"
     transform="translate(-141.04,-63.84134)" />
  <polyline
     points="151.29,250.17 151.29,162.04"
     style="fill:none;stroke:#000000;stroke-width:0.5"
     id="polyline828"
     transform="translate(-141.04,-63.84134)" />
  <polyline
     points="151.29,162.04 151.29,158.79"
     style="fill:none;stroke:#000000;stroke-width:0.5"
     id="polyline830"
     transform="translate(-141.04,-63.84134)" />
  <polyline
     points="151.29,158.79 151.29,154.85"
     style="fill:none;stroke:#000000;stroke-width:0.5"
     id="polyline832"
     transform="translate(-141.04,-63.84134)" />
  <polyline
     points="151.29,153.22 151.29,154.85"
     style="fill:none;stroke:#000000;stroke-width:0.5"
     id="polyline834"
     transform="translate(-141.04,-63.84134)" />
  <polyline
     points="676.11,151.62 151.29,151.62"
     style="fill:none;stroke:#000000;stroke-width:0.5"
     id="polyline836"
     transform="translate(-141.04,-63.84134)" />
  <polyline
     points="151.29,153.22 151.29,151.62"
     style="fill:none;stroke:#000000;stroke-width:0.5"
     id="polyline838"
     transform="translate(-141.04,-63.84134)" />
  <polyline
     points="151.29,253.42 151.29,250.17"
     style="fill:none;stroke:#000000;stroke-width:0.5"
     id="polyline840"
     transform="translate(-141.04,-63.84134)" />
  <polyline
     points="151.29,257.36 151.29,253.42"
     style="fill:none;stroke:#000000;stroke-width:0.5"
     id="polyline842"
     transform="translate(-141.04,-63.84134)" />
  <polyline
     points="151.29,257.36 151.29,258.98"
     style="fill:none;stroke:#000000;stroke-width:0.5"
     id="polyline844"
     transform="translate(-141.04,-63.84134)" />
  <polyline
     points="151.29,260.59 151.29,258.98"
     style="fill:none;stroke:#000000;stroke-width:0.5"
     id="polyline846"
     transform="translate(-141.04,-63.84134)" />
  <polyline
     points="658.04,260.59 151.29,260.59"
     style="fill:none;stroke:#000000;stroke-width:0.5"
     id="polyline848"
     transform="translate(-141.04,-63.84134)" />
  <polyline
     points="415.19,254.37 416.63,254.41 417.96,254.5 419.11,254.64 419.99,254.84 420.54,255.06 420.73,255.3 420.54,255.54 419.99,255.76 419.11,255.95 417.96,256.1 416.63,256.19 415.19,256.22 413.76,256.19 412.43,256.1 411.28,255.95 410.4,255.76 409.85,255.54 409.66,255.3 409.85,255.06 410.4,254.84 411.28,254.64 412.43,254.5 413.76,254.41 415.19,254.37"
     style="fill:none;stroke:#000000;stroke-width:0.5"
     id="polyline856"
     transform="translate(-141.04,-63.84134)" />
  <polyline
     points="551.4,254.37 552.83,254.41 554.17,254.5 555.31,254.64 556.19,254.84 556.75,255.06 556.93,255.3 556.75,255.54 556.19,255.76 555.31,255.95 554.17,256.1 552.83,256.19 551.4,256.22 549.97,256.19 548.63,256.1 547.49,255.95 546.61,255.76 546.06,255.54 545.87,255.3 546.06,255.06 546.61,254.84 547.49,254.64 548.63,254.5 549.97,254.41 551.4,254.37"
     style="fill:none;stroke:#000000;stroke-width:0.5"
     id="polyline858"
     transform="translate(-141.04,-63.84134)" />
  <polyline
     points="159.52,165.66 159.65,165.66 159.77,165.66 159.9,165.66 160.02,165.66 160.15,165.66 160.27,165.66 160.39,165.66 160.51,165.66 160.63,165.66 160.74,165.66 160.86,165.66 160.98,165.66 161.21,165.66 161.43,165.66 161.66,165.66 161.88,165.66 162.1,165.66 162.33,165.66 162.77,165.66 163.21,165.66"
     style="fill:none;stroke:#000000;stroke-width:0.5"
     id="polyline860"
     transform="translate(-141.04,-63.84134)" />
  <polyline
     points="157.68,168.86 157.9,168.47 158.12,168.09 158.23,167.9 158.34,167.71 158.45,167.51 158.57,167.32 158.68,167.12 158.79,166.92 158.85,166.82 158.91,166.72 158.97,166.62 159.03,166.52 159.09,166.41 159.15,166.31 159.21,166.2 159.27,166.1 159.33,165.99 159.39,165.88 159.46,165.77 159.52,165.66"
     style="fill:none;stroke:#000000;stroke-width:0.5"
     id="polyline862"
     transform="translate(-141.04,-63.84134)" />
  <polyline
     points="163.21,165.66 161.88,165.8 160.61,166.22 159.45,166.88 158.46,167.78 157.68,168.86"
     style="fill:none;stroke:#000000;stroke-width:0.5"
     id="polyline864"
     transform="translate(-141.04,-63.84134)" />
  <polyline
     points="157.68,175.25 157.46,174.86 157.23,174.48 157.12,174.29 157.01,174.1 156.9,173.9 156.79,173.71 156.68,173.51 156.56,173.31 156.5,173.21 156.44,173.11 156.39,173.01 156.33,172.91 156.27,172.8 156.21,172.7 156.15,172.59 156.08,172.49 156.02,172.38 155.96,172.27 155.9,172.16 155.83,172.05"
     style="fill:none;stroke:#000000;stroke-width:0.5"
     id="polyline866"
     transform="translate(-141.04,-63.84134)" />
  <polyline
     points="157.68,168.86 157.13,170.08 156.86,171.38 156.86,172.72 157.13,174.03 157.68,175.25"
     style="fill:none;stroke:#000000;stroke-width:0.5"
     id="polyline868"
     transform="translate(-141.04,-63.84134)" />
  <polyline
     points="155.83,172.05 155.9,171.94 155.96,171.83 156.02,171.72 156.08,171.62 156.15,171.51 156.21,171.41 156.27,171.3 156.33,171.2 156.39,171.1 156.44,170.99 156.5,170.89 156.56,170.79 156.68,170.59 156.79,170.4 156.9,170.2 157.01,170.01 157.12,169.81 157.23,169.62 157.46,169.24 157.68,168.86"
     style="fill:none;stroke:#000000;stroke-width:0.5"
     id="polyline870"
     transform="translate(-141.04,-63.84134)" />
  <polyline
     points="166.9,165.66 166.96,165.77 167.02,165.88 167.09,165.99 167.15,166.1 167.21,166.2 167.27,166.31 167.33,166.41 167.39,166.52 167.45,166.62 167.51,166.72 167.57,166.82 167.62,166.92 167.74,167.12 167.85,167.32 167.97,167.51 168.08,167.71 168.19,167.9 168.3,168.09 168.52,168.47 168.74,168.86"
     style="fill:none;stroke:#000000;stroke-width:0.5"
     id="polyline872"
     transform="translate(-141.04,-63.84134)" />
  <polyline
     points="163.21,165.66 163.65,165.66 164.09,165.66 164.31,165.66 164.54,165.66 164.76,165.66 164.99,165.66 165.21,165.66 165.44,165.66 165.56,165.66 165.68,165.66 165.79,165.66 165.91,165.66 166.03,165.66 166.15,165.66 166.27,165.66 166.4,165.66 166.52,165.66 166.64,165.66 166.77,165.66 166.9,165.66"
     style="fill:none;stroke:#000000;stroke-width:0.5"
     id="polyline874"
     transform="translate(-141.04,-63.84134)" />
  <polyline
     points="168.74,168.86 167.96,167.78 166.96,166.88 165.81,166.22 164.54,165.8 163.21,165.66"
     style="fill:none;stroke:#000000;stroke-width:0.5"
     id="polyline876"
     transform="translate(-141.04,-63.84134)" />
  <polyline
     points="170.59,172.05 170.52,172.16 170.46,172.27 170.4,172.38 170.33,172.49 170.27,172.59 170.21,172.7 170.15,172.8 170.09,172.91 170.03,173.01 169.97,173.11 169.92,173.21 169.86,173.31 169.74,173.51 169.63,173.71 169.52,173.9 169.41,174.1 169.29,174.29 169.18,174.48 168.96,174.86 168.74,175.25"
     style="fill:none;stroke:#000000;stroke-width:0.5"
     id="polyline878"
     transform="translate(-141.04,-63.84134)" />
  <polyline
     points="168.74,168.86 168.96,169.24 169.18,169.62 169.29,169.81 169.41,170.01 169.52,170.2 169.63,170.4 169.74,170.59 169.86,170.79 169.92,170.89 169.97,170.99 170.03,171.1 170.09,171.2 170.15,171.3 170.21,171.41 170.27,171.51 170.33,171.62 170.4,171.72 170.46,171.83 170.52,171.94 170.59,172.05"
     style="fill:none;stroke:#000000;stroke-width:0.5"
     id="polyline880"
     transform="translate(-141.04,-63.84134)" />
  <polyline
     points="168.74,175.25 169.28,174.03 169.56,172.72 169.56,171.38 169.28,170.08 168.74,168.86"
     style="fill:none;stroke:#000000;stroke-width:0.5"
     id="polyline882"
     transform="translate(-141.04,-63.84134)" />
  <polyline
     points="163.21,178.44 162.77,178.44 162.33,178.44 162.1,178.44 161.88,178.44 161.66,178.44 161.43,178.44 161.21,178.44 160.98,178.44 160.86,178.44 160.74,178.44 160.63,178.44 160.51,178.44 160.39,178.44 160.27,178.44 160.15,178.44 160.02,178.44 159.9,178.44 159.77,178.44 159.65,178.44 159.52,178.44"
     style="fill:none;stroke:#000000;stroke-width:0.5"
     id="polyline884"
     transform="translate(-141.04,-63.84134)" />
  <polyline
     points="157.68,175.25 158.46,176.33 159.45,177.22 160.61,177.89 161.88,178.3 163.21,178.44"
     style="fill:none;stroke:#000000;stroke-width:0.5"
     id="polyline886"
     transform="translate(-141.04,-63.84134)" />
  <polyline
     points="159.52,178.44 159.46,178.33 159.39,178.22 159.33,178.11 159.27,178 159.21,177.9 159.15,177.79 159.09,177.69 159.03,177.59 158.97,177.48 158.91,177.38 158.85,177.28 158.79,177.18 158.68,176.98 158.57,176.78 158.45,176.59 158.34,176.4 158.23,176.2 158.12,176.01 157.9,175.63 157.68,175.25"
     style="fill:none;stroke:#000000;stroke-width:0.5"
     id="polyline888"
     transform="translate(-141.04,-63.84134)" />
  <polyline
     points="168.74,175.25 168.52,175.63 168.3,176.01 168.19,176.2 168.08,176.4 167.97,176.59 167.85,176.78 167.74,176.98 167.62,177.18 167.57,177.28 167.51,177.38 167.45,177.48 167.39,177.59 167.33,177.69 167.27,177.79 167.21,177.9 167.15,178 167.09,178.11 167.02,178.22 166.96,178.33 166.9,178.44"
     style="fill:none;stroke:#000000;stroke-width:0.5"
     id="polyline890"
     transform="translate(-141.04,-63.84134)" />
  <polyline
     points="163.21,178.44 164.54,178.3 165.81,177.89 166.96,177.22 167.96,176.33 168.74,175.25"
     style="fill:none;stroke:#000000;stroke-width:0.5"
     id="polyline892"
     transform="translate(-141.04,-63.84134)" />
  <polyline
     points="166.9,178.44 166.77,178.44 166.64,178.44 166.52,178.44 166.4,178.44 166.27,178.44 166.15,178.44 166.03,178.44 165.91,178.44 165.79,178.44 165.68,178.44 165.56,178.44 165.44,178.44 165.21,178.44 164.99,178.44 164.76,178.44 164.54,178.44 164.31,178.44 164.09,178.44 163.65,178.44 163.21,178.44"
     style="fill:none;stroke:#000000;stroke-width:0.5"
     id="polyline894"
     transform="translate(-141.04,-63.84134)" />
  <polyline
     points="159.52,230.36 159.65,230.36 159.77,230.36 159.9,230.36 160.02,230.36 160.15,230.36 160.27,230.36 160.39,230.36 160.51,230.36 160.63,230.36 160.74,230.36 160.86,230.36 160.98,230.36 161.21,230.36 161.43,230.36 161.66,230.36 161.88,230.36 162.1,230.36 162.33,230.36 162.77,230.36 163.21,230.36"
     style="fill:none;stroke:#000000;stroke-width:0.5"
     id="polyline896"
     transform="translate(-141.04,-63.84134)" />
  <polyline
     points="157.68,233.56 157.9,233.17 158.12,232.79 158.23,232.6 158.34,232.41 158.45,232.21 158.57,232.02 158.68,231.82 158.79,231.62 158.85,231.52 158.91,231.42 158.97,231.32 159.03,231.22 159.09,231.11 159.15,231.01 159.21,230.9 159.27,230.8 159.33,230.69 159.39,230.58 159.46,230.47 159.52,230.36"
     style="fill:none;stroke:#000000;stroke-width:0.5"
     id="polyline898"
     transform="translate(-141.04,-63.84134)" />
  <polyline
     points="163.21,230.36 161.88,230.5 160.61,230.91 159.45,231.58 158.46,232.48 157.68,233.56"
     style="fill:none;stroke:#000000;stroke-width:0.5"
     id="polyline900"
     transform="translate(-141.04,-63.84134)" />
  <polyline
     points="157.68,239.94 157.46,239.56 157.23,239.18 157.12,238.99 157.01,238.79 156.9,238.6 156.79,238.41 156.68,238.21 156.56,238.01 156.5,237.91 156.44,237.81 156.39,237.71 156.33,237.6 156.27,237.5 156.21,237.4 156.15,237.29 156.08,237.18 156.02,237.08 155.96,236.97 155.9,236.86 155.83,236.75"
     style="fill:none;stroke:#000000;stroke-width:0.5"
     id="polyline902"
     transform="translate(-141.04,-63.84134)" />
  <polyline
     points="157.68,233.56 157.13,234.78 156.86,236.08 156.86,237.42 157.13,238.72 157.68,239.94"
     style="fill:none;stroke:#000000;stroke-width:0.5"
     id="polyline904"
     transform="translate(-141.04,-63.84134)" />
  <polyline
     points="155.83,236.75 155.9,236.64 155.96,236.53 156.02,236.42 156.08,236.32 156.15,236.21 156.21,236.1 156.27,236 156.33,235.9 156.39,235.79 156.44,235.69 156.5,235.59 156.56,235.49 156.68,235.29 156.79,235.09 156.9,234.9 157.01,234.71 157.12,234.51 157.23,234.32 157.46,233.94 157.68,233.56"
     style="fill:none;stroke:#000000;stroke-width:0.5"
     id="polyline906"
     transform="translate(-141.04,-63.84134)" />
  <polyline
     points="166.9,230.36 166.96,230.47 167.02,230.58 167.09,230.69 167.15,230.8 167.21,230.9 167.27,231.01 167.33,231.11 167.39,231.22 167.45,231.32 167.51,231.42 167.57,231.52 167.62,231.62 167.74,231.82 167.85,232.02 167.97,232.21 168.08,232.41 168.19,232.6 168.3,232.79 168.52,233.17 168.74,233.56"
     style="fill:none;stroke:#000000;stroke-width:0.5"
     id="polyline908"
     transform="translate(-141.04,-63.84134)" />
  <polyline
     points="163.21,230.36 163.65,230.36 164.09,230.36 164.31,230.36 164.54,230.36 164.76,230.36 164.99,230.36 165.21,230.36 165.44,230.36 165.56,230.36 165.68,230.36 165.79,230.36 165.91,230.36 166.03,230.36 166.15,230.36 166.27,230.36 166.4,230.36 166.52,230.36 166.64,230.36 166.77,230.36 166.9,230.36"
     style="fill:none;stroke:#000000;stroke-width:0.5"
     id="polyline910"
     transform="translate(-141.04,-63.84134)" />
  <polyline
     points="168.74,233.56 167.96,232.48 166.96,231.58 165.81,230.91 164.54,230.5 163.21,230.36"
     style="fill:none;stroke:#000000;stroke-width:0.5"
     id="polyline912"
     transform="translate(-141.04,-63.84134)" />
  <polyline
     points="170.59,236.75 170.52,236.86 170.46,236.97 170.4,237.08 170.33,237.18 170.27,237.29 170.21,237.4 170.15,237.5 170.09,237.6 170.03,237.71 169.97,237.81 169.92,237.91 169.86,238.01 169.74,238.21 169.63,238.41 169.52,238.6 169.41,238.79 169.29,238.99 169.18,239.18 168.96,239.56 168.74,239.94"
     style="fill:none;stroke:#000000;stroke-width:0.5"
     id="polyline914"
     transform="translate(-141.04,-63.84134)" />
  <polyline
     points="168.74,233.56 168.96,233.94 169.18,234.32 169.29,234.51 169.41,234.71 169.52,234.9 169.63,235.09 169.74,235.29 169.86,235.49 169.92,235.59 169.97,235.69 170.03,235.79 170.09,235.9 170.15,236 170.21,236.1 170.27,236.21 170.33,236.32 170.4,236.42 170.46,236.53 170.52,236.64 170.59,236.75"
     style="fill:none;stroke:#000000;stroke-width:0.5"
     id="polyline916"
     transform="translate(-141.04,-63.84134)" />
  <polyline
     points="168.74,239.94 169.28,238.72 169.56,237.42 169.56,236.08 169.28,234.78 168.74,233.56"
     style="fill:none;stroke:#000000;stroke-width:0.5"
     id="polyline918"
     transform="translate(-141.04,-63.84134)" />
  <polyline
     points="163.21,243.14 162.77,243.14 162.33,243.14 162.1,243.14 161.88,243.14 161.66,243.14 161.43,243.14 161.21,243.14 160.98,243.14 160.86,243.14 160.74,243.14 160.63,243.14 160.51,243.14 160.39,243.14 160.27,243.14 160.15,243.14 160.02,243.14 159.9,243.14 159.77,243.14 159.65,243.14 159.52,243.14"
     style="fill:none;stroke:#000000;stroke-width:0.5"
     id="polyline920"
     transform="translate(-141.04,-63.84134)" />
  <polyline
     points="157.68,239.94 158.46,241.02 159.45,241.92 160.61,242.59 161.88,243 163.21,243.14"
     style="fill:none;stroke:#000000;stroke-width:0.5"
     id="polyline922"
     transform="translate(-141.04,-63.84134)" />
  <polyline
     points="159.52,243.14 159.46,243.03 159.39,242.92 159.33,242.81 159.27,242.7 159.21,242.6 159.15,242.49 159.09,242.39 159.03,242.28 158.97,242.18 158.91,242.08 158.85,241.98 158.79,241.88 158.68,241.68 158.57,241.48 158.45,241.29 158.34,241.09 158.23,240.9 158.12,240.71 157.9,240.33 157.68,239.94"
     style="fill:none;stroke:#000000;stroke-width:0.5"
     id="polyline924"
     transform="translate(-141.04,-63.84134)" />
  <polyline
     points="168.74,239.94 168.52,240.33 168.3,240.71 168.19,240.9 168.08,241.09 167.97,241.29 167.85,241.48 167.74,241.68 167.62,241.88 167.57,241.98 167.51,242.08 167.45,242.18 167.39,242.28 167.33,242.39 167.27,242.49 167.21,242.6 167.15,242.7 167.09,242.81 167.02,242.92 166.96,243.03 166.9,243.14"
     style="fill:none;stroke:#000000;stroke-width:0.5"
     id="polyline926"
     transform="translate(-141.04,-63.84134)" />
  <polyline
     points="163.21,243.14 164.54,243 165.81,242.59 166.96,241.92 167.96,241.02 168.74,239.94"
     style="fill:none;stroke:#000000;stroke-width:0.5"
     id="polyline928"
     transform="translate(-141.04,-63.84134)" />
  <polyline
     points="166.9,243.14 166.77,243.14 166.64,243.14 166.52,243.14 166.4,243.14 166.27,243.14 166.15,243.14 166.03,243.14 165.91,243.14 165.79,243.14 165.68,243.14 165.56,243.14 165.44,243.14 165.21,243.14 164.99,243.14 164.76,243.14 164.54,243.14 164.31,243.14 164.09,243.14 163.65,243.14 163.21,243.14"
     style="fill:none;stroke:#000000;stroke-width:0.5"
     id="polyline930"
     transform="translate(-141.04,-63.84134)" />
  <polyline
     points="268.49,165.66 268.61,165.66 268.74,165.66 268.87,165.66 268.99,165.66 269.11,165.66 269.23,165.66 269.35,165.66 269.47,165.66 269.59,165.66 269.71,165.66 269.83,165.66 269.94,165.66 270.17,165.66 270.4,165.66 270.62,165.66 270.85,165.66 271.07,165.66 271.29,165.66 271.73,165.66 272.18,165.66"
     style="fill:none;stroke:#000000;stroke-width:0.5"
     id="polyline932"
     transform="translate(-141.04,-63.84134)" />
  <polyline
     points="266.64,168.86 266.86,168.47 267.09,168.09 267.2,167.9 267.31,167.71 267.42,167.51 267.53,167.32 267.64,167.12 267.76,166.92 267.82,166.82 267.88,166.72 267.93,166.62 267.99,166.52 268.05,166.41 268.11,166.31 268.17,166.2 268.24,166.1 268.3,165.99 268.36,165.88 268.42,165.77 268.49,165.66"
     style="fill:none;stroke:#000000;stroke-width:0.5"
     id="polyline934"
     transform="translate(-141.04,-63.84134)" />
  <polyline
     points="272.18,165.66 270.85,165.8 269.58,166.22 268.42,166.88 267.43,167.78 266.64,168.86"
     style="fill:none;stroke:#000000;stroke-width:0.5"
     id="polyline936"
     transform="translate(-141.04,-63.84134)" />
  <polyline
     points="266.64,175.25 266.42,174.86 266.2,174.48 266.09,174.29 265.98,174.1 265.87,173.9 265.75,173.71 265.64,173.51 265.53,173.31 265.47,173.21 265.41,173.11 265.35,173.01 265.29,172.91 265.23,172.8 265.17,172.7 265.11,172.59 265.05,172.49 264.99,172.38 264.93,172.27 264.86,172.16 264.8,172.05"
     style="fill:none;stroke:#000000;stroke-width:0.5"
     id="polyline938"
     transform="translate(-141.04,-63.84134)" />
  <polyline
     points="266.64,168.86 266.1,170.08 265.82,171.38 265.82,172.72 266.1,174.03 266.64,175.25"
     style="fill:none;stroke:#000000;stroke-width:0.5"
     id="polyline940"
     transform="translate(-141.04,-63.84134)" />
  <polyline
     points="264.8,172.05 264.86,171.94 264.93,171.83 264.99,171.72 265.05,171.62 265.11,171.51 265.17,171.41 265.23,171.3 265.29,171.2 265.35,171.1 265.41,170.99 265.47,170.89 265.53,170.79 265.64,170.59 265.75,170.4 265.87,170.2 265.98,170.01 266.09,169.81 266.2,169.62 266.42,169.24 266.64,168.86"
     style="fill:none;stroke:#000000;stroke-width:0.5"
     id="polyline942"
     transform="translate(-141.04,-63.84134)" />
  <polyline
     points="275.86,165.66 275.93,165.77 275.99,165.88 276.05,165.99 276.11,166.1 276.18,166.2 276.24,166.31 276.3,166.41 276.36,166.52 276.42,166.62 276.47,166.72 276.53,166.82 276.59,166.92 276.71,167.12 276.82,167.32 276.93,167.51 277.04,167.71 277.15,167.9 277.27,168.09 277.49,168.47 277.71,168.86"
     style="fill:none;stroke:#000000;stroke-width:0.5"
     id="polyline944"
     transform="translate(-141.04,-63.84134)" />
  <polyline
     points="272.18,165.66 272.62,165.66 273.06,165.66 273.28,165.66 273.5,165.66 273.73,165.66 273.95,165.66 274.18,165.66 274.41,165.66 274.52,165.66 274.64,165.66 274.76,165.66 274.88,165.66 275,165.66 275.12,165.66 275.24,165.66 275.36,165.66 275.48,165.66 275.61,165.66 275.74,165.66 275.86,165.66"
     style="fill:none;stroke:#000000;stroke-width:0.5"
     id="polyline946"
     transform="translate(-141.04,-63.84134)" />
  <polyline
     points="277.71,168.86 276.92,167.78 275.93,166.88 274.77,166.22 273.5,165.8 272.18,165.66"
     style="fill:none;stroke:#000000;stroke-width:0.5"
     id="polyline948"
     transform="translate(-141.04,-63.84134)" />
  <polyline
     points="279.55,172.05 279.49,172.16 279.42,172.27 279.36,172.38 279.3,172.49 279.24,172.59 279.18,172.7 279.12,172.8 279.06,172.91 279,173.01 278.94,173.11 278.88,173.21 278.82,173.31 278.71,173.51 278.6,173.71 278.48,173.9 278.37,174.1 278.26,174.29 278.15,174.48 277.93,174.86 277.71,175.25"
     style="fill:none;stroke:#000000;stroke-width:0.5"
     id="polyline950"
     transform="translate(-141.04,-63.84134)" />
  <polyline
     points="277.71,168.86 277.93,169.24 278.15,169.62 278.26,169.81 278.37,170.01 278.48,170.2 278.6,170.4 278.71,170.59 278.82,170.79 278.88,170.89 278.94,170.99 279,171.1 279.06,171.2 279.12,171.3 279.18,171.41 279.24,171.51 279.3,171.62 279.36,171.72 279.42,171.83 279.49,171.94 279.55,172.05"
     style="fill:none;stroke:#000000;stroke-width:0.5"
     id="polyline952"
     transform="translate(-141.04,-63.84134)" />
  <polyline
     points="277.71,175.25 278.25,174.03 278.53,172.72 278.53,171.38 278.25,170.08 277.71,168.86"
     style="fill:none;stroke:#000000;stroke-width:0.5"
     id="polyline954"
     transform="translate(-141.04,-63.84134)" />
  <polyline
     points="272.18,178.44 271.73,178.44 271.29,178.44 271.07,178.44 270.85,178.44 270.62,178.44 270.4,178.44 270.17,178.44 269.94,178.44 269.83,178.44 269.71,178.44 269.59,178.44 269.47,178.44 269.35,178.44 269.23,178.44 269.11,178.44 268.99,178.44 268.87,178.44 268.74,178.44 268.61,178.44 268.49,178.44"
     style="fill:none;stroke:#000000;stroke-width:0.5"
     id="polyline956"
     transform="translate(-141.04,-63.84134)" />
  <polyline
     points="266.64,175.25 267.43,176.33 268.42,177.22 269.58,177.89 270.85,178.3 272.18,178.44"
     style="fill:none;stroke:#000000;stroke-width:0.5"
     id="polyline958"
     transform="translate(-141.04,-63.84134)" />
  <polyline
     points="268.49,178.44 268.42,178.33 268.36,178.22 268.3,178.11 268.24,178 268.17,177.9 268.11,177.79 268.05,177.69 267.99,177.59 267.93,177.48 267.88,177.38 267.82,177.28 267.76,177.18 267.64,176.98 267.53,176.78 267.42,176.59 267.31,176.4 267.2,176.2 267.09,176.01 266.86,175.63 266.64,175.25"
     style="fill:none;stroke:#000000;stroke-width:0.5"
     id="polyline960"
     transform="translate(-141.04,-63.84134)" />
  <polyline
     points="277.71,175.25 277.49,175.63 277.27,176.01 277.15,176.2 277.04,176.4 276.93,176.59 276.82,176.78 276.71,176.98 276.59,177.18 276.53,177.28 276.47,177.38 276.42,177.48 276.36,177.59 276.3,177.69 276.24,177.79 276.18,177.9 276.11,178 276.05,178.11 275.99,178.22 275.93,178.33 275.86,178.44"
     style="fill:none;stroke:#000000;stroke-width:0.5"
     id="polyline962"
     transform="translate(-141.04,-63.84134)" />
  <polyline
     points="272.18,178.44 273.5,178.3 274.77,177.89 275.93,177.22 276.92,176.33 277.71,175.25"
     style="fill:none;stroke:#000000;stroke-width:0.5"
     id="polyline964"
     transform="translate(-141.04,-63.84134)" />
  <polyline
     points="275.86,178.44 275.74,178.44 275.61,178.44 275.48,178.44 275.36,178.44 275.24,178.44 275.12,178.44 275,178.44 274.88,178.44 274.76,178.44 274.64,178.44 274.52,178.44 274.41,178.44 274.18,178.44 273.95,178.44 273.73,178.44 273.5,178.44 273.28,178.44 273.06,178.44 272.62,178.44 272.18,178.44"
     style="fill:none;stroke:#000000;stroke-width:0.5"
     id="polyline966"
     transform="translate(-141.04,-63.84134)" />
  <polyline
     points="268.49,230.36 268.61,230.36 268.74,230.36 268.87,230.36 268.99,230.36 269.11,230.36 269.23,230.36 269.35,230.36 269.47,230.36 269.59,230.36 269.71,230.36 269.83,230.36 269.94,230.36 270.17,230.36 270.4,230.36 270.62,230.36 270.85,230.36 271.07,230.36 271.29,230.36 271.73,230.36 272.18,230.36"
     style="fill:none;stroke:#000000;stroke-width:0.5"
     id="polyline968"
     transform="translate(-141.04,-63.84134)" />
  <polyline
     points="266.64,233.56 266.86,233.17 267.09,232.79 267.2,232.6 267.31,232.41 267.42,232.21 267.53,232.02 267.64,231.82 267.76,231.62 267.82,231.52 267.88,231.42 267.93,231.32 267.99,231.22 268.05,231.11 268.11,231.01 268.17,230.9 268.24,230.8 268.3,230.69 268.36,230.58 268.42,230.47 268.49,230.36"
     style="fill:none;stroke:#000000;stroke-width:0.5"
     id="polyline970"
     transform="translate(-141.04,-63.84134)" />
  <polyline
     points="272.18,230.36 270.85,230.5 269.58,230.91 268.42,231.58 267.43,232.48 266.64,233.56"
     style="fill:none;stroke:#000000;stroke-width:0.5"
     id="polyline972"
     transform="translate(-141.04,-63.84134)" />
  <polyline
     points="266.64,239.94 266.42,239.56 266.2,239.18 266.09,238.99 265.98,238.79 265.87,238.6 265.75,238.41 265.64,238.21 265.53,238.01 265.47,237.91 265.41,237.81 265.35,237.71 265.29,237.6 265.23,237.5 265.17,237.4 265.11,237.29 265.05,237.18 264.99,237.08 264.93,236.97 264.86,236.86 264.8,236.75"
     style="fill:none;stroke:#000000;stroke-width:0.5"
     id="polyline974"
     transform="translate(-141.04,-63.84134)" />
  <polyline
     points="266.64,233.56 266.1,234.78 265.82,236.08 265.82,237.42 266.1,238.72 266.64,239.94"
     style="fill:none;stroke:#000000;stroke-width:0.5"
     id="polyline976"
     transform="translate(-141.04,-63.84134)" />
  <polyline
     points="264.8,236.75 264.86,236.64 264.93,236.53 264.99,236.42 265.05,236.32 265.11,236.21 265.17,236.1 265.23,236 265.29,235.9 265.35,235.79 265.41,235.69 265.47,235.59 265.53,235.49 265.64,235.29 265.75,235.09 265.87,234.9 265.98,234.71 266.09,234.51 266.2,234.32 266.42,233.94 266.64,233.56"
     style="fill:none;stroke:#000000;stroke-width:0.5"
     id="polyline978"
     transform="translate(-141.04,-63.84134)" />
  <polyline
     points="275.86,230.36 275.93,230.47 275.99,230.58 276.05,230.69 276.11,230.8 276.18,230.9 276.24,231.01 276.3,231.11 276.36,231.22 276.42,231.32 276.47,231.42 276.53,231.52 276.59,231.62 276.71,231.82 276.82,232.02 276.93,232.21 277.04,232.41 277.15,232.6 277.27,232.79 277.49,233.17 277.71,233.56"
     style="fill:none;stroke:#000000;stroke-width:0.5"
     id="polyline980"
     transform="translate(-141.04,-63.84134)" />
  <polyline
     points="272.18,230.36 272.62,230.36 273.06,230.36 273.28,230.36 273.5,230.36 273.73,230.36 273.95,230.36 274.18,230.36 274.41,230.36 274.52,230.36 274.64,230.36 274.76,230.36 274.88,230.36 275,230.36 275.12,230.36 275.24,230.36 275.36,230.36 275.48,230.36 275.61,230.36 275.74,230.36 275.86,230.36"
     style="fill:none;stroke:#000000;stroke-width:0.5"
     id="polyline982"
     transform="translate(-141.04,-63.84134)" />
  <polyline
     points="277.71,233.56 276.92,232.48 275.93,231.58 274.77,230.91 273.5,230.5 272.18,230.36"
     style="fill:none;stroke:#000000;stroke-width:0.5"
     id="polyline984"
     transform="translate(-141.04,-63.84134)" />
  <polyline
     points="279.55,236.75 279.49,236.86 279.42,236.97 279.36,237.08 279.3,237.18 279.24,237.29 279.18,237.4 279.12,237.5 279.06,237.6 279,237.71 278.94,237.81 278.88,237.91 278.82,238.01 278.71,238.21 278.6,238.41 278.48,238.6 278.37,238.79 278.26,238.99 278.15,239.18 277.93,239.56 277.71,239.94"
     style="fill:none;stroke:#000000;stroke-width:0.5"
     id="polyline986"
     transform="translate(-141.04,-63.84134)" />
  <polyline
     points="277.71,233.56 277.93,233.94 278.15,234.32 278.26,234.51 278.37,234.71 278.48,234.9 278.6,235.09 278.71,235.29 278.82,235.49 278.88,235.59 278.94,235.69 279,235.79 279.06,235.9 279.12,236 279.18,236.1 279.24,236.21 279.3,236.32 279.36,236.42 279.42,236.53 279.49,236.64 279.55,236.75"
     style="fill:none;stroke:#000000;stroke-width:0.5"
     id="polyline988"
     transform="translate(-141.04,-63.84134)" />
  <polyline
     points="277.71,239.94 278.25,238.72 278.53,237.42 278.53,236.08 278.25,234.78 277.71,233.56"
     style="fill:none;stroke:#000000;stroke-width:0.5"
     id="polyline990"
     transform="translate(-141.04,-63.84134)" />
  <polyline
     points="272.18,243.14 271.73,243.14 271.29,243.14 271.07,243.14 270.85,243.14 270.62,243.14 270.4,243.14 270.17,243.14 269.94,243.14 269.83,243.14 269.71,243.14 269.59,243.14 269.47,243.14 269.35,243.14 269.23,243.14 269.11,243.14 268.99,243.14 268.87,243.14 268.74,243.14 268.61,243.14 268.49,243.14"
     style="fill:none;stroke:#000000;stroke-width:0.5"
     id="polyline992"
     transform="translate(-141.04,-63.84134)" />
  <polyline
     points="266.64,239.94 267.43,241.02 268.42,241.92 269.58,242.59 270.85,243 272.18,243.14"
     style="fill:none;stroke:#000000;stroke-width:0.5"
     id="polyline994"
     transform="translate(-141.04,-63.84134)" />
  <polyline
     points="268.49,243.14 268.42,243.03 268.36,242.92 268.3,242.81 268.24,242.7 268.17,242.6 268.11,242.49 268.05,242.39 267.99,242.28 267.93,242.18 267.88,242.08 267.82,241.98 267.76,241.88 267.64,241.68 267.53,241.48 267.42,241.29 267.31,241.09 267.2,240.9 267.09,240.71 266.86,240.33 266.64,239.94"
     style="fill:none;stroke:#000000;stroke-width:0.5"
     id="polyline996"
     transform="translate(-141.04,-63.84134)" />
  <polyline
     points="277.71,239.94 277.49,240.33 277.27,240.71 277.15,240.9 277.04,241.09 276.93,241.29 276.82,241.48 276.71,241.68 276.59,241.88 276.53,241.98 276.47,242.08 276.42,242.18 276.36,242.28 276.3,242.39 276.24,242.49 276.18,242.6 276.11,242.7 276.05,242.81 275.99,242.92 275.93,243.03 275.86,243.14"
     style="fill:none;stroke:#000000;stroke-width:0.5"
     id="polyline998"
     transform="translate(-141.04,-63.84134)" />
  <polyline
     points="272.18,243.14 273.5,243 274.77,242.59 275.93,241.92 276.92,241.02 277.71,239.94"
     style="fill:none;stroke:#000000;stroke-width:0.5"
     id="polyline1000"
     transform="translate(-141.04,-63.84134)" />
  <polyline
     points="275.86,243.14 275.74,243.14 275.61,243.14 275.48,243.14 275.36,243.14 275.24,243.14 275.12,243.14 275,243.14 274.88,243.14 274.76,243.14 274.64,243.14 274.52,243.14 274.41,243.14 274.18,243.14 273.95,243.14 273.73,243.14 273.5,243.14 273.28,243.14 273.06,243.14 272.62,243.14 272.18,243.14"
     style="fill:none;stroke:#000000;stroke-width:0.5"
     id="polyline1002"
     transform="translate(-141.04,-63.84134)" />
  <polyline
     points="159.52,327.41 159.65,327.41 159.77,327.41 159.9,327.41 160.02,327.41 160.15,327.41 160.27,327.41 160.39,327.41 160.51,327.41 160.63,327.41 160.74,327.41 160.86,327.41 160.98,327.41 161.21,327.41 161.43,327.41 161.66,327.41 161.88,327.41 162.1,327.41 162.33,327.41 162.77,327.41 163.21,327.41"
     style="fill:none;stroke:#000000;stroke-width:0.5"
     id="polyline1004"
     transform="translate(-141.04,-63.84134)" />
  <polyline
     points="157.68,330.6 157.9,330.22 158.12,329.84 158.23,329.65 158.34,329.45 158.45,329.26 158.57,329.07 158.68,328.87 158.79,328.67 158.85,328.57 158.91,328.47 158.97,328.37 159.03,328.26 159.09,328.16 159.15,328.06 159.21,327.95 159.27,327.84 159.33,327.74 159.39,327.63 159.46,327.52 159.52,327.41"
     style="fill:none;stroke:#000000;stroke-width:0.5"
     id="polyline1006"
     transform="translate(-141.04,-63.84134)" />
  <polyline
     points="163.21,327.41 161.88,327.55 160.61,327.96 159.45,328.63 158.46,329.52 157.68,330.6"
     style="fill:none;stroke:#000000;stroke-width:0.5"
     id="polyline1008"
     transform="translate(-141.04,-63.84134)" />
  <polyline
     points="157.68,336.99 157.46,336.61 157.23,336.23 157.12,336.03 157.01,335.84 156.9,335.65 156.79,335.45 156.68,335.26 156.56,335.06 156.5,334.96 156.44,334.86 156.39,334.75 156.33,334.65 156.27,334.55 156.21,334.44 156.15,334.34 156.08,334.23 156.02,334.13 155.96,334.02 155.9,333.91 155.83,333.8"
     style="fill:none;stroke:#000000;stroke-width:0.5"
     id="polyline1010"
     transform="translate(-141.04,-63.84134)" />
  <polyline
     points="157.68,330.6 157.13,331.82 156.86,333.13 156.86,334.47 157.13,335.77 157.68,336.99"
     style="fill:none;stroke:#000000;stroke-width:0.5"
     id="polyline1012"
     transform="translate(-141.04,-63.84134)" />
  <polyline
     points="155.83,333.8 155.9,333.69 155.96,333.58 156.02,333.47 156.08,333.36 156.15,333.26 156.21,333.15 156.27,333.05 156.33,332.94 156.39,332.84 156.44,332.74 156.5,332.64 156.56,332.54 156.68,332.34 156.79,332.14 156.9,331.95 157.01,331.75 157.12,331.56 157.23,331.37 157.46,330.99 157.68,330.6"
     style="fill:none;stroke:#000000;stroke-width:0.5"
     id="polyline1014"
     transform="translate(-141.04,-63.84134)" />
  <polyline
     points="166.9,327.41 166.96,327.52 167.02,327.63 167.09,327.74 167.15,327.84 167.21,327.95 167.27,328.06 167.33,328.16 167.39,328.26 167.45,328.37 167.51,328.47 167.57,328.57 167.62,328.67 167.74,328.87 167.85,329.07 167.97,329.26 168.08,329.45 168.19,329.65 168.3,329.84 168.52,330.22 168.74,330.6"
     style="fill:none;stroke:#000000;stroke-width:0.5"
     id="polyline1016"
     transform="translate(-141.04,-63.84134)" />
  <polyline
     points="163.21,327.41 163.65,327.41 164.09,327.41 164.31,327.41 164.54,327.41 164.76,327.41 164.99,327.41 165.21,327.41 165.44,327.41 165.56,327.41 165.68,327.41 165.79,327.41 165.91,327.41 166.03,327.41 166.15,327.41 166.27,327.41 166.4,327.41 166.52,327.41 166.64,327.41 166.77,327.41 166.9,327.41"
     style="fill:none;stroke:#000000;stroke-width:0.5"
     id="polyline1018"
     transform="translate(-141.04,-63.84134)" />
  <polyline
     points="168.74,330.6 167.96,329.52 166.96,328.63 165.81,327.96 164.54,327.55 163.21,327.41"
     style="fill:none;stroke:#000000;stroke-width:0.5"
     id="polyline1020"
     transform="translate(-141.04,-63.84134)" />
  <polyline
     points="170.59,333.8 170.52,333.91 170.46,334.02 170.4,334.13 170.33,334.23 170.27,334.34 170.21,334.44 170.15,334.55 170.09,334.65 170.03,334.75 169.97,334.86 169.92,334.96 169.86,335.06 169.74,335.26 169.63,335.45 169.52,335.65 169.41,335.84 169.29,336.03 169.18,336.23 168.96,336.61 168.74,336.99"
     style="fill:none;stroke:#000000;stroke-width:0.5"
     id="polyline1022"
     transform="translate(-141.04,-63.84134)" />
  <polyline
     points="168.74,330.6 168.96,330.99 169.18,331.37 169.29,331.56 169.41,331.75 169.52,331.95 169.63,332.14 169.74,332.34 169.86,332.54 169.92,332.64 169.97,332.74 170.03,332.84 170.09,332.94 170.15,333.05 170.21,333.15 170.27,333.26 170.33,333.36 170.4,333.47 170.46,333.58 170.52,333.69 170.59,333.8"
     style="fill:none;stroke:#000000;stroke-width:0.5"
     id="polyline1024"
     transform="translate(-141.04,-63.84134)" />
  <polyline
     points="168.74,336.99 169.28,335.77 169.56,334.47 169.56,333.13 169.28,331.82 168.74,330.6"
     style="fill:none;stroke:#000000;stroke-width:0.5"
     id="polyline1026"
     transform="translate(-141.04,-63.84134)" />
  <polyline
     points="163.21,340.19 162.77,340.19 162.33,340.19 162.1,340.19 161.88,340.19 161.66,340.19 161.43,340.19 161.21,340.19 160.98,340.19 160.86,340.19 160.74,340.19 160.63,340.19 160.51,340.19 160.39,340.19 160.27,340.19 160.15,340.19 160.02,340.19 159.9,340.19 159.77,340.19 159.65,340.19 159.52,340.19"
     style="fill:none;stroke:#000000;stroke-width:0.5"
     id="polyline1028"
     transform="translate(-141.04,-63.84134)" />
  <polyline
     points="157.68,336.99 158.46,338.07 159.45,338.97 160.61,339.63 161.88,340.05 163.21,340.19"
     style="fill:none;stroke:#000000;stroke-width:0.5"
     id="polyline1030"
     transform="translate(-141.04,-63.84134)" />
  <polyline
     points="159.52,340.19 159.46,340.08 159.39,339.97 159.33,339.86 159.27,339.75 159.21,339.64 159.15,339.54 159.09,339.44 159.03,339.33 158.97,339.23 158.91,339.13 158.85,339.03 158.79,338.93 158.68,338.73 158.57,338.53 158.45,338.34 158.34,338.14 158.23,337.95 158.12,337.76 157.9,337.38 157.68,336.99"
     style="fill:none;stroke:#000000;stroke-width:0.5"
     id="polyline1032"
     transform="translate(-141.04,-63.84134)" />
  <polyline
     points="168.74,336.99 168.52,337.38 168.3,337.76 168.19,337.95 168.08,338.14 167.97,338.34 167.85,338.53 167.74,338.73 167.62,338.93 167.57,339.03 167.51,339.13 167.45,339.23 167.39,339.33 167.33,339.44 167.27,339.54 167.21,339.64 167.15,339.75 167.09,339.86 167.02,339.97 166.96,340.08 166.9,340.19"
     style="fill:none;stroke:#000000;stroke-width:0.5"
     id="polyline1034"
     transform="translate(-141.04,-63.84134)" />
  <polyline
     points="163.21,340.19 164.54,340.05 165.81,339.63 166.96,338.97 167.96,338.07 168.74,336.99"
     style="fill:none;stroke:#000000;stroke-width:0.5"
     id="polyline1036"
     transform="translate(-141.04,-63.84134)" />
  <polyline
     points="166.9,340.19 166.77,340.19 166.64,340.19 166.52,340.19 166.4,340.19 166.27,340.19 166.15,340.19 166.03,340.19 165.91,340.19 165.79,340.19 165.68,340.19 165.56,340.19 165.44,340.19 165.21,340.19 164.99,340.19 164.76,340.19 164.54,340.19 164.31,340.19 164.09,340.19 163.65,340.19 163.21,340.19"
     style="fill:none;stroke:#000000;stroke-width:0.5"
     id="polyline1038"
     transform="translate(-141.04,-63.84134)" />
  <polyline
     points="159.52,376.78 159.65,376.78 159.77,376.78 159.9,376.78 160.02,376.78 160.15,376.78 160.27,376.78 160.39,376.78 160.51,376.78 160.63,376.78 160.74,376.78 160.86,376.78 160.98,376.78 161.21,376.78 161.43,376.78 161.66,376.78 161.88,376.78 162.1,376.78 162.33,376.78 162.77,376.78 163.21,376.78"
     style="fill:none;stroke:#000000;stroke-width:0.5"
     id="polyline1040"
     transform="translate(-141.04,-63.84134)" />
  <polyline
     points="157.68,379.98 157.9,379.6 158.12,379.21 158.23,379.02 158.34,378.83 158.45,378.64 158.57,378.44 158.68,378.24 158.79,378.04 158.85,377.94 158.91,377.84 158.97,377.74 159.03,377.64 159.09,377.54 159.15,377.43 159.21,377.33 159.27,377.22 159.33,377.11 159.39,377 159.46,376.9 159.52,376.78"
     style="fill:none;stroke:#000000;stroke-width:0.5"
     id="polyline1042"
     transform="translate(-141.04,-63.84134)" />
  <polyline
     points="163.21,376.78 161.88,376.92 160.61,377.34 159.45,378 158.46,378.9 157.68,379.98"
     style="fill:none;stroke:#000000;stroke-width:0.5"
     id="polyline1044"
     transform="translate(-141.04,-63.84134)" />
  <polyline
     points="157.68,386.37 157.46,385.98 157.23,385.6 157.12,385.41 157.01,385.22 156.9,385.02 156.79,384.83 156.68,384.63 156.56,384.43 156.5,384.33 156.44,384.23 156.39,384.13 156.33,384.03 156.27,383.92 156.21,383.82 156.15,383.71 156.08,383.61 156.02,383.5 155.96,383.39 155.9,383.28 155.83,383.17"
     style="fill:none;stroke:#000000;stroke-width:0.5"
     id="polyline1046"
     transform="translate(-141.04,-63.84134)" />
  <polyline
     points="157.68,379.98 157.13,381.2 156.86,382.51 156.86,383.84 157.13,385.15 157.68,386.37"
     style="fill:none;stroke:#000000;stroke-width:0.5"
     id="polyline1048"
     transform="translate(-141.04,-63.84134)" />
  <polyline
     points="155.83,383.17 155.9,383.06 155.96,382.95 156.02,382.85 156.08,382.74 156.15,382.63 156.21,382.53 156.27,382.42 156.33,382.32 156.39,382.22 156.44,382.11 156.5,382.01 156.56,381.91 156.68,381.71 156.79,381.52 156.9,381.32 157.01,381.13 157.12,380.94 157.23,380.74 157.46,380.36 157.68,379.98"
     style="fill:none;stroke:#000000;stroke-width:0.5"
     id="polyline1050"
     transform="translate(-141.04,-63.84134)" />
  <polyline
     points="166.9,376.78 166.96,376.9 167.02,377 167.09,377.11 167.15,377.22 167.21,377.33 167.27,377.43 167.33,377.54 167.39,377.64 167.45,377.74 167.51,377.84 167.57,377.94 167.62,378.04 167.74,378.24 167.85,378.44 167.97,378.64 168.08,378.83 168.19,379.02 168.3,379.21 168.52,379.6 168.74,379.98"
     style="fill:none;stroke:#000000;stroke-width:0.5"
     id="polyline1052"
     transform="translate(-141.04,-63.84134)" />
  <polyline
     points="163.21,376.78 163.65,376.78 164.09,376.78 164.31,376.78 164.54,376.78 164.76,376.78 164.99,376.78 165.21,376.78 165.44,376.78 165.56,376.78 165.68,376.78 165.79,376.78 165.91,376.78 166.03,376.78 166.15,376.78 166.27,376.78 166.4,376.78 166.52,376.78 166.64,376.78 166.77,376.78 166.9,376.78"
     style="fill:none;stroke:#000000;stroke-width:0.5"
     id="polyline1054"
     transform="translate(-141.04,-63.84134)" />
  <polyline
     points="168.74,379.98 167.96,378.9 166.96,378 165.81,377.34 164.54,376.92 163.21,376.78"
     style="fill:none;stroke:#000000;stroke-width:0.5"
     id="polyline1056"
     transform="translate(-141.04,-63.84134)" />
  <polyline
     points="170.59,383.17 170.52,383.28 170.46,383.39 170.4,383.5 170.33,383.61 170.27,383.71 170.21,383.82 170.15,383.92 170.09,384.03 170.03,384.13 169.97,384.23 169.92,384.33 169.86,384.43 169.74,384.63 169.63,384.83 169.52,385.02 169.41,385.22 169.29,385.41 169.18,385.6 168.96,385.98 168.74,386.37"
     style="fill:none;stroke:#000000;stroke-width:0.5"
     id="polyline1058"
     transform="translate(-141.04,-63.84134)" />
  <polyline
     points="168.74,379.98 168.96,380.36 169.18,380.74 169.29,380.94 169.41,381.13 169.52,381.32 169.63,381.52 169.74,381.71 169.86,381.91 169.92,382.01 169.97,382.11 170.03,382.22 170.09,382.32 170.15,382.42 170.21,382.53 170.27,382.63 170.33,382.74 170.4,382.85 170.46,382.95 170.52,383.06 170.59,383.17"
     style="fill:none;stroke:#000000;stroke-width:0.5"
     id="polyline1060"
     transform="translate(-141.04,-63.84134)" />
  <polyline
     points="168.74,386.37 169.28,385.15 169.56,383.84 169.56,382.51 169.28,381.2 168.74,379.98"
     style="fill:none;stroke:#000000;stroke-width:0.5"
     id="polyline1062"
     transform="translate(-141.04,-63.84134)" />
  <polyline
     points="163.21,389.56 162.77,389.56 162.33,389.56 162.1,389.56 161.88,389.56 161.66,389.56 161.43,389.56 161.21,389.56 160.98,389.56 160.86,389.56 160.74,389.56 160.63,389.56 160.51,389.56 160.39,389.56 160.27,389.56 160.15,389.56 160.02,389.56 159.9,389.56 159.77,389.56 159.65,389.56 159.52,389.56"
     style="fill:none;stroke:#000000;stroke-width:0.5"
     id="polyline1064"
     transform="translate(-141.04,-63.84134)" />
  <polyline
     points="157.68,386.37 158.46,387.45 159.45,388.34 160.61,389.01 161.88,389.42 163.21,389.56"
     style="fill:none;stroke:#000000;stroke-width:0.5"
     id="polyline1066"
     transform="translate(-141.04,-63.84134)" />
  <polyline
     points="159.52,389.56 159.46,389.45 159.39,389.34 159.33,389.23 159.27,389.13 159.21,389.02 159.15,388.91 159.09,388.81 159.03,388.71 158.97,388.6 158.91,388.5 158.85,388.4 158.79,388.3 158.68,388.1 158.57,387.91 158.45,387.71 158.34,387.52 158.23,387.32 158.12,387.13 157.9,386.75 157.68,386.37"
     style="fill:none;stroke:#000000;stroke-width:0.5"
     id="polyline1068"
     transform="translate(-141.04,-63.84134)" />
  <polyline
     points="168.74,386.37 168.52,386.75 168.3,387.13 168.19,387.32 168.08,387.52 167.97,387.71 167.85,387.91 167.74,388.1 167.62,388.3 167.57,388.4 167.51,388.5 167.45,388.6 167.39,388.71 167.33,388.81 167.27,388.91 167.21,389.02 167.15,389.13 167.09,389.23 167.02,389.34 166.96,389.45 166.9,389.56"
     style="fill:none;stroke:#000000;stroke-width:0.5"
     id="polyline1070"
     transform="translate(-141.04,-63.84134)" />
  <polyline
     points="163.21,389.56 164.54,389.42 165.81,389.01 166.96,388.34 167.96,387.45 168.74,386.37"
     style="fill:none;stroke:#000000;stroke-width:0.5"
     id="polyline1072"
     transform="translate(-141.04,-63.84134)" />
  <polyline
     points="166.9,389.56 166.77,389.56 166.64,389.56 166.52,389.56 166.4,389.56 166.27,389.56 166.15,389.56 166.03,389.56 165.91,389.56 165.79,389.56 165.68,389.56 165.56,389.56 165.44,389.56 165.21,389.56 164.99,389.56 164.76,389.56 164.54,389.56 164.31,389.56 164.09,389.56 163.65,389.56 163.21,389.56"
     style="fill:none;stroke:#000000;stroke-width:0.5"
     id="polyline1074"
     transform="translate(-141.04,-63.84134)" />
  <polyline
     points="353.36,260.59 351.36,267.6 349.74,274.72 348.5,281.91 347.64,289.16 347.18,296.44 347.11,303.74 347.43,311.03 348.13,318.29 349.23,325.51 350.71,332.65 352.57,339.71 354.81,346.66 357.42,353.47 360.38,360.14 363.7,366.64 367.37,372.95 371.36,379.06 375.68,384.94 380.31,390.59 385.23,395.98 390.43,401.09 395.9,405.92 401.62,410.45 407.58,414.67 413.75,418.56 420.13,422.12 426.68,425.33 433.4,428.19 440.25,430.68 447.24,432.8 454.32,434.54 461.49,435.9 468.73,436.87 476,437.46 483.3,437.66 490.59,437.46 497.87,436.87 505.1,435.9 512.27,434.54 519.36,432.8 526.34,430.68 533.2,428.19 539.91,425.33 546.47,422.12 552.84,418.56 559.01,414.67 564.97,410.45 570.69,405.92 576.16,401.09 581.36,395.98 586.29,390.59 590.91,384.94 595.23,379.06 599.23,372.95 602.89,366.64 606.21,360.14 609.18,353.47 611.78,346.66 614.02,339.71 615.88,332.65 617.36,325.51 618.46,318.29 619.17,311.03 619.48,303.74 619.41,296.44 618.95,289.16 618.1,281.91 616.86,274.72 615.23,267.6 613.23,260.59"
     style="fill:none;stroke:#000000;stroke-width:0.5"
     id="polyline1076"
     transform="translate(-141.04,-63.84134)" />
  <polyline
     points="180.24,436.59 151.77,478.79"
     style="fill:none;stroke:#000000;stroke-width:0.5"
     id="polyline1078"
     transform="translate(-141.04,-63.84134)" />
  <polyline
     points="151.77,478.79 151.77,400.2"
     style="fill:none;stroke:#000000;stroke-width:0.5"
     id="polyline1080"
     transform="translate(-141.04,-63.84134)" />
  <polyline
     points="180.24,400.2 180.24,436.59"
     style="fill:none;stroke:#000000;stroke-width:0.5"
     id="polyline1082"
     transform="translate(-141.04,-63.84134)" />
  <polyline
     points="483.3,301.45 500.32,301.45"
     style="fill:none;stroke:#000000;stroke-width:0.5"
     id="polyline1510"
     transform="translate(-141.04,-63.84134)" />
  <polyline
     points="483.3,301.45 500.32,301.45 516.4,301.45 636.53,301.45"
     style="fill:none;stroke:#000000;stroke-width:0.5"
     id="polyline1512"
     transform="translate(-141.04,-63.84134)" />
  <polyline
     points="483.3,301.45 500.32,301.45 516.4,301.45 636.53,301.45 483.3,301.45 466.27,301.45"
     style="fill:none;stroke:#000000;stroke-width:0.5"
     id="polyline1514"
     transform="translate(-141.04,-63.84134)" />
  <polyline
     points="483.3,301.45 500.32,301.45 516.4,301.45 636.53,301.45 483.3,301.45 466.27,301.45 450.2,301.45 330.06,301.45"
     style="fill:none;stroke:#000000;stroke-width:0.5"
     id="polyline1516"
     transform="translate(-141.04,-63.84134)" />
  <polyline
     points="483.3,301.45 500.32,301.45 516.4,301.45 636.53,301.45 483.3,301.45 466.27,301.45 450.2,301.45 330.06,301.45 483.3,301.45 483.3,284.42"
     style="fill:none;stroke:#000000;stroke-width:0.5"
     id="polyline1518"
     transform="translate(-141.04,-63.84134)" />
  <polyline
     points="483.3,301.45 500.32,301.45 516.4,301.45 636.53,301.45 483.3,301.45 466.27,301.45 450.2,301.45 330.06,301.45 483.3,301.45 483.3,284.42 483.3,268.35 483.3,148.22"
     style="fill:none;stroke:#000000;stroke-width:0.5"
     id="polyline1520"
     transform="translate(-141.04,-63.84134)" />
  <polyline
     points="483.3,301.45 500.32,301.45 516.4,301.45 636.53,301.45 483.3,301.45 466.27,301.45 450.2,301.45 330.06,301.45 483.3,301.45 483.3,284.42 483.3,268.35 483.3,148.22 483.3,301.45 483.3,318.47"
     style="fill:none;stroke:#000000;stroke-width:0.5"
     id="polyline1522"
     transform="translate(-141.04,-63.84134)" />
  <polyline
     points="483.3,301.45 500.32,301.45 516.4,301.45 636.53,301.45 483.3,301.45 466.27,301.45 450.2,301.45 330.06,301.45 483.3,301.45 483.3,284.42 483.3,268.35 483.3,148.22 483.3,301.45 483.3,318.47 483.3,334.55 483.3,454.68"
     style="fill:none;stroke:#000000;stroke-width:0.5"
     id="polyline1524"
     transform="translate(-141.04,-63.84134)" />
  <polyline
     points="302.27,106.67 324.06,73.98"
     style="fill:none;stroke:#000000;stroke-width:0.5"
     id="polyline1526"
     transform="translate(-141.04,-63.84134)" />
  <polyline
     points="302.27,73.98 324.06,106.67"
     style="fill:none;stroke:#000000;stroke-width:0.5"
     id="polyline1528"
     transform="translate(-141.04,-63.84134)" />
  <polyline
     points="469.89,90.33 483.3,90.33"
     style="fill:none;stroke:#000000;stroke-width:0.5"
     id="polyline1530"
     transform="translate(-141.04,-63.84134)" />
  <path
     d="m 328.85,29.16866 13.41,-2.68 -13.41,-2.68 z"
     fill-rule="evenodd"
     fill="#000000"
     id="path1532" />
  <polyline
     points="469.89,93.01 483.3,90.33"
     style="fill:none;stroke:#000000;stroke-width:0.5"
     id="polyline1534"
     transform="translate(-141.04,-63.84134)" />
  <polyline
     points="483.3,90.33 469.89,87.65"
     style="fill:none;stroke:#000000;stroke-width:0.5"
     id="polyline1536"
     transform="translate(-141.04,-63.84134)" />
  <polyline
     points="469.89,87.65 469.89,93.01"
     style="fill:none;stroke:#000000;stroke-width:0.5"
     id="polyline1538"
     transform="translate(-141.04,-63.84134)" />
  <polyline
     points="164.7,90.33 151.29,90.33"
     style="fill:none;stroke:#000000;stroke-width:0.5"
     id="polyline1540"
     transform="translate(-141.04,-63.84134)" />
  <path
     d="m 23.66,29.16866 v -5.36 l -13.41,2.68 z"
     fill-rule="evenodd"
     fill="#000000"
     id="path1542" />
  <polyline
     points="164.7,87.65 151.29,90.33"
     style="fill:none;stroke:#000000;stroke-width:0.5"
     id="polyline1544"
     transform="translate(-141.04,-63.84134)" />
  <polyline
     points="151.29,90.33 164.7,93.01"
     style="fill:none;stroke:#000000;stroke-width:0.5"
     id="polyline1546"
     transform="translate(-141.04,-63.84134)" />
  <polyline
     points="164.7,93.01 164.7,87.65"
     style="fill:none;stroke:#000000;stroke-width:0.5"
     id="polyline1548"
     transform="translate(-141.04,-63.84134)" />
  <polyline
     points="469.89,90.33 336.82,90.33"
     style="fill:none;stroke:#000000;stroke-width:0.5"
     id="polyline1550"
     transform="translate(-141.04,-63.84134)" />
  <polyline
     points="297.77,90.33 164.7,90.33"
     style="fill:none;stroke:#000000;stroke-width:0.5"
     id="polyline1552"
     transform="translate(-141.04,-63.84134)" />
  <polyline
     points="151.29,143.11 151.29,77.56"
     style="fill:none;stroke:#000000;stroke-width:0.5"
     id="polyline1554"
     transform="translate(-141.04,-63.84134)" />
  <polyline
     points="483.3,139.7 483.3,77.56"
     style="fill:none;stroke:#000000;stroke-width:0.5"
     id="polyline1556"
     transform="translate(-141.04,-63.84134)" />
</svg>
